<svg width="122" height="32" viewBox="0 0 122 32" fill="none" xmlns="http://www.w3.org/2000/svg">
<g clip-path="url(#clip0_4254_305)">
<path d="M92.0886 21.9662C92.1273 19.8451 92.0393 17.846 92.2321 15.8772C92.584 12.2854 94.4716 9.74764 97.6514 8.43663C100.845 7.12009 103.717 7.99048 106.247 10.308C106.505 10.5437 106.755 10.7882 107.04 11.0592C107.732 10.5034 108.377 9.92599 109.076 9.43288C114.23 5.79665 120.868 8.80204 121.686 15.253C122.019 17.8776 121.919 20.5662 121.96 23.2267C122 25.8351 121.969 28.4448 121.969 31.134C121.615 31.1563 121.368 31.185 121.121 31.1854C118.717 31.1888 116.312 31.1874 113.759 31.1874C113.759 28.9399 113.759 26.787 113.759 24.6341C113.759 22.5104 113.781 20.3864 113.747 18.2633C113.733 17.3669 113.75 16.2896 112.511 16.298C111.353 16.3058 111.177 17.3357 111.167 18.2372C111.122 22.258 111.142 26.2796 111.138 30.3009C111.138 30.5256 111.138 30.7502 111.138 31.0812C108.427 31.0812 105.749 31.0812 102.945 31.0812C102.945 28.2247 102.949 25.3895 102.943 22.5544C102.94 21.0186 102.941 19.4822 102.898 17.9474C102.875 17.1469 102.7 16.3536 101.74 16.2884C100.703 16.218 100.477 17.0564 100.341 17.8805C100.26 18.365 100.285 18.8708 100.284 19.3671C100.28 23.2473 100.282 27.1275 100.282 31.0975C97.5686 31.0975 94.9192 31.0975 92.0886 31.0975C92.0886 28.1202 92.0886 25.111 92.0886 21.9662Z" fill="white"/>
<path d="M25.9675 25.3344C22.8967 18.0684 26.1072 10.304 33.0358 8.30855C34.5971 7.8589 36.3015 7.95655 38.0359 7.79323C38.0359 11.1958 38.0359 14.1942 38.0359 17.3527C36.798 16.4579 35.5963 16.1881 34.3953 17.1056C33.3322 17.9176 32.8924 19.0405 33.0426 20.4124C33.2129 21.9682 34.4924 23.2337 35.9782 23.3203C37.578 23.4135 38.7118 22.5692 39.0601 20.8887C39.2412 20.015 39.3049 19.0995 39.3079 18.2025C39.3286 12.1981 39.3187 6.19359 39.3187 0.0942383C42.0335 0.0942383 44.6829 0.0942383 47.4262 0.0942383C47.4551 0.330245 47.5227 0.626433 47.523 0.922697C47.5292 6.88771 47.5613 12.853 47.5162 18.8176C47.485 22.9515 46.4657 26.6928 43.1145 29.298C37.3991 33.7412 29.8655 32.0199 25.9675 25.3344Z" fill="white"/>
<path d="M61.179 23.2677C62.1171 23.1945 62.9534 23.0955 63.8138 22.9938C63.8138 25.7098 63.8138 28.5421 63.8138 31.4938C60.8057 32.1266 58.0583 31.4871 55.5748 29.7685C51.1359 26.6968 49.3869 20.5773 51.3638 15.3985C53.3824 10.1103 58.6185 7.02476 63.9387 7.98815C69.9912 9.08412 73.3512 13.2382 73.373 19.6765C73.3858 23.4614 73.3753 27.2463 73.3753 31.1089C70.6382 31.1089 67.9943 31.1089 65.2077 31.1089C65.2077 28.4303 65.2108 25.7785 65.206 23.1267C65.2042 22.1335 65.2218 21.1379 65.1639 20.1477C65.0391 18.0129 63.9653 16.6691 62.3431 16.5448C60.8795 16.4327 59.4195 17.506 59.0122 18.9937C58.5138 20.8138 59.2762 22.3824 61.179 23.2677Z" fill="white"/>
<path d="M1.81608 13.5903C6.6405 6.19101 16.1541 5.87429 20.9433 12.8642C22.4477 15.06 23.0513 17.8089 22.7137 21.0617C18.6559 21.0617 14.5872 21.0617 10.415 21.0617C10.3234 20.6291 10.1801 20.1645 10.132 19.6894C9.91594 17.5571 10.3258 17.0843 12.335 17.0843C13.0647 17.0843 13.7944 17.0843 14.5795 17.0843C14.4914 15.9063 13.9566 15.1744 12.9688 14.8185C11.9174 14.4397 10.9299 14.5919 10.0619 15.3383C7.98933 17.1204 7.92881 21.8203 9.94591 23.6592C11.1593 24.7654 12.406 24.6582 14.2356 23.1996C15.7381 25.0791 17.2468 26.9666 18.7531 28.8509C15.6305 32.4415 9.01924 32.7072 4.74958 29.4395C0.090251 25.8735 -1.17526 19.1625 1.81608 13.5903Z" fill="white"/>
<path d="M86.0913 29.5352C86.0913 30.1148 86.0913 30.562 86.0913 31.098C83.3858 31.098 80.7368 31.098 77.9278 31.098C77.9278 30.0064 77.9218 28.8913 77.929 27.7762C77.9509 24.3435 77.8643 20.9049 78.0267 17.4794C78.3499 10.6619 83.4086 6.72743 89.8093 8.24189C89.8093 11.1531 89.8093 14.0782 89.8093 17.1142C89.4866 17.0282 89.2145 16.9482 88.9391 16.8837C87.6631 16.5847 86.7287 17.1158 86.3673 18.4582C86.1832 19.1423 86.11 19.8785 86.1032 20.5924C86.0749 23.529 86.0913 26.466 86.0913 29.5352Z" fill="white"/>
</g>
<defs>
<clipPath id="clip0_4254_305">
<rect width="122" height="32" fill="white"/>
</clipPath>
</defs>
</svg>
