<svg width="122" height="32" fill="none" xmlns="http://www.w3.org/2000/svg"><g clip-path="url(#a)" fill="#fff"><path d="M92.089 21.966c.038-2.12-.05-4.12.143-6.089.352-3.592 2.24-6.13 5.42-7.44 3.193-1.317 6.065-.447 8.595 1.871.258.236.508.48.793.751.692-.556 1.337-1.133 2.036-1.626 5.154-3.636 11.792-.631 12.61 5.82.333 2.625.233 5.313.274 7.974.04 2.608.009 5.218.009 7.907-.354.022-.601.051-.848.051-2.404.004-4.809.002-7.362.002v-6.553c0-2.124.022-4.248-.012-6.37-.014-.897.003-1.974-1.236-1.966-1.158.008-1.334 1.038-1.344 1.94-.045 4.02-.025 8.042-.029 12.063v.78h-8.193c0-2.856.004-5.691-.002-8.527-.003-1.535-.002-3.072-.045-4.607-.023-.8-.198-1.593-1.158-1.659-1.037-.07-1.263.768-1.399 1.593-.081.484-.056.99-.057 1.486-.004 3.88-.002 7.76-.002 11.73h-8.193v-9.13Zm-66.121 3.368c-3.071-7.266.14-15.03 7.068-17.025 1.561-.45 3.265-.352 5-.516v9.56c-1.238-.895-2.44-1.165-3.64-.247-1.064.812-1.504 1.934-1.353 3.306.17 1.556 1.45 2.822 2.935 2.908 1.6.093 2.734-.75 3.082-2.431.181-.874.245-1.79.248-2.686.02-6.005.01-12.01.01-18.109h8.108c.03.236.097.532.097.829.006 5.965.038 11.93-.007 17.895-.031 4.133-1.05 7.875-4.401 10.48-5.716 4.443-13.25 2.722-17.148-3.964Zm35.211-2.066a63.536 63.536 0 0 0 2.635-.274v8.5c-3.008.633-5.756-.007-8.24-1.726-4.438-3.071-6.187-9.19-4.21-14.37 2.018-5.288 7.255-8.373 12.575-7.41 6.052 1.096 9.412 5.25 9.434 11.688.013 3.785.002 7.57.002 11.433h-8.167c0-2.679.003-5.33-.002-7.982-.002-.993.016-1.99-.042-2.98-.125-2.134-1.199-3.478-2.82-3.602-1.465-.112-2.925.961-3.332 2.449-.498 1.82.264 3.388 2.167 4.274ZM1.816 13.59c4.824-7.399 14.338-7.716 19.127-.726 1.505 2.196 2.108 4.945 1.77 8.198H10.416c-.092-.433-.235-.898-.283-1.373-.216-2.132.194-2.605 2.203-2.605h2.244c-.088-1.178-.622-1.91-1.61-2.265-1.052-.38-2.04-.227-2.907.52-2.073 1.781-2.133 6.481-.116 8.32 1.213 1.106 2.46 1 4.29-.46 1.502 1.88 3.01 3.768 4.517 5.652-3.123 3.59-9.734 3.856-14.003.588C.09 25.873-1.175 19.163 1.816 13.59Zm84.275 15.945v1.563h-8.163c0-1.092-.006-2.207.001-3.322.022-3.433-.065-6.871.098-10.297.323-6.817 5.382-10.752 11.782-9.237v8.872c-.322-.086-.594-.166-.87-.23-1.276-.3-2.21.232-2.572 1.574-.184.684-.257 1.42-.264 2.134-.028 2.937-.012 5.874-.012 8.943Z"/></g><defs><clipPath id="a"><path fill="#fff" d="M0 0h122v32H0z"/></clipPath></defs></svg>