<svg width="1052" height="535" viewBox="0 0 1052 535" fill="none" xmlns="http://www.w3.org/2000/svg">
<g clip-path="url(#clip0_6005_546)">
<g clip-path="url(#clip1_6005_546)">
<path fill-rule="evenodd" clip-rule="evenodd" d="M849.557 -1.36829C848.568 -1.22353 847.574 -0.672876 847.346 -0.144361C847.119 0.384155 846.811 5.43031 846.663 11.0691L846.393 21.3215L838.937 21.9971C828.726 22.9218 820.897 25.0455 819.527 27.2618C818.933 28.2229 818.806 38.1659 819.375 39.1355C819.65 39.6038 820.46 41.5198 821.175 43.3931L822.475 46.7993L833.738 46.5835L845.002 46.3678L844.641 50.2304C844.399 52.8275 844.497 54.3529 844.941 54.8888C845.376 55.4116 845.406 55.8164 845.03 56.0673C844.715 56.2779 844.316 56.8354 844.143 57.3071C843.97 57.7783 842.701 58.4652 841.323 58.8336C837.949 59.7363 835.897 61.4643 835.194 63.9973C834.842 65.2621 834.606 74.4768 834.602 87.1049L834.594 108.109L827.075 110.514C822.94 111.837 819.251 113.12 818.878 113.367C818.427 113.664 818.167 116.044 818.102 120.493C818.021 125.948 818.171 127.36 818.922 128.188C819.427 128.746 819.84 129.512 819.84 129.889C819.84 130.409 821.599 130.482 827.129 130.19L834.417 129.805L834.793 145.638C835 154.347 835.169 164.677 835.17 168.595L835.171 175.718L827.648 178.246L820.124 180.773L819.964 187.473C819.815 193.72 819.891 194.285 821.1 195.816C822.388 197.448 822.432 197.457 828.783 197.489L835.171 197.52V219.943V242.367H771.008H706.846V238.961V235.555H708.549C710.215 235.555 710.253 235.492 710.253 232.716C710.253 229.941 710.215 229.878 708.549 229.878H706.846V210.577V191.275H708.833H710.821V188.437V185.598H708.833H706.846V162.039V138.48H708.265C709.569 138.48 709.685 138.272 709.685 135.926C709.685 133.58 709.569 133.371 708.265 133.371H706.846V112.651V91.9303H708.265C709.59 91.9303 709.685 91.7412 709.685 89.0918C709.685 86.4561 709.586 86.2534 708.29 86.2534H706.896L706.729 64.1614L706.562 42.0699L704.851 39.609C703.851 38.1716 702.09 36.6178 700.614 35.8713C698.297 34.6996 697.31 34.594 688.676 34.594C680.042 34.594 679.055 34.6996 676.738 35.8713C675.262 36.6178 673.501 38.1716 672.501 39.609L670.79 42.0699L670.623 64.1614L670.456 86.2534H667.926H665.396V89.0918V91.9303H667.951H670.506V112.651V133.371H667.951H665.396V135.926V138.48H667.951H670.506V144.916C670.506 148.456 670.337 159.058 670.131 168.475L669.755 185.598H668.143C666.588 185.598 666.531 185.697 666.531 188.437C666.531 191.212 666.569 191.275 668.235 191.275H669.938V210.577V229.878H667.951H665.964V232.716V235.555H667.951H669.938V238.961V242.367H657.73H645.522V231.865V221.363H647.226C648.834 221.363 648.929 221.237 648.929 219.092C648.929 216.947 648.834 216.821 647.226 216.821H645.522V183.128C645.522 148.38 645.405 146.445 643.229 145.281C642.658 144.975 638.113 144.725 633.129 144.725C625.39 144.725 624.017 144.856 623.722 145.623C623.533 146.117 623.378 149.4 623.378 152.92V159.319L619.261 159.669C614.925 160.038 610.201 161.38 609.264 162.509C608.267 163.71 608.37 169.809 609.44 173.03L610.452 176.074L616.393 175.67L622.335 175.264L622.176 177.859C622.088 179.285 622.195 180.632 622.414 180.85C622.933 181.369 621.157 183.328 620.167 183.328C619.747 183.328 618.892 183.839 618.268 184.463C617.19 185.54 617.132 186.355 617.132 200.358C617.132 213.053 617.014 215.118 616.286 215.118C615.821 215.118 613.777 215.784 611.744 216.597L608.047 218.077L608.065 222.7C608.09 229.021 608.553 229.571 613.412 229.05L617.132 228.652V242.889V257.127H582.212H547.291V261.952C547.291 264.791 547.525 266.777 547.859 266.777C548.228 266.777 548.427 274.725 548.427 289.485V312.192H550.982C553.734 312.192 553.98 312.398 552.726 313.652C552.188 314.191 550.66 314.463 548.183 314.463H544.452V271.603V228.742H546.44C548.38 228.742 548.427 228.689 548.427 226.472C548.427 224.255 548.38 224.201 546.44 224.201H544.452V189.883C544.452 153.73 544.4 152.966 541.89 152.336C539.867 151.828 523.587 151.783 523.081 152.283C522.824 152.538 522.481 155.858 522.318 159.663L522.024 166.581L517.539 166.987C514.7 167.245 512.094 167.87 510.441 168.69L507.828 169.987L507.668 173.393C507.563 175.618 507.877 177.882 508.575 179.922L509.643 183.044L515.674 182.841L521.705 182.637L521.482 185.963C521.359 187.792 521.24 189.452 521.216 189.653C521.191 189.853 520.597 190.161 519.894 190.337C519.192 190.514 518.106 191.032 517.481 191.488C516.409 192.271 516.33 193.147 516.062 207.187L515.778 222.058L512.371 223.333C510.497 224.035 508.517 224.8 507.97 225.033C507.151 225.384 506.977 226.2 506.977 229.692C506.977 235.734 507.287 236.122 512.107 236.122H516.062L516.053 250.74L516.044 265.358L512.22 266.832L508.396 268.306L508.227 272.495C507.987 278.421 508.552 279.267 512.751 279.267H516.062V325.249V371.232H503.854H491.646V390.249V409.267H486.536H481.425V389.965V370.664H479.722H478.018V361.581V352.498H473.402H468.785L469.137 350.369C469.33 349.199 469.492 322.222 469.495 290.421L469.501 232.601L473.48 233.001C477.208 233.375 477.528 233.316 478.571 232.065C479.506 230.943 479.687 229.841 479.703 225.194C479.713 222.151 479.658 219.656 479.58 219.651C479.502 219.646 477.266 218.776 474.612 217.716L469.785 215.789L469.635 197.511L469.485 179.232L474.489 179.628L479.493 180.024L480.175 178.527C480.552 177.7 480.857 174.638 480.857 171.69V166.35L478.28 165.21C476.861 164.583 474.306 163.63 472.601 163.093L469.501 162.116V144.381V126.646L468.066 124.941C467.277 124.003 465.929 123.082 465.069 122.894C463.423 122.532 461.503 120.236 462.554 119.886C462.919 119.764 463.027 118.413 462.838 116.331L462.533 112.973L468.43 113.26C471.674 113.418 475.115 113.642 476.078 113.757C477.783 113.962 477.859 113.869 479.059 110.147C479.847 107.698 480.29 104.876 480.29 102.292C480.29 98.6085 480.159 98.1549 478.792 97.0792C476.627 95.3773 472.201 94.1908 466.587 93.8082L461.686 93.4738L461.452 84.7769C461.324 79.9935 461.016 75.8784 460.77 75.632C459.971 74.8316 450.738 74.7368 439.123 75.4089C432.878 75.7705 420.102 76.4472 410.733 76.9122C401.364 77.3777 391.041 77.9215 387.792 78.1213L381.885 78.4841L382.257 135.589C382.462 166.997 382.794 206.892 382.996 224.244L383.364 255.794L381.434 256.989C378.566 258.764 377.517 260.95 377.51 265.162L377.505 268.764L371.69 270.184L365.876 271.603L365.708 275.449C365.48 280.668 365.843 280.97 372.365 280.97H377.516V289.64V298.312L371.98 299.717L366.444 301.122L366.278 304.845C366.138 307.999 366.29 308.728 367.272 309.617C368.187 310.444 368.431 311.364 368.431 313.983C368.431 317.496 367.609 318.461 367.056 315.598C366.876 314.662 366.578 313.119 366.394 312.171C366.21 311.223 365.155 309.568 364.049 308.495C358.693 303.293 350.51 302.609 329.285 305.586C317.669 307.215 315.215 307.414 314.238 306.804C313.595 306.402 312.112 305.771 310.94 305.399L308.811 304.724V294.797C308.811 289.336 308.565 284.41 308.265 283.848C307.964 283.287 306.942 282.507 305.993 282.114L304.268 281.399V260.18V238.961H298.874H293.48V259.965V280.97H281.244C268.291 280.97 266.436 281.292 265.107 283.777C264.715 284.507 264.522 306.028 264.522 348.771V412.673H262.251C261.001 412.673 259.979 412.928 259.979 413.24C259.979 413.553 259.596 413.808 259.128 413.808C258.381 413.808 258.276 410.086 258.276 383.721V353.633H251.178H244.081V373.471V393.308L241.051 391.921C235.08 389.189 226.849 389.567 221.736 392.808C217.986 395.186 217.394 396.998 217.394 406.088C217.394 412.534 217.254 413.808 216.551 413.808C215.831 413.808 215.687 411.61 215.557 398.715L215.406 383.622L196.668 374.023C186.363 368.744 177.686 364.424 177.387 364.422C177.089 364.42 169.775 367.768 161.136 371.861L145.428 379.302L145.084 383.924C144.895 386.466 144.434 394.23 144.059 401.177L143.378 413.808H122.753H102.128V398.74V383.673L97.7394 383.839L93.3508 384.004L78.5758 400.021L63.8008 416.037L56.2774 416.058L48.7539 416.079V406.428V396.777H42.7919H36.8299V389.114V381.45H24.6219H12.414V377.476V373.502H14.9692H17.5243V368.393V363.284H5.03249H-7.45934V368.393V373.502H-4.62029H-1.78124V377.476V381.45H-8.81697H-15.8521L-16.2241 370.522C-16.4285 364.512 -17.7367 311.459 -19.1307 252.627C-20.5247 193.796 -21.7267 145.603 -21.8017 145.533C-21.8772 145.464 -24.3023 145.317 -27.1913 145.208L-32.4435 145.009L-32.4453 146.428C-32.4464 147.209 -34.1056 199.705 -36.1326 263.087C-38.1597 326.47 -39.82 379.03 -39.8217 379.889C-39.8245 381.374 -39.9568 381.45 -42.5432 381.45C-45.0376 381.45 -45.4822 381.674 -47.9374 384.166L-50.6129 386.882V398.074V409.267H-56.0071H-61.4013V404.157V399.048H-58.5623H-55.7232V391.952V384.856H-73.0414H-90.3596V391.952V399.048H-88.0884H-85.8172V404.157V409.267H-89.5079H-93.1987V414.66C-93.1987 419.674 -93.2782 420.053 -94.3343 420.053C-95.4557 420.053 -95.4699 419.674 -95.4699 390.249V360.446H-90.3596H-85.2493V352.214V343.983H-92.9148H-100.58V332.345V320.708H-102.284H-103.987V332.345V343.983H-110.801H-117.615V352.214V360.446H-112.788H-107.962V382.018V403.59H-121.021H-134.081V389.398V375.205H-136.578H-139.075L-139.41 367.684C-139.594 363.546 -140.648 307.92 -141.752 244.07C-142.855 180.22 -143.906 125.105 -144.086 121.592L-144.413 115.205H-152.591H-160.768L-160.772 118.186C-160.774 119.825 -161.666 176.728 -162.755 244.638C-163.843 312.547 -164.736 369.706 -164.738 371.657L-164.743 375.205H-173.26H-181.777V366.406V357.607H-188.023H-194.269V367.542V377.476H-203.922H-213.574V367.542V357.607H-221.808H-230.041V367.542V377.476H-243.101H-256.16V396.777V416.079H-266.097H-276.034V433.109V450.14H-310.67H-345.306V428.852V407.563H-375.4H-405.494V423.459V439.354H-422.245H-438.995V461.777V484.201L-420.683 484.234C-383.947 484.3 -221.544 486.263 -221.16 486.645C-220.944 486.862 -220.908 487.18 -221.08 487.353C-221.252 487.525 -280.17 492.698 -352.009 498.848C-423.848 504.999 -482.797 510.204 -483.008 510.416C-483.22 510.628 -465.801 510.693 -444.301 510.559C-422.801 510.426 -327.342 510.207 -232.17 510.072L-59.1301 509.827V518.87V527.913H-50.6129H-42.0958V518.83V509.747H-22.7902H-3.48467V516.014C-3.48467 521.114 -3.27795 522.687 -2.374 524.458C1.42579 531.904 11.4834 532.778 16.5744 526.105C18.4351 523.666 19.1965 520.298 19.2141 514.43L19.2277 509.747H36.7748H54.3224L54.5188 515.041C54.6914 519.684 54.9078 520.625 56.2779 522.694C60.2174 528.641 68.4177 529.407 73.5206 524.305C76.2706 521.556 77.137 518.989 77.141 513.579L77.1444 509.747L147.411 509.769L217.677 509.791L218.813 511.592C221.384 515.672 225.857 517.324 233.543 517.035C239.774 516.801 243.405 515.285 245.705 511.958L247.204 509.79L266.367 509.768L285.531 509.747V513.153V516.559H303.985H322.438V513.153V509.747H574.546C826.275 509.747 826.654 509.749 826.654 510.882C826.654 512.015 827.033 512.018 975.988 512.018H1125.32V460.074V408.131H1114.61H1103.91L1103.54 404.642C1103.34 402.723 1103.18 394.42 1103.18 386.192V371.232H1098.92H1094.66V362.716V354.201H1083.3H1071.95V362.716V371.232H1059.17H1046.4V368.393C1046.4 365.744 1046.49 365.555 1047.82 365.555C1049.01 365.555 1049.24 365.29 1049.24 363.852C1049.24 362.414 1049.01 362.149 1047.82 362.149H1046.4V345.686V329.223H1047.82C1049.01 329.223 1049.24 328.958 1049.24 327.52C1049.24 326.076 1049.02 325.817 1047.8 325.817H1046.36L1046.42 308.928C1046.46 298.921 1046.25 291.279 1045.9 290.175C1045.12 287.632 1043.3 284.809 1041.89 283.945C1040.77 283.264 1040.72 282.723 1040.72 272.166V261.101H1038.98H1037.24L1037.35 220.407L1037.46 179.714L1035.45 177.872C1034.35 176.859 1032.46 175.758 1031.26 175.425C1029.87 175.039 1020.26 174.817 1004.8 174.816L980.53 174.812V163.175V151.537H983.937H987.344V147.847V144.157H983.937H980.53V91.0901C980.53 43.9818 980.429 37.7708 979.631 35.7748C977.924 31.5098 977.858 31.4956 958.638 31.281C943.14 31.1079 941.498 31.1788 940.772 32.0531C940.168 32.7814 939.917 35.6102 939.744 43.6577L939.515 54.2984L933.762 54.6543C926.875 55.0795 922.4 55.8328 917.711 57.3548C912.646 58.9994 912.171 59.7283 912.079 65.9927C912.037 68.8618 912.226 71.5929 912.499 72.0613C912.772 72.5296 913.581 74.4456 914.297 76.3189L915.598 79.725L923.223 79.5718C927.416 79.4872 932.444 79.2754 934.396 79.1006L937.945 78.7832V81.4201C937.945 82.8706 937.657 84.5952 937.305 85.2526C936.792 86.2114 936.848 86.581 937.589 87.1225C938.611 87.8702 938.832 89.0918 937.945 89.0918C937.632 89.0918 937.377 89.4569 937.377 89.9031C937.377 90.3952 936.182 91.0617 934.341 91.597C930.831 92.6166 928.581 94.6007 928.077 97.1184C927.883 98.0897 927.724 108.391 927.724 120.011V141.138L924.743 141.839C923.104 142.224 919.462 143.351 916.652 144.342L911.542 146.144L911.252 152.956C910.999 158.902 911.09 159.918 911.962 160.94C912.511 161.585 912.961 162.352 912.961 162.643C912.96 162.956 916.004 163.098 920.342 162.988L927.724 162.801V185.734V208.666L920.343 211.101L912.961 213.536L912.979 220.429C912.996 226.99 913.067 227.403 914.439 228.963L915.881 230.603L922.086 230.308L928.292 230.014V243.57V257.127H911.327H894.362L894.123 252.124C893.846 246.338 892.671 244.041 889.38 242.851L887.41 242.139V180.375V118.611H891.1H894.791V114.922V111.232H891.1H887.41V58.1643C887.41 10.5179 887.315 4.86205 886.487 2.79341C885.004 -0.914149 884.494 -1.02201 866.964 -1.34388C858.378 -1.5017 850.545 -1.51249 849.557 -1.36829ZM859.587 6.69455L857.032 7.06127L856.873 14.2618L856.714 21.4629L859.145 21.7621C868.02 22.8571 871.523 23.4526 874.457 24.3655L877.785 25.4009L877.629 16.5552L877.473 7.70956L875.976 7.30992C873.696 6.70136 862.475 6.28014 859.587 6.69455ZM838.578 24.177C837.797 24.2945 836.073 24.5307 834.745 24.7021C832.508 24.9905 832.332 25.1381 832.332 26.7265C832.332 28.291 832.468 28.4131 833.893 28.1349C834.752 27.9669 837.179 27.6614 839.288 27.4559C843.047 27.0892 843.12 27.0506 843.12 25.4452C843.12 23.7217 842.586 23.5724 838.578 24.177ZM844.824 25.5111C844.824 26.6464 845.108 27.2141 845.676 27.2141C846.243 27.2141 846.527 26.6464 846.527 25.5111C846.527 24.3757 846.243 23.808 845.676 23.808C845.108 23.808 844.824 24.3757 844.824 25.5111ZM856.748 25.3788V27.0807L861.148 27.4667C863.568 27.679 865.996 27.9816 866.543 28.1394C867.331 28.3665 867.536 28.0764 867.536 26.7344C867.536 24.8815 867.555 24.8883 860.013 24.043L856.748 23.6774V25.3788ZM825.361 26.6203C821.379 27.8925 820.408 28.639 820.408 30.4261C820.408 31.6279 820.55 31.7198 821.563 31.1771C822.199 30.8371 824.563 30.0923 826.816 29.5223C830.493 28.5919 830.931 28.3336 831.092 26.9984C831.314 25.1619 830.163 25.0859 825.361 26.6203ZM868.672 26.8468C868.672 27.9986 869.019 28.4062 870.233 28.6793C873.085 29.3214 876.114 30.1116 876.941 30.4283C877.516 30.6492 877.757 30.3233 877.757 29.3236C877.757 28.1996 877.287 27.7171 875.494 27.0001C874.25 26.5022 872.206 25.9311 870.952 25.7302C868.78 25.3833 868.672 25.4361 868.672 26.8468ZM837.442 29.8573C832.041 30.6855 832.332 30.5237 832.332 32.7036C832.332 34.6769 832.384 34.7257 834.106 34.3811C835.082 34.1859 837.51 34.0263 839.501 34.0263H843.12V31.7556C843.12 29.4962 843.11 29.4854 840.991 29.5621C839.82 29.6046 838.223 29.7375 837.442 29.8573ZM844.824 31.7556C844.824 34.0127 844.836 34.0258 846.953 33.9605C848.125 33.9242 848.636 33.7777 848.089 33.6352C847.386 33.4513 847.095 32.8052 847.095 31.4303C847.095 29.8635 846.874 29.4848 845.959 29.4848C845.013 29.4848 844.824 29.8635 844.824 31.7556ZM857.316 31.7556V34.0263L861.148 34.0343C863.257 34.0383 865.556 34.1961 866.259 34.384C867.427 34.6973 867.536 34.5327 867.536 32.4703V30.2143L864.046 29.8493C857.389 29.1539 857.316 29.1749 857.316 31.7556ZM827.506 31.6914C823.3 32.9137 820.408 34.3953 820.408 35.3286C820.408 35.8815 821.571 35.8549 825.802 35.2037L831.196 34.3732V32.4964C831.196 31.4644 831.132 30.6384 831.054 30.6605C830.977 30.6827 829.379 31.1465 827.506 31.6914ZM868.672 32.5061V34.4828L872.221 34.8631C874.173 35.072 876.216 35.3701 876.763 35.5245C877.518 35.7385 877.757 35.4671 877.757 34.3942C877.757 33.2083 877.325 32.845 875.06 32.1252C873.576 31.6534 871.532 31.1016 870.517 30.899C868.718 30.539 868.672 30.5794 868.672 32.5061ZM950.295 39.4506C950.061 39.6935 949.869 43.1411 949.869 47.1115V54.3307L953.701 54.7077C959.217 55.2493 966.824 56.6855 969.003 57.5955L970.878 58.3789V49.5945V40.8102L969.316 40.1869C967.471 39.4494 950.913 38.8085 950.295 39.4506ZM855.044 48.7527C855.044 50.2956 855.3 51.7154 855.612 51.9084C856.529 52.475 856.271 54.463 855.281 54.463C854.764 54.463 854.523 54.7645 854.713 55.1726C854.895 55.5632 855.199 56.3211 855.389 56.857C855.579 57.3929 856.282 57.9878 856.951 58.1791C860.435 59.1754 860.155 59.6715 860.155 52.5142V45.9477H857.6H855.044V48.7527ZM863.562 53.3276V59.5722H865.549H867.536V53.3276V47.0831H865.549H863.562V53.3276ZM870.943 53.3276V59.5722H873.498H876.053V53.3276V47.0831H873.498H870.943V53.3276ZM929.711 57.1164C925.891 57.5932 925.453 57.8322 925.452 59.4411L925.452 60.9914L930.847 60.4595L936.241 59.9281V58.3307C936.241 56.8172 936.115 56.7383 933.828 56.8189C932.501 56.8655 930.648 56.9994 929.711 57.1164ZM937.945 58.4368C937.945 59.5722 938.229 60.1399 938.796 60.1399C939.364 60.1399 939.648 59.5722 939.648 58.4368C939.648 57.3014 939.364 56.7338 938.796 56.7338C938.229 56.7338 937.945 57.3014 937.945 58.4368ZM949.869 58.2574V59.9281L955.263 60.4595L960.658 60.9914L960.658 59.491C960.657 57.6517 960.267 57.4939 954.483 56.9898L949.869 56.5873V58.2574ZM920.629 58.7485C915.237 60.2262 913.529 61.2679 913.529 63.0794C913.529 64.6916 913.548 64.7007 915.153 63.8707C916.047 63.4086 918.475 62.6048 920.548 62.0836C924.103 61.1912 924.317 61.0442 924.317 59.5029C924.317 57.6642 924.47 57.6954 920.629 58.7485ZM961.793 59.5512C961.793 60.9931 962.064 61.1799 965.342 61.9979C967.294 62.485 969.358 63.0674 969.93 63.2928C970.807 63.6385 970.939 63.4557 970.781 62.1166C970.585 60.46 969.023 59.6295 963.922 58.4726C961.861 58.0054 961.793 58.0394 961.793 59.5512ZM864.737 63.6839C865.027 64.6967 865.265 68.2731 865.265 71.6315C865.265 77.3595 865.335 77.7381 866.401 77.7381C867.482 77.7381 867.536 77.3595 867.536 69.7905V61.8429H865.873C864.266 61.8429 864.227 61.9065 864.737 63.6839ZM870.943 69.7905V77.7381H873.498H876.053V69.7905V61.8429H873.498H870.943V69.7905ZM937.945 64.3442C937.945 66.5661 938.071 66.8125 939.08 66.5491C939.97 66.3163 940.216 65.7747 940.216 64.0473C940.216 62.2216 940.021 61.8429 939.08 61.8429C938.117 61.8429 937.945 62.2216 937.945 64.3442ZM928.008 62.917C925.946 63.2304 925.72 63.4319 925.559 65.1071L925.381 66.9521H930.811H936.241V64.6814V62.4106L933.26 62.4912C931.621 62.5355 929.257 62.7268 928.008 62.917ZM949.869 64.6814V66.9521H955.263H960.657V65.0424C960.657 63.2008 960.563 63.1196 958.023 62.7717C956.574 62.573 954.147 62.4106 952.628 62.4106H949.869V64.6814ZM920.473 64.4259C916.08 65.6084 912.775 67.5232 913.639 68.3866C913.762 68.5093 916.215 68.3128 919.089 67.9501L924.317 67.2904V65.4182C924.317 63.3008 924.489 63.345 920.473 64.4259ZM961.793 65.3807V67.3154L966.361 67.8564L970.928 68.3974L970.761 67.0185C970.581 65.5301 968.662 64.6064 964.178 63.8491L961.793 63.4461V65.3807ZM948.359 83.1311C948.584 85.7976 948.509 87.3888 948.158 87.3888C946.395 87.3888 949.116 90.6581 951.432 91.3223L953.276 91.8508V85.3621V78.8735H950.637H947.999L948.359 83.1311ZM865.265 85.118C865.265 90.4163 865.341 90.7949 866.401 90.7949C867.461 90.7949 867.536 90.4163 867.536 85.118C867.536 79.8198 867.461 79.4412 866.401 79.4412C865.341 79.4412 865.265 79.8198 865.265 85.118ZM870.943 85.118V90.7949H873.498H876.053V85.118V79.4412H873.498H870.943V85.118ZM956.682 86.2534V92.498H958.67H960.657V86.2534V80.0089H958.67H956.682V86.2534ZM964.064 86.2534V92.498H966.619H969.174V86.2534V80.0089H966.619H964.064V86.2534ZM434.865 82.2881C415.864 83.0835 408.316 83.5461 407.651 83.9577C407.136 84.2756 406.886 94.0648 406.631 123.919L406.293 163.459L407.945 163.45C410.806 163.435 410.967 163.048 411.139 155.813L411.301 149.063L413.004 148.576C413.941 148.308 418.364 148.257 422.832 148.464C432.986 148.933 432.78 148.739 433.08 158.182L433.284 164.594H436.062H438.84V138.473C438.84 120.807 439.038 112.033 439.451 111.366C440.14 110.254 439.29 107.258 438.286 107.258C437.938 107.258 437.704 105.467 437.704 102.804C437.704 99.137 437.896 98.1771 438.792 97.3664C440.266 96.0329 445.981 94.3151 450.479 93.8547L454.17 93.4766V87.5943V81.7119L449.202 81.8039C446.47 81.855 440.018 82.073 434.865 82.2881ZM865.265 98.4587C865.265 103.473 865.344 103.852 866.401 103.852C867.457 103.852 867.536 103.473 867.536 98.4587C867.536 93.4443 867.457 93.0656 866.401 93.0656C865.344 93.0656 865.265 93.4443 865.265 98.4587ZM870.943 98.4587V103.852H873.498H876.053V98.4587V93.0656H873.498H870.943V98.4587ZM957.571 95.1945C957.814 95.7406 958.123 99.317 958.258 103.142C958.482 109.506 958.594 110.096 959.58 110.096C960.586 110.096 960.657 109.574 960.657 102.149V94.201H958.893C957.423 94.201 957.203 94.3668 957.571 95.1945ZM964.064 102.149V110.096H966.619H969.174V102.149V94.201H966.619H964.064V102.149ZM449.202 95.7468C447.718 95.9313 447.357 96.2328 447.357 97.2898C447.357 98.5143 447.539 98.5858 450.054 98.344C453.773 97.9869 454.17 97.8081 454.17 96.4894C454.17 95.2864 453.601 95.2013 449.202 95.7468ZM461.552 96.4718C461.552 97.0962 461.807 97.6071 462.12 97.6071C462.432 97.6071 462.688 97.0962 462.688 96.4718C462.688 95.8473 462.432 95.3364 462.12 95.3364C461.807 95.3364 461.552 95.8473 461.552 96.4718ZM463.823 96.4894C463.823 97.8081 464.22 97.9869 467.94 98.344C470.432 98.5835 470.637 98.5063 470.637 97.3307C470.637 96.2475 470.246 96.0045 468.002 95.6974C464.13 95.1666 463.823 95.2251 463.823 96.4894ZM443.946 97.002C441.247 97.8228 438.84 99.342 438.84 100.224C438.84 100.711 439.158 100.975 439.549 100.811C439.94 100.647 441.6 100.097 443.24 99.5878C445.486 98.8901 446.221 98.3917 446.221 97.5668C446.221 96.3832 446.089 96.3503 443.946 97.002ZM471.773 97.48C471.773 98.3434 472.479 98.8418 474.754 99.5827C476.393 100.117 478.079 100.837 478.499 101.182C479.108 101.683 479.223 101.529 479.067 100.418C478.866 98.9968 476.564 97.5146 473.334 96.7289C472.026 96.4104 471.773 96.5319 471.773 97.48ZM448.35 100.269C447.748 100.426 447.357 101.072 447.357 101.906C447.357 103.212 447.536 103.284 450.764 103.284H454.17V101.581C454.17 99.9454 454.074 99.8807 451.757 99.9437C450.43 99.98 448.897 100.127 448.35 100.269ZM461.552 101.581C461.552 102.518 461.807 103.284 462.12 103.284C462.432 103.284 462.688 102.518 462.688 101.581C462.688 100.644 462.432 99.8779 462.12 99.8779C461.807 99.8779 461.552 100.644 461.552 101.581ZM463.823 101.581V103.284H467.23C470.435 103.284 470.637 103.205 470.637 101.939C470.637 100.826 470.27 100.534 468.508 100.242C464.364 99.5577 463.823 99.7121 463.823 101.581ZM443.666 101.236C440.52 102.225 438.84 103.198 438.84 104.027C438.84 104.571 439.674 104.605 442.53 104.174C446.06 103.643 446.221 103.549 446.221 102.032C446.221 101.159 446.157 100.463 446.079 100.484C446.001 100.505 444.915 100.843 443.666 101.236ZM471.773 102.254C471.773 103.497 472.099 103.667 475.468 104.175C477.981 104.554 479.107 104.546 478.986 104.15C478.775 103.458 475.531 101.805 473.334 101.27C471.958 100.935 471.773 101.052 471.773 102.254ZM865.265 108.677C865.265 110.853 865.433 111.232 866.401 111.232C867.368 111.232 867.536 110.853 867.536 108.677C867.536 106.501 867.368 106.122 866.401 106.122C865.433 106.122 865.265 106.501 865.265 108.677ZM870.943 108.677V111.232H873.498H876.053V108.677V106.122H873.498H870.943V108.677ZM832.19 111.055C831.519 111.23 831.196 111.874 831.196 113.037C831.196 114.374 831.397 114.682 832.095 114.415C832.589 114.225 833.355 114.07 833.798 114.07C834.314 114.07 834.603 113.459 834.603 112.367C834.603 110.679 834.287 110.507 832.19 111.055ZM823.815 113.733C820.628 114.836 820.1 115.218 819.945 116.528C819.846 117.361 819.972 118.044 820.226 118.044C820.48 118.044 822.669 117.384 825.091 116.578C828.964 115.288 829.493 114.947 829.493 113.74C829.493 112.037 828.719 112.035 823.815 113.733ZM958.386 118.044C958.386 123.342 958.461 123.721 959.521 123.721C960.582 123.721 960.657 123.342 960.657 118.044C960.657 112.746 960.582 112.367 959.521 112.367C958.461 112.367 958.386 112.746 958.386 118.044ZM964.064 118.044V123.721H966.619H969.174V118.044V112.367H966.619H964.064V118.044ZM452.467 117.76C452.467 121.987 452.591 122.585 453.466 122.585C454.671 122.585 456.25 120.33 455.409 119.81C455.045 119.586 455.017 118.539 455.332 116.906C456.072 113.07 456.032 112.935 454.17 112.935H452.467V117.76ZM441.111 118.611V123.721H442.814H444.518V118.611V113.502H442.814H441.111V118.611ZM447.357 118.611C447.357 123.342 447.441 123.721 448.492 123.721C449.544 123.721 449.628 123.342 449.628 118.611C449.628 113.881 449.544 113.502 448.492 113.502C447.441 113.502 447.357 113.881 447.357 118.611ZM832.758 116.476C831.774 116.809 831.196 117.409 831.196 118.102C831.196 119.013 831.463 119.137 832.758 118.826C834.734 118.352 834.732 118.355 834.507 117.045C834.348 116.115 834.083 116.03 832.758 116.476ZM824.241 118.983C821.42 119.875 819.84 120.669 819.84 121.196C819.84 122.274 820.233 122.243 825.246 120.769C828.494 119.813 829.493 119.279 829.493 118.498C829.493 117.273 829.715 117.252 824.241 118.983ZM865.265 127.388V136.166L867.678 136.815C869.006 137.173 871.624 137.946 873.498 138.533C875.372 139.121 877.097 139.605 877.331 139.608C877.565 139.612 877.757 134.89 877.757 129.114V118.611H871.511H865.265V127.388ZM832.19 120.706C830.483 121.152 831.024 122.585 832.9 122.585C834.225 122.585 834.603 122.333 834.603 121.45C834.603 120.332 834.153 120.193 832.19 120.706ZM826.37 122.317C824.571 122.91 824.394 123.073 825.518 123.101C827.455 123.151 829.493 122.56 829.493 121.951C829.493 121.34 829.247 121.369 826.37 122.317ZM821.26 124.024C819.84 124.708 819.792 124.787 820.976 124.498C822.585 124.105 824.393 123.183 823.531 123.196C823.219 123.201 822.197 123.573 821.26 124.024ZM441.111 131.668V137.913H442.814H444.518V131.668V125.424H442.814H441.111V131.668ZM447.357 131.668C447.357 135.453 447.58 137.913 447.924 137.913C448.259 137.913 448.496 135.874 448.5 132.946C448.504 130.214 448.662 127.404 448.85 126.701C449.102 125.762 448.949 125.424 448.275 125.424C447.485 125.424 447.357 126.296 447.357 131.668ZM958.386 131.101C958.386 136.399 958.461 136.777 959.521 136.777C960.582 136.777 960.657 136.399 960.657 131.101C960.657 125.802 960.582 125.424 959.521 125.424C958.461 125.424 958.386 125.802 958.386 131.101ZM964.064 131.101V136.777H966.619H969.174V131.101V125.424H966.619H964.064V131.101ZM865.265 140.117C865.265 141.335 865.592 141.842 866.543 142.097C868.738 142.685 869.24 142.497 869.24 141.091C869.24 140.072 868.788 139.569 867.452 139.104C865.13 138.295 865.265 138.232 865.265 140.117ZM958.386 141.603C958.386 143.779 958.554 144.157 959.521 144.157C960.489 144.157 960.657 143.779 960.657 141.603C960.657 139.427 960.489 139.048 959.521 139.048C958.554 139.048 958.386 139.427 958.386 141.603ZM964.064 141.603V144.157H966.619H969.174V141.603V139.048H966.619H964.064V141.603ZM441.111 143.874V148.131H442.814H444.518V143.874V139.616H442.814H441.111V143.874ZM447.357 143.874C447.357 146.333 447.596 148.131 447.924 148.131C448.253 148.131 448.492 146.333 448.492 143.874C448.492 141.414 448.253 139.616 447.924 139.616C447.596 139.616 447.357 141.414 447.357 143.874ZM870.943 141.708C870.943 143.164 871.221 143.428 873.356 144.001C874.684 144.357 876.216 144.82 876.763 145.031C877.569 145.342 877.757 145.103 877.757 143.768C877.757 142.312 877.479 142.048 875.344 141.475C874.016 141.119 872.484 140.656 871.937 140.445C871.131 140.134 870.943 140.373 870.943 141.708ZM925.027 143.965C924.637 144.123 924.317 144.975 924.317 145.859C924.317 147.334 924.446 147.431 925.879 147.051C927.017 146.749 927.489 146.224 927.62 145.113C927.8 143.586 926.927 143.199 925.027 143.965ZM865.265 145.16C865.265 145.858 865.758 146.428 866.543 146.638C868.676 147.209 869.24 147.047 869.24 145.86C869.24 145.236 868.921 144.722 868.53 144.717C868.14 144.713 867.246 144.555 866.543 144.367C865.53 144.096 865.265 144.26 865.265 145.16ZM917.645 146.269C913.175 147.682 912.961 147.826 912.961 149.42C912.961 150.522 913.203 150.999 913.671 150.822C914.061 150.674 916.233 149.957 918.497 149.23C922.314 148.004 922.614 147.792 922.614 146.316C922.614 145.441 922.55 144.739 922.472 144.756C922.394 144.773 920.222 145.454 917.645 146.269ZM871.044 146.792C871.151 147.336 872.289 148.041 873.782 148.487C877.059 149.465 877.757 149.456 877.757 148.437C877.757 147.928 876.618 147.269 874.814 146.734C871.128 145.64 870.817 145.644 871.044 146.792ZM865.265 149.195C865.265 149.792 865.669 150.435 866.163 150.625C867.736 151.228 869.24 150.997 869.24 150.152C869.24 149.197 868.935 148.987 866.826 148.483C865.538 148.175 865.265 148.299 865.265 149.195ZM925.595 149.284C924.883 149.57 924.317 150.287 924.317 150.902C924.317 151.829 924.568 151.94 925.879 151.592C926.881 151.326 927.505 150.733 927.622 149.938C927.818 148.593 927.539 148.503 925.595 149.284ZM441.111 154.376V158.917H442.814H444.518V154.376V149.834H442.814H441.111V154.376ZM447.357 154.376C447.357 157.025 447.593 158.917 447.924 158.917C448.256 158.917 448.492 157.025 448.492 154.376C448.492 151.726 448.256 149.834 447.924 149.834C447.593 149.834 447.357 151.726 447.357 154.376ZM629.056 154.594V159.354L632.248 159.753C634.003 159.972 636.431 160.501 637.642 160.928L639.844 161.705V156.323C639.844 151.068 639.81 150.928 638.388 150.388C637.587 150.083 635.159 149.834 632.994 149.834H629.056V154.594ZM870.943 150.402C870.943 150.714 871.902 150.951 873.072 150.93C874.78 150.897 874.977 150.793 874.066 150.402C872.488 149.724 870.943 149.724 870.943 150.402ZM917.22 151.816C914.622 152.666 913.178 153.451 913.051 154.082C912.934 154.668 913.156 154.968 913.619 154.847C921.532 152.782 922.614 152.368 922.614 151.412C922.614 150.162 922.174 150.195 917.22 151.816ZM958.386 160.206V168.876L963.638 170.495C966.527 171.386 969.337 172.24 969.884 172.394C970.805 172.653 970.878 171.899 970.878 162.106V151.537H964.632H958.386V160.206ZM925.027 153.616C923.598 154.193 924.289 155.511 926.021 155.511C927.345 155.511 927.724 155.259 927.724 154.376C927.724 153.266 926.648 152.963 925.027 153.616ZM416.695 158.633V163.459H418.563C419.59 163.459 421.902 163.842 423.701 164.31C425.499 164.779 427.086 165.162 427.227 165.162C427.368 165.162 427.483 162.762 427.483 159.829C427.483 153.587 427.714 153.808 421.191 153.808H416.695V158.633ZM917.9 155.513C913.537 156.883 912.755 157.197 913.028 157.47C913.154 157.596 914.66 157.215 916.374 156.624C918.088 156.032 920.194 155.54 921.052 155.53C921.911 155.52 922.614 155.256 922.614 154.943C922.614 154.188 921.815 154.284 917.9 155.513ZM528.364 157.593C528.156 157.801 527.986 159.936 527.986 162.337V166.703L531.345 167.054C533.192 167.247 535.747 167.765 537.023 168.204L539.342 169.003V163.696C539.342 159.031 539.209 158.318 538.244 157.802C537.038 157.157 528.971 156.986 528.364 157.593ZM865.07 184.414C864.865 198.906 864.697 217.874 864.697 226.565V242.367H871.227H877.757V200.393V158.42L871.6 158.243L865.444 158.066L865.07 184.414ZM441.111 162.607C441.111 164.436 441.246 164.594 442.814 164.594C444.382 164.594 444.518 164.436 444.518 162.607C444.518 160.778 444.382 160.62 442.814 160.62C441.246 160.62 441.111 160.778 441.111 162.607ZM447.357 162.607C447.357 163.7 447.612 164.594 447.924 164.594C448.237 164.594 448.492 163.7 448.492 162.607C448.492 161.514 448.237 160.62 447.924 160.62C447.612 160.62 447.357 161.514 447.357 162.607ZM616.99 161.579C615.658 161.927 615.716 163.459 617.061 163.459C619.359 163.459 621.674 162.71 621.674 161.968C621.674 161.197 619.231 160.994 616.99 161.579ZM622.242 162.039C622.242 162.508 622.498 162.891 622.81 162.891C623.122 162.891 623.378 162.508 623.378 162.039C623.378 161.571 623.122 161.188 622.81 161.188C622.498 161.188 622.242 161.571 622.242 162.039ZM629.056 161.968C629.056 162.71 631.371 163.459 633.669 163.459C635.167 163.459 635 161.959 633.456 161.546C631.191 160.939 629.056 161.144 629.056 161.968ZM635.302 162.766C635.302 163.483 635.985 163.974 637.573 164.398C639.407 164.888 639.844 164.855 639.844 164.231C639.844 163.806 639.748 163.459 639.63 163.459C639.512 163.459 638.49 163.072 637.358 162.6C635.436 161.796 635.302 161.808 635.302 162.766ZM611.312 163.216C610.453 163.682 609.75 164.406 609.75 164.826C609.75 165.442 610.243 165.411 612.306 164.67C613.711 164.165 614.861 163.43 614.861 163.037C614.861 162.088 613.241 162.169 611.312 163.216ZM469.61 165.342C469.706 166.017 470.232 166.655 470.779 166.759C472.243 167.037 472.075 164.806 470.603 164.421C469.658 164.173 469.468 164.35 469.61 165.342ZM407.752 164.995C405.987 165.334 406.103 166.865 407.894 166.865C408.935 166.865 409.313 166.562 409.313 165.729C409.313 165.105 409.25 164.629 409.171 164.671C409.093 164.714 408.454 164.859 407.752 164.995ZM409.881 165.729C409.881 166.354 410.137 166.865 410.449 166.865C410.761 166.865 411.017 166.354 411.017 165.729C411.017 165.105 410.761 164.594 410.449 164.594C410.137 164.594 409.881 165.105 409.881 165.729ZM416.695 165.833C416.695 166.595 417.129 166.865 418.352 166.865C419.263 166.865 420.439 167.03 420.965 167.231C421.685 167.508 421.869 167.333 421.713 166.522C421.562 165.735 420.86 165.359 419.101 165.124C417.036 164.847 416.695 164.948 416.695 165.833ZM617.558 165C616.474 165.165 615.996 165.573 615.996 166.335C615.996 167.274 616.407 167.432 618.835 167.432C621.485 167.432 621.674 167.338 621.674 166.013C621.674 164.528 621.295 164.435 617.558 165ZM622.242 166.013C622.242 166.794 622.498 167.432 622.81 167.432C623.122 167.432 623.378 166.794 623.378 166.013C623.378 165.233 623.122 164.594 622.81 164.594C622.498 164.594 622.242 165.233 622.242 166.013ZM629.056 166.013C629.056 167.338 629.245 167.432 631.895 167.432C634.292 167.432 634.734 167.267 634.734 166.368C634.734 165.63 634.19 165.195 632.96 164.949C629.722 164.302 629.056 164.483 629.056 166.013ZM473.012 166.362C473.14 167.203 474.135 167.926 476.457 168.868L479.722 170.193V168.925C479.722 167.891 479.092 167.432 476.277 166.42L472.831 165.18L473.012 166.362ZM635.406 166.456C635.551 167.47 636.013 167.751 637.775 167.896C640.59 168.127 640.346 166.967 637.362 165.934C635.298 165.22 635.233 165.237 635.406 166.456ZM423.041 166.635C423.142 167.134 424.183 167.87 425.354 168.271C427.164 168.892 427.483 168.879 427.483 168.188C427.483 167.741 426.597 167.004 425.514 166.552C423.034 165.516 422.816 165.523 423.041 166.635ZM611.596 166.72C609.748 167.64 608.958 168.993 610.649 168.345C611.143 168.155 612.292 168 613.204 168C614.482 168 614.861 167.741 614.861 166.865C614.861 165.516 614.085 165.481 611.596 166.72ZM517.77 168.568C515.939 168.772 515.167 169.13 515.032 169.84C514.868 170.706 515.181 170.784 517.582 170.47C520.738 170.056 520.768 170.042 520.512 169.038C520.374 168.496 519.603 168.364 517.77 168.568ZM521.829 169.136C521.829 169.916 521.958 170.236 522.116 169.845C522.274 169.455 522.274 168.816 522.116 168.426C521.958 168.036 521.829 168.355 521.829 169.136ZM527.986 169.251C527.986 169.983 528.426 170.273 529.547 170.279C530.406 170.283 531.709 170.447 532.444 170.644C533.538 170.937 533.741 170.807 533.572 169.926C533.416 169.109 532.722 168.777 530.677 168.542C528.351 168.274 527.986 168.37 527.986 169.251ZM406.474 170.048C406.474 171.164 406.695 171.443 407.373 171.183C407.867 170.994 408.505 170.839 408.792 170.839C409.079 170.839 409.313 170.328 409.313 169.703C409.313 168.87 408.935 168.568 407.894 168.568C406.743 168.568 406.474 168.848 406.474 170.048ZM409.881 169.703C409.881 170.328 410.137 170.839 410.449 170.839C410.761 170.839 411.017 170.328 411.017 169.703C411.017 169.079 410.761 168.568 410.449 168.568C410.137 168.568 409.881 169.079 409.881 169.703ZM416.695 169.604C416.695 170.735 418.096 171.384 420.567 171.398C421.61 171.405 421.847 171.14 421.703 170.129C421.552 169.067 421.114 168.822 419.108 168.677C417.038 168.528 416.695 168.659 416.695 169.604ZM469.501 169.311C469.501 169.766 470.027 170.276 470.67 170.444C471.541 170.672 471.792 170.51 471.657 169.807C471.428 168.619 469.501 168.177 469.501 169.311ZM422.941 170.2C422.941 171.15 424.821 171.974 426.986 171.974C428.224 171.974 427.295 170.702 425.514 169.958C423.015 168.914 422.941 168.921 422.941 170.2ZM511.803 169.824C509.581 170.606 508.68 171.348 508.68 172.397C508.68 173.012 508.877 173.086 509.39 172.663C509.781 172.34 510.993 171.846 512.086 171.564C513.22 171.271 514.152 170.64 514.257 170.093C514.466 169.011 514.2 168.981 511.803 169.824ZM534.903 170.089C535.002 170.595 536.059 171.347 537.251 171.759C539.19 172.43 539.4 172.412 539.239 171.588C539.139 171.082 538.082 170.33 536.89 169.918C534.952 169.247 534.741 169.266 534.903 170.089ZM473.036 170.37C473.28 171.102 479.17 173.282 479.638 172.814C480.143 172.31 478.966 171.589 476.072 170.63C472.733 169.524 472.754 169.526 473.036 170.37ZM433.161 195.533V220.795H434.865C436.473 220.795 436.568 220.921 436.568 223.066C436.568 225.21 436.473 225.336 434.865 225.336H433.161V317.301V409.267H437.988H442.814V391.994V374.72L444.31 373.544C445.133 372.897 446.538 372.367 447.433 372.367H449.06V335.001V297.636L444.24 297.889C439.707 298.127 439.353 298.061 438.297 296.794C437.353 295.661 437.171 294.575 437.155 289.986L437.136 284.526L442.524 282.464C445.487 281.329 448.212 280.402 448.579 280.402C449.084 280.402 449.154 274.738 448.869 256.985C448.663 244.106 448.493 226.415 448.493 217.673L448.492 201.777L443.662 201.978C439.161 202.165 438.757 202.087 437.719 200.842C436.787 199.724 436.603 198.619 436.587 194.053L436.568 188.599L441.253 186.844C443.829 185.879 446.512 184.932 447.215 184.738C448.452 184.398 448.492 184.165 448.492 177.329V170.271H440.827H433.161V195.533ZM958.386 173.109C958.386 174.677 958.544 174.812 960.373 174.812C961.99 174.812 962.361 174.598 962.361 173.663C962.361 172.951 961.806 172.303 960.904 171.96C958.695 171.12 958.386 171.261 958.386 173.109ZM469.501 172.784C469.501 173.31 469.987 173.677 470.684 173.677C472.068 173.677 471.872 172.35 470.448 172.074C469.887 171.965 469.501 172.255 469.501 172.784ZM515.92 172.365C515.373 172.508 514.926 173.117 514.926 173.718C514.926 174.535 515.322 174.811 516.488 174.804C519.163 174.791 520.604 174.174 520.604 173.043C520.604 172.202 520.211 171.988 518.759 172.04C517.744 172.076 516.467 172.223 515.92 172.365ZM521.74 173.076C521.74 173.718 521.995 174.245 522.308 174.245C522.62 174.245 522.875 173.877 522.875 173.427C522.875 172.976 522.62 172.451 522.308 172.258C521.995 172.065 521.74 172.433 521.74 173.076ZM528.554 173.049C528.554 174.273 529.611 174.812 532.007 174.812C533.254 174.812 533.664 174.547 533.664 173.738C533.664 172.514 532.606 171.974 530.21 171.974C528.963 171.974 528.554 172.24 528.554 173.049ZM472.908 173.163C472.908 173.445 473.419 173.677 474.044 173.677C474.668 173.677 475.179 173.579 475.179 173.46C475.179 173.34 474.668 173.108 474.044 172.945C473.419 172.782 472.908 172.879 472.908 173.163ZM513.223 172.939C511.013 173.738 508.68 174.983 508.68 175.363C508.68 175.595 509.958 175.532 511.519 175.223C513.712 174.79 514.358 174.421 514.358 173.601C514.358 173.018 514.295 172.562 514.216 172.586C514.138 172.611 513.691 172.77 513.223 172.939ZM534.799 173.691C534.799 174.467 535.353 174.865 536.814 175.139C540.316 175.796 540.146 174.154 536.607 173.139C535.032 172.688 534.799 172.758 534.799 173.691ZM964.064 173.961C964.064 174.604 964.723 174.802 966.761 174.769L969.458 174.726L967.471 173.961C964.823 172.941 964.064 172.941 964.064 173.961ZM628.116 178.81C628.332 182.038 628.956 183.292 630.36 183.319C630.608 183.324 630.735 181.603 630.643 179.496C630.49 175.996 630.363 175.648 629.178 175.48C627.926 175.302 627.889 175.418 628.116 178.81ZM632.463 179.922C632.463 183.076 632.639 183.895 633.315 183.895C633.99 183.895 634.166 183.076 634.166 179.922C634.166 176.767 633.99 175.948 633.315 175.948C632.639 175.948 632.463 176.767 632.463 179.922ZM636.437 179.922C636.437 183.782 636.478 183.895 637.857 183.895C639.236 183.895 639.277 183.782 639.277 179.922C639.277 176.061 639.236 175.948 637.857 175.948C636.478 175.948 636.437 176.061 636.437 179.922ZM833.846 178.597C833.103 179.34 833.46 181.625 834.319 181.625C834.887 181.625 835.171 181.057 835.171 179.922C835.171 178.294 834.66 177.783 833.846 178.597ZM415.782 182.618C415.935 184.725 416.075 186.514 416.094 186.592C416.112 186.67 416.51 186.734 416.979 186.734C417.655 186.734 417.831 185.914 417.831 182.76C417.831 179.134 417.729 178.786 416.668 178.786C415.584 178.786 415.524 179.044 415.782 182.618ZM406.474 183.366C406.474 187.265 406.511 187.367 407.752 186.985C409.523 186.441 409.468 186.56 409.725 182.765L409.956 179.354H408.215H406.474V183.366ZM826.228 180.897C821.776 182.305 821.544 182.461 821.544 184.027C821.544 185.868 821.004 185.901 827.695 183.651C830.982 182.545 831.504 182.179 831.66 180.866C831.875 179.052 832.068 179.051 826.228 180.897ZM420.102 183.611C420.102 186.513 420.284 187.301 420.953 187.301C421.623 187.301 421.805 186.513 421.805 183.611C421.805 180.71 421.623 179.922 420.953 179.922C420.284 179.922 420.102 180.71 420.102 183.611ZM424.076 183.611C424.076 187.169 424.128 187.301 425.496 187.301C426.864 187.301 426.915 187.169 426.915 183.611C426.915 180.054 426.864 179.922 425.496 179.922C424.128 179.922 424.076 180.054 424.076 183.611ZM527.195 185.61C527.383 189.388 527.661 190.14 528.871 190.14C529.505 190.14 529.689 189.247 529.689 186.166C529.689 182.376 529.628 182.192 528.357 182.192C527.089 182.192 527.033 182.355 527.195 185.61ZM531.96 187.018C531.96 189.919 532.143 190.708 532.812 190.708C533.482 190.708 533.664 189.919 533.664 187.018C533.664 184.116 533.482 183.328 532.812 183.328C532.143 183.328 531.96 184.116 531.96 187.018ZM535.935 187.018C535.935 190.329 536.051 190.708 537.071 190.708C538.09 190.708 538.206 190.329 538.206 187.018C538.206 183.706 538.09 183.328 537.071 183.328C536.051 183.328 535.935 183.706 535.935 187.018ZM833.468 185.031C833.468 185.661 833.846 186.166 834.319 186.166C834.792 186.166 835.171 185.661 835.171 185.031C835.171 184.4 834.792 183.895 834.319 183.895C833.846 183.895 833.468 184.4 833.468 185.031ZM633.451 189.714C633.776 196.249 634.069 196.497 634.121 190.282C634.146 187.394 633.953 185.031 633.692 185.031C633.432 185.031 633.323 187.138 633.451 189.714ZM636.437 190.14C636.437 195.211 636.448 195.249 637.857 195.249C639.266 195.249 639.277 195.211 639.277 190.14C639.277 185.069 639.266 185.031 637.857 185.031C636.448 185.031 636.437 185.069 636.437 190.14ZM825.802 186.445C823.33 187.254 821.758 188.091 821.644 188.659C821.408 189.83 821.373 189.834 826.997 188.118C830.094 187.174 831.764 186.378 831.764 185.848C831.764 184.765 830.568 184.885 825.802 186.445ZM447.215 186.557C445.8 186.927 445.921 189.005 447.357 189.005C448.19 189.005 448.492 188.626 448.492 187.585C448.492 186.805 448.429 186.196 448.35 186.232C448.272 186.268 447.762 186.415 447.215 186.557ZM440.685 188.913C438.857 189.601 438.272 190.122 438.272 191.064V192.306L441.394 191.081C443.52 190.247 444.516 189.539 444.517 188.863C444.518 187.69 443.916 187.698 440.685 188.913ZM833.846 188.248C833.155 188.939 833.455 190.14 834.319 190.14C834.792 190.14 835.171 189.635 835.171 189.005C835.171 187.874 834.566 187.528 833.846 188.248ZM421.083 193.404C421.423 199.578 421.708 199.816 421.76 193.972C421.785 191.24 421.588 189.005 421.323 189.005C421.057 189.005 420.95 190.985 421.083 193.404ZM424.076 193.83C424.076 198.598 424.093 198.655 425.496 198.655C426.899 198.655 426.915 198.598 426.915 193.83C426.915 189.061 426.899 189.005 425.496 189.005C424.093 189.005 424.076 189.061 424.076 193.83ZM828.641 189.572C827.73 189.963 827.927 190.068 829.635 190.1C830.806 190.122 831.764 189.884 831.764 189.572C831.764 188.894 830.219 188.894 828.641 189.572ZM824.95 190.55C824.482 190.726 823.488 191.096 822.742 191.373C821.997 191.649 821.5 191.989 821.64 192.129C821.78 192.269 823.157 191.891 824.7 191.288C826.243 190.686 827.122 190.201 826.654 190.211C826.185 190.221 825.419 190.374 824.95 190.55ZM446.931 191.083C446.541 191.241 446.221 191.759 446.221 192.235C446.221 192.79 446.542 192.977 447.119 192.755C447.613 192.566 448.124 192.411 448.255 192.411C448.386 192.411 448.492 192.027 448.492 191.559C448.492 190.684 448.166 190.585 446.931 191.083ZM441.253 193.048C439.613 193.678 438.272 194.43 438.272 194.721C438.272 195.445 438.788 195.391 441.861 194.344C443.336 193.842 444.518 193.084 444.518 192.641C444.518 192.202 444.454 191.856 444.376 191.872C444.297 191.889 442.893 192.417 441.253 193.048ZM532.428 197.235C532.529 199.889 532.848 202.061 533.137 202.061C533.427 202.061 533.664 199.89 533.664 197.236C533.664 193.755 533.466 192.41 532.954 192.409C532.428 192.408 532.291 193.653 532.428 197.235ZM535.935 197.236C535.935 201.683 536.024 202.061 537.071 202.061C538.117 202.061 538.206 201.683 538.206 197.236C538.206 192.789 538.117 192.411 537.071 192.411C536.024 192.411 535.935 192.789 535.935 197.236ZM970.566 212.28C970.566 223.364 970.642 227.898 970.735 222.356C970.828 216.814 970.828 207.746 970.735 202.203C970.642 196.661 970.566 201.196 970.566 212.28ZM980.53 213.878V235.345L982.523 236.294C985.439 237.685 989.388 241.538 990.723 244.295C991.822 246.566 991.887 247.712 991.887 264.97V283.24H993.874H995.861V286.079V288.917H993.874H991.887V303.677V318.437H993.306C994.61 318.437 994.726 318.645 994.726 320.991C994.726 323.338 994.61 323.546 993.306 323.546H991.887V342.563V361.581H993.59C995.255 361.581 995.294 361.644 995.294 364.419C995.294 367.195 995.255 367.258 993.59 367.258H991.887V387.694V408.131H1000.69H1009.49V404.725C1009.49 402.833 1009.24 401.319 1008.92 401.319C1008.61 401.319 1008.35 400.553 1008.35 399.616C1008.35 398.679 1008.61 397.913 1008.92 397.913C1009.29 397.913 1009.49 392.141 1009.49 381.734C1009.49 365.933 1009.46 365.555 1008.35 365.555C1007.47 365.555 1007.22 365.176 1007.22 363.852C1007.22 362.527 1007.47 362.149 1008.35 362.149C1009.46 362.149 1009.49 361.77 1009.49 345.686C1009.49 329.601 1009.46 329.223 1008.35 329.223C1007.47 329.223 1007.22 328.844 1007.22 327.52C1007.22 326.195 1007.47 325.817 1008.35 325.817C1009.45 325.817 1009.49 325.438 1009.49 313.328V300.839H1007.5C1005.67 300.839 1005.51 300.703 1005.51 299.135C1005.51 297.568 1005.67 297.432 1007.5 297.432H1009.49V293.922C1009.49 289.683 1011.01 286.154 1013.81 283.923L1015.73 282.389V271.745V261.101H1018.01H1020.28V226.756V192.411H1000.4H980.53V213.878ZM446.6 194.492C445.88 195.212 446.226 195.817 447.357 195.817C447.987 195.817 448.492 195.438 448.492 194.965C448.492 194.101 447.291 193.801 446.6 194.492ZM633.785 200.074C633.787 202.26 633.89 203.084 634.013 201.907C634.136 200.729 634.134 198.941 634.008 197.933C633.883 196.925 633.782 197.889 633.785 200.074ZM636.437 200.074C636.437 203.632 636.489 203.764 637.857 203.764C639.225 203.764 639.277 203.632 639.277 200.074C639.277 196.517 639.225 196.384 637.857 196.384C636.489 196.384 636.437 196.517 636.437 200.074ZM421.424 204.048C421.426 206.234 421.529 207.058 421.652 205.881C421.775 204.703 421.773 202.915 421.647 201.907C421.522 200.899 421.421 201.863 421.424 204.048ZM424.076 204.048C424.076 207.606 424.128 207.738 425.496 207.738C426.864 207.738 426.915 207.606 426.915 204.048C426.915 200.49 426.864 200.358 425.496 200.358C424.128 200.358 424.076 200.49 424.076 204.048ZM532.528 207.454C532.528 209.536 532.776 211.144 533.096 211.144C533.416 211.144 533.664 209.536 533.664 207.454C533.664 205.373 533.416 203.764 533.096 203.764C532.776 203.764 532.528 205.373 532.528 207.454ZM535.935 207.454C535.935 210.766 536.051 211.144 537.071 211.144C538.09 211.144 538.206 210.766 538.206 207.454C538.206 204.143 538.09 203.764 537.071 203.764C536.051 203.764 535.935 204.143 535.935 207.454ZM633.78 208.874C633.78 210.903 633.883 211.734 634.009 210.718C634.135 209.703 634.135 208.044 634.009 207.029C633.883 206.014 633.78 206.844 633.78 208.874ZM636.437 208.874C636.437 212.128 636.5 212.28 637.857 212.28C639.213 212.28 639.277 212.128 639.277 208.874C639.277 205.619 639.213 205.467 637.857 205.467C636.5 205.467 636.437 205.619 636.437 208.874ZM421.419 212.28C421.419 214.309 421.522 215.14 421.648 214.125C421.774 213.11 421.774 211.45 421.648 210.435C421.522 209.42 421.419 210.25 421.419 212.28ZM424.076 212.28C424.076 215.534 424.139 215.686 425.496 215.686C426.852 215.686 426.915 215.534 426.915 212.28C426.915 209.025 426.852 208.874 425.496 208.874C424.139 208.874 424.076 209.025 424.076 212.28ZM926.399 211.523C925.656 212.266 926.013 214.55 926.872 214.55C927.44 214.55 927.724 213.983 927.724 212.847C927.724 211.22 927.213 210.709 926.399 211.523ZM532.528 215.686C532.528 217.578 532.78 219.092 533.096 219.092C533.412 219.092 533.664 217.578 533.664 215.686C533.664 213.794 533.412 212.28 533.096 212.28C532.78 212.28 532.528 213.794 532.528 215.686ZM535.935 215.686C535.935 218.713 536.061 219.092 537.071 219.092C538.08 219.092 538.206 218.713 538.206 215.686C538.206 212.658 538.08 212.28 537.071 212.28C536.061 212.28 535.935 212.658 535.935 215.686ZM919.065 213.763C914.908 215.075 914.664 215.243 914.664 216.798V218.444L919.775 216.73C924.323 215.205 924.885 214.866 924.885 213.648C924.885 211.997 924.644 212.001 919.065 213.763ZM633.73 215.118C633.73 216.211 633.847 216.658 633.99 216.111C634.133 215.565 634.133 214.671 633.99 214.125C633.847 213.578 633.73 214.025 633.73 215.118ZM636.437 215.118C636.437 216.556 636.658 216.821 637.857 216.821C639.056 216.821 639.277 216.556 639.277 215.118C639.277 213.68 639.056 213.415 637.857 213.415C636.658 213.415 636.437 213.68 636.437 215.118ZM615.428 217.673C615.428 218.141 615.812 218.524 616.28 218.524C616.749 218.524 617.132 218.141 617.132 217.673C617.132 217.204 616.749 216.821 616.28 216.821C615.812 216.821 615.428 217.204 615.428 217.673ZM926.021 217.915C926.021 218.727 926.385 219.092 927.198 219.092C928.653 219.092 928.488 217.213 927.008 216.928C926.327 216.797 926.021 217.103 926.021 217.915ZM421.369 219.092C421.369 220.185 421.486 220.631 421.629 220.085C421.772 219.539 421.772 218.645 421.629 218.098C421.486 217.552 421.369 217.999 421.369 219.092ZM424.076 219.092C424.076 220.53 424.297 220.795 425.496 220.795C426.695 220.795 426.915 220.53 426.915 219.092C426.915 217.654 426.695 217.389 425.496 217.389C424.297 217.389 424.076 217.654 424.076 219.092ZM611.596 218.399C610.268 218.909 609.183 219.657 609.183 220.061C609.183 221.008 609.723 220.986 612.236 219.936C613.367 219.463 614.293 218.697 614.293 218.233C614.293 217.769 614.229 217.408 614.151 217.431C614.073 217.453 612.923 217.89 611.596 218.399ZM919.778 218.999C916.279 220.132 914.899 220.849 914.752 221.612C914.601 222.396 914.791 222.571 915.497 222.3C916.018 222.1 918.344 221.385 920.665 220.71C923.946 219.757 924.885 219.251 924.885 218.437C924.885 217.861 924.821 217.4 924.743 217.413C924.665 217.426 922.43 218.14 919.778 218.999ZM469.501 219.092C469.501 219.716 469.757 220.227 470.069 220.227C470.381 220.227 470.637 219.716 470.637 219.092C470.637 218.467 470.381 217.956 470.069 217.956C469.757 217.956 469.501 218.467 469.501 219.092ZM471.773 219.697C471.773 220.805 473.163 221.659 476.741 222.752C477.779 223.069 478.018 222.923 478.018 221.968C478.018 221.323 477.9 220.795 477.756 220.795C477.611 220.795 476.205 220.288 474.633 219.668L471.773 218.541V219.697ZM615.428 220.795C615.428 221.107 615.812 221.363 616.28 221.363C616.749 221.363 617.132 221.107 617.132 220.795C617.132 220.483 616.749 220.227 616.28 220.227C615.812 220.227 615.428 220.483 615.428 220.795ZM532.528 222.498C532.528 223.435 532.784 224.201 533.096 224.201C533.408 224.201 533.664 223.435 533.664 222.498C533.664 221.561 533.408 220.795 533.096 220.795C532.784 220.795 532.528 221.561 532.528 222.498ZM535.935 222.498C535.935 223.822 536.187 224.201 537.071 224.201C537.954 224.201 538.206 223.822 538.206 222.498C538.206 221.174 537.954 220.795 537.071 220.795C536.187 220.795 535.935 221.174 535.935 222.498ZM611.596 221.839C609.126 222.768 608.153 224.031 610.46 223.312C613.319 222.421 614.293 221.93 614.293 221.377C614.293 221.057 614.229 220.826 614.151 220.863C614.073 220.9 612.923 221.34 611.596 221.839ZM926.021 221.646C926.021 222.119 926.525 222.498 927.156 222.498C927.787 222.498 928.292 222.119 928.292 221.646C928.292 221.174 927.787 220.795 927.156 220.795C926.525 220.795 926.021 221.174 926.021 221.646ZM633.721 227.084L633.882 232.806L636.863 233.854L639.844 234.902V228.132V221.363H636.702H633.559L633.721 227.084ZM922.33 222.198L920.059 222.946L922.472 223.006C924.265 223.05 924.885 222.847 924.885 222.214C924.885 221.746 924.821 221.382 924.743 221.406C924.665 221.43 923.579 221.787 922.33 222.198ZM469.501 223.032C469.501 223.326 469.757 223.724 470.069 223.917C470.381 224.11 470.637 223.869 470.637 223.383C470.637 222.896 470.381 222.498 470.069 222.498C469.757 222.498 469.501 222.738 469.501 223.032ZM616.138 222.874C615.15 223.273 615.249 224.201 616.28 224.201C616.749 224.201 617.132 223.818 617.132 223.349C617.132 222.881 617.068 222.518 616.99 222.543C616.912 222.567 616.529 222.717 616.138 222.874ZM471.773 223.789C471.773 224.234 472.807 224.899 474.103 225.287C475.384 225.671 476.79 226.122 477.226 226.289C478.948 226.95 477.897 225.301 476.124 224.56C472.576 223.078 471.773 222.936 471.773 223.789ZM916.51 223.774C915.495 224.099 914.664 224.571 914.664 224.822C914.664 225.073 915.495 224.941 916.51 224.53C917.525 224.118 918.739 223.64 919.207 223.468C920.835 222.87 918.502 223.134 916.51 223.774ZM515.068 224.009C514.07 224.412 514.181 225.904 515.21 225.904C515.683 225.904 516.062 225.399 516.062 224.769C516.062 224.144 515.998 223.654 515.92 223.678C515.841 223.703 515.459 223.852 515.068 224.009ZM510.526 225.712C509.198 226.182 508.112 226.928 508.112 227.37C508.112 228.375 508.163 228.372 510.94 227.261C512.195 226.76 513.223 225.993 513.223 225.558C513.223 225.124 513.159 224.789 513.081 224.814C513.002 224.838 511.853 225.243 510.526 225.712ZM421.237 230.96V236.583L423.894 237.488C425.355 237.986 426.76 238.393 427.017 238.393C427.273 238.393 427.483 235.455 427.483 231.865V225.336H424.36H421.237V230.96ZM469.501 226.154C469.501 226.641 469.757 227.039 470.069 227.039C470.381 227.039 470.637 226.799 470.637 226.505C470.637 226.211 470.381 225.813 470.069 225.62C469.757 225.427 469.501 225.668 469.501 226.154ZM472.234 226.859C472.644 227.024 473.134 227.003 473.322 226.815C473.511 226.626 473.176 226.492 472.577 226.517C471.916 226.544 471.781 226.678 472.234 226.859ZM515.068 227.415C514.079 227.814 514.179 228.742 515.21 228.742C515.678 228.742 516.062 228.359 516.062 227.891C516.062 227.423 515.998 227.06 515.92 227.084C515.841 227.109 515.459 227.258 515.068 227.415ZM510.526 229.118C509.198 229.588 508.112 230.234 508.112 230.553C508.112 230.882 508.544 230.959 509.106 230.732C509.653 230.511 510.802 230.075 511.661 229.764C512.52 229.453 513.223 228.968 513.223 228.687C513.223 228.405 513.159 228.195 513.081 228.22C513.002 228.244 511.853 228.649 510.526 229.118ZM532.528 234.277V239.813L535.935 241.006L539.342 242.199V235.471V228.742H535.935H532.528V234.277ZM514.642 230.446C514.449 230.758 514.69 231.013 515.177 231.013C515.663 231.013 516.062 230.758 516.062 230.446C516.062 230.133 515.821 229.878 515.527 229.878C515.233 229.878 514.835 230.133 514.642 230.446ZM511.981 231.401C512.39 231.565 512.88 231.545 513.069 231.356C513.257 231.168 512.922 231.034 512.324 231.058C511.662 231.085 511.528 231.22 511.981 231.401ZM633.699 235.368C633.8 235.887 634.202 236.419 634.592 236.548C635.636 236.896 635.459 235.169 634.409 234.766C633.786 234.527 633.571 234.709 633.699 235.368ZM636.437 236.315C636.437 236.941 638.639 238.393 639.587 238.393C640.485 238.393 639.593 236.758 638.398 236.214C636.571 235.382 636.437 235.388 636.437 236.315ZM633.598 238.695C633.598 239.153 633.982 239.529 634.45 239.529C634.919 239.529 635.302 239.3 635.302 239.022C635.302 238.743 634.919 238.368 634.45 238.188C633.931 237.989 633.598 238.187 633.598 238.695ZM421.237 239.137C421.237 239.598 421.639 240.129 422.131 240.318C422.753 240.556 422.968 240.374 422.84 239.715C422.607 238.514 421.237 238.019 421.237 239.137ZM636.437 239.502C636.437 239.768 637.204 240.252 638.141 240.579C639.078 240.905 639.844 240.955 639.844 240.69C639.844 240.424 639.078 239.94 638.141 239.614C637.204 239.287 636.437 239.237 636.437 239.502ZM424.076 240.256C424.076 240.655 424.843 241.272 425.78 241.626C427.16 242.146 427.483 242.119 427.483 241.486C427.483 240.699 425.808 239.529 424.682 239.529C424.349 239.529 424.076 239.856 424.076 240.256ZM633.598 241.232C633.598 241.544 633.997 241.799 634.484 241.799C634.97 241.799 635.211 241.544 635.018 241.232C634.825 240.919 634.427 240.664 634.133 240.664C633.839 240.664 633.598 240.919 633.598 241.232ZM421.344 242.403C421.48 242.812 421.928 243.259 422.338 243.396C422.764 243.538 422.977 243.325 422.835 242.899C422.698 242.49 422.25 242.042 421.841 241.906C421.415 241.764 421.202 241.977 421.344 242.403ZM532.528 242.59C532.528 243.388 534.161 244.33 534.667 243.824C534.817 243.674 534.789 243.157 534.604 242.675C534.185 241.584 532.528 241.516 532.528 242.59ZM424.076 243.441C424.076 244.02 426.897 244.845 427.345 244.398C427.508 244.235 426.95 243.839 426.106 243.518C424.233 242.806 424.076 242.801 424.076 243.441ZM535.935 243.731C535.935 244.168 536.702 244.794 537.638 245.12C539.029 245.605 539.342 245.56 539.342 244.878C539.342 244.418 538.687 243.793 537.886 243.488C536.009 242.775 535.935 242.784 535.935 243.731ZM421.237 245.205C421.237 245.518 421.621 245.773 422.089 245.773C422.558 245.773 422.941 245.518 422.941 245.205C422.941 244.893 422.558 244.638 422.089 244.638C421.621 244.638 421.237 244.893 421.237 245.205ZM532.528 245.712C532.528 246.342 534.275 247.054 534.722 246.607C534.903 246.426 534.674 246.042 534.215 245.751C533.153 245.079 532.528 245.065 532.528 245.712ZM535.935 246.784C535.935 247.028 536.702 247.516 537.638 247.87C538.62 248.241 539.342 248.287 539.342 247.98C539.342 247.688 538.687 247.199 537.886 246.894C536.126 246.225 535.935 246.215 535.935 246.784ZM532.528 248.611C532.528 248.924 533.055 249.179 533.697 249.179C534.34 249.179 534.709 248.924 534.516 248.611C534.322 248.299 533.797 248.044 533.346 248.044C532.896 248.044 532.528 248.299 532.528 248.611ZM420.67 282.335V313.789L423.083 314.633C424.41 315.098 425.943 315.66 426.49 315.883C427.429 316.265 427.483 314.506 427.483 283.585V250.882H424.076H420.67V282.335ZM532.528 283.307V312.325L533.806 311.982C534.509 311.794 536.042 311.636 537.213 311.633L539.342 311.625V282.956V254.288H535.935H532.528V283.307ZM556.944 289.485C556.944 309.962 556.854 312.192 556.032 312.192C555.433 312.192 555.238 312.501 555.464 313.09C555.653 313.584 555.808 316.267 555.808 319.051C555.808 323.735 555.894 324.114 556.944 324.114C557.654 324.114 558.08 323.735 558.08 323.105C558.08 321.056 559.726 319.572 561.999 319.572C564.406 319.572 566.029 320.905 566.029 322.881C566.029 324.019 566.311 324.114 569.72 324.114H573.411V321.275C573.411 319.131 573.619 318.437 574.262 318.437C574.786 318.437 575.114 317.905 575.114 317.058C575.114 313.878 577.855 312.76 585.655 312.76H591.58V308.218V303.677H594.42H597.259V308.404C597.259 312.711 597.385 313.248 598.678 314.463C600.585 316.254 600.596 319.125 598.704 321.017C597.385 322.336 596.958 322.411 590.754 322.411H584.199V325.756C584.199 329.335 584.566 329.791 587.447 329.791C588.878 329.791 588.895 329.74 588.59 326.384L588.281 322.978H590.559H592.836L592.432 328.087L592.028 333.197H598.05H604.072V331.752C604.072 330.957 604.7 329.68 605.466 328.913C606.673 327.706 607.377 327.52 610.734 327.52C613.321 327.52 615.027 327.813 615.87 328.404L617.132 329.287V300.508V271.729L613.823 272.029C610.093 272.367 609.183 271.673 609.183 268.488V266.777H583.063H556.944V289.485ZM614.187 267.165C614.596 267.329 615.086 267.309 615.275 267.12C615.463 266.932 615.128 266.798 614.53 266.822C613.868 266.85 613.734 266.984 614.187 267.165ZM515.539 268.244C515.566 268.905 515.701 269.04 515.882 268.587C516.046 268.177 516.025 267.687 515.837 267.499C515.648 267.31 515.514 267.645 515.539 268.244ZM511.377 268.854C510.206 269.34 509.248 270.121 509.248 270.589C509.248 271.175 509.558 271.315 510.242 271.038C510.788 270.817 511.938 270.381 512.797 270.07C513.656 269.759 514.358 269.146 514.358 268.709C514.358 267.728 514.057 267.743 511.377 268.854ZM375.671 270.575C374.065 270.994 374.46 272.338 376.096 272.026C376.877 271.876 377.516 271.401 377.516 270.969C377.516 270.161 377.371 270.131 375.671 270.575ZM369.608 272.101C368.226 272.47 366.991 273.084 366.864 273.465C366.578 274.321 366.881 274.316 370.38 273.41C371.921 273.01 373.284 272.377 373.408 272.001C373.679 271.188 372.957 271.208 369.608 272.101ZM511.377 272.26C508.354 273.514 508.726 274.296 511.803 273.156C513.208 272.635 514.358 272.009 514.358 271.764C514.358 271.151 513.846 271.237 511.377 272.26ZM633.409 290.452C633.066 307.991 633.25 311.595 634.423 310.421C634.576 310.269 634.715 303.261 634.734 294.848C634.785 271.967 634.772 271.319 634.258 271.319C633.997 271.319 633.614 279.929 633.409 290.452ZM654.905 275.718C654.707 278.139 654.421 288.357 654.27 298.426L653.995 316.734H661.967H669.938V299.987V283.24H667.667H665.396V280.402V277.563H667.667H669.938V274.441V271.319H662.602H655.265L654.905 275.718ZM706.846 274.441C706.846 277.393 706.923 277.563 708.265 277.563C709.59 277.563 709.685 277.753 709.685 280.402C709.685 283.051 709.59 283.24 708.265 283.24H706.846V302.258V321.275H708.549C710.215 321.275 710.253 321.338 710.253 324.114C710.253 326.889 710.215 326.952 708.549 326.952H706.846V330.642V334.332H711.105H715.363V315.598V296.865L720.331 296.862C724.388 296.861 725.661 296.64 727.27 295.66C730.793 293.513 744.603 286.748 749.153 284.941C757.681 281.554 761.455 280.978 775.125 280.974L787.475 280.97V279.267C787.475 277.601 787.412 277.563 784.636 277.563C781.986 277.563 781.797 277.469 781.797 276.144C781.797 274.73 781.778 274.725 776.403 274.725H771.008V273.022V271.319H738.927H706.846V274.441ZM820.976 273.022V274.725H814.446H807.916V276.144C807.916 277.5 807.765 277.563 804.509 277.563H801.102V279.267V280.97L808.91 281.064C813.204 281.117 818.538 281.09 820.763 281.006C822.989 280.923 825.288 281.102 825.874 281.406C826.459 281.709 828.79 282.134 831.054 282.35L835.171 282.741V277.03V271.319H828.073H820.976V273.022ZM865.698 271.72C866.404 271.856 867.426 271.851 867.969 271.709C868.512 271.567 867.934 271.456 866.685 271.462C865.435 271.468 864.991 271.585 865.698 271.72ZM871.085 271.71C871.632 271.853 872.526 271.853 873.072 271.71C873.619 271.568 873.172 271.451 872.079 271.451C870.986 271.451 870.538 271.568 871.085 271.71ZM375.955 273.465C374.624 273.677 374.145 274.731 375.387 274.717C376.242 274.706 377.876 273.731 377.5 273.456C377.352 273.348 376.657 273.352 375.955 273.465ZM370.134 274.801C367.091 275.629 366.54 275.862 366.861 276.183C367.243 276.565 372.52 275.292 373.229 274.648C373.909 274.03 372.759 274.086 370.134 274.801ZM894.223 281.537V288.349H902.413C910.375 288.349 910.651 288.39 912.333 289.805C913.285 290.606 914.325 292.202 914.645 293.353C915.023 294.716 915.227 315.108 915.229 351.788L915.232 408.131L918.213 408.113C919.929 408.103 921.662 407.741 922.296 407.261C922.903 406.803 924.499 406.428 925.845 406.428H928.292V386.843C928.292 374.165 928.091 367.258 927.724 367.258C927.412 367.258 927.156 365.98 927.156 364.419C927.156 362.858 927.412 361.581 927.724 361.581C928.091 361.581 928.292 354.863 928.292 342.563C928.292 326.038 928.18 323.546 927.44 323.546C926.809 323.546 926.589 322.883 926.589 320.991C926.589 319.079 926.807 318.437 927.456 318.437C928.22 318.437 928.31 315.85 928.215 296.581L928.107 274.725H911.165H894.223V281.537ZM375.813 275.86L374.393 276.315L375.955 276.371C376.814 276.403 377.516 276.173 377.516 275.86C377.516 275.548 377.452 275.318 377.374 275.349C377.296 275.381 376.593 275.611 375.813 275.86ZM864.697 283.808V288.349H869.24H873.782V283.808V279.267H869.24H864.697V283.808ZM447.783 282.496C446.368 282.866 446.488 284.943 447.924 284.943C448.757 284.943 449.06 284.565 449.06 283.524C449.06 282.744 448.996 282.134 448.918 282.171C448.84 282.207 448.329 282.354 447.783 282.496ZM441.253 284.852C439.425 285.539 438.84 286.061 438.84 287.002V288.245L441.961 287.02C444.088 286.185 445.084 285.478 445.084 284.801C445.085 283.629 444.484 283.637 441.253 284.852ZM447.499 287.022C447.109 287.18 446.789 287.698 446.789 288.174C446.789 288.729 447.11 288.915 447.687 288.694C448.181 288.504 448.692 288.349 448.823 288.349C448.953 288.349 449.06 287.966 449.06 287.498C449.06 286.623 448.734 286.524 447.499 287.022ZM441.821 288.986C440.181 289.617 438.84 290.369 438.84 290.66C438.84 291.384 439.356 291.33 442.429 290.283C443.904 289.781 445.085 289.023 445.085 288.58C445.085 288.141 445.022 287.795 444.943 287.811C444.865 287.828 443.46 288.356 441.821 288.986ZM447.168 290.431C446.448 291.15 446.793 291.756 447.924 291.756C448.555 291.756 449.06 291.377 449.06 290.904C449.06 290.04 447.859 289.74 447.168 290.431ZM274.175 351.93V412.673H276.162H278.149V407.651C278.149 403.351 277.986 402.483 277.014 401.603C276.093 400.769 275.878 399.854 275.878 396.756C275.878 393.413 276.02 392.899 277.014 392.639C278.104 392.354 278.149 391.865 278.149 380.22C278.149 368.713 278.092 368.063 277.014 367.389C276.052 366.789 275.878 366.066 275.878 362.658C275.878 359.114 276.013 358.601 277.014 358.339C278.117 358.05 278.149 357.565 278.149 340.999C278.149 325.439 278.063 323.888 277.156 323.183C276.222 322.457 276.241 322.342 277.48 321.293C278.205 320.679 279.738 320.006 280.887 319.799C283.844 319.266 284.963 318.569 284.963 317.259C284.963 315.326 287.017 311.969 289.729 309.47C291.153 308.157 292.58 307.083 292.9 307.083C293.267 307.083 293.48 304.171 293.48 299.135V291.188H283.827H274.175V351.93ZM867.194 296.013C868.279 296.834 869.24 296.685 869.24 295.696C869.24 295.402 868.537 295.17 867.678 295.18C866.198 295.197 866.173 295.241 867.194 296.013ZM904.444 311.559V327.957L905.844 328.874C906.613 329.378 907.38 329.791 907.547 329.791C907.714 329.791 907.851 321.999 907.851 312.476V295.162H906.147H904.444V311.559ZM376.238 300.094C375.692 300.237 375.245 300.695 375.245 301.111C375.245 301.588 375.664 301.758 376.38 301.571C377.005 301.407 377.516 300.92 377.516 300.488C377.516 300.057 377.452 299.733 377.374 299.769C377.296 299.805 376.785 299.952 376.238 300.094ZM370.276 301.555C368.8 301.91 367.863 302.458 367.863 302.967C367.863 303.457 368.199 303.67 368.679 303.485C369.128 303.313 370.534 302.893 371.802 302.551C373.071 302.21 374.109 301.684 374.109 301.384C374.109 300.745 373.538 300.771 370.276 301.555ZM375.245 303.677C375.245 304.388 375.847 304.388 376.948 303.677C377.637 303.232 377.555 303.125 376.522 303.118C375.82 303.113 375.245 303.365 375.245 303.677ZM370.276 304.393C368.949 304.712 367.863 305.156 367.863 305.379C367.863 305.863 373.26 304.716 373.873 304.102C374.408 303.567 373.358 303.653 370.276 304.393ZM375.671 305.756C376.061 305.914 376.7 305.914 377.09 305.756C377.481 305.599 377.161 305.47 376.38 305.47C375.6 305.47 375.281 305.599 375.671 305.756ZM370.702 313.328C370.702 315.787 370.854 316.166 371.838 316.166C372.822 316.166 372.974 315.787 372.974 313.328C372.974 310.868 372.822 310.489 371.838 310.489C370.854 310.489 370.702 310.868 370.702 313.328ZM374.677 313.328C374.677 315.977 374.772 316.166 376.096 316.166C377.421 316.166 377.516 315.977 377.516 313.328C377.516 310.678 377.421 310.489 376.096 310.489C374.772 310.489 374.677 310.678 374.677 313.328ZM633.031 312.778C633.031 313.393 633.414 313.895 633.882 313.895C634.351 313.895 634.734 313.539 634.734 313.105C634.734 312.67 634.351 312.167 633.882 311.987C633.303 311.765 633.031 312.017 633.031 312.778ZM333.511 313.653C322.165 314.876 321.949 314.925 322.281 316.192C322.561 317.262 323.174 317.301 339.681 317.285L356.791 317.268L354.976 315.617C351.672 312.611 347.077 312.191 333.511 313.653ZM534.668 314.307C535.688 314.433 537.221 314.431 538.075 314.301C538.928 314.171 538.093 314.068 536.219 314.071C534.345 314.074 533.647 314.18 534.668 314.307ZM420.77 316.547C420.871 317.066 421.273 317.598 421.663 317.727C422.707 318.075 422.53 316.348 421.48 315.945C420.858 315.706 420.642 315.888 420.77 316.547ZM633.031 316.166C633.031 316.478 633.414 316.734 633.882 316.734C634.351 316.734 634.734 316.478 634.734 316.166C634.734 315.854 634.351 315.598 633.882 315.598C633.414 315.598 633.031 315.854 633.031 316.166ZM423.509 317.53C423.509 317.967 424.313 318.606 425.297 318.949C427.533 319.728 427.483 319.732 427.483 318.776C427.483 318.339 426.679 317.7 425.695 317.357C423.459 316.578 423.509 316.574 423.509 317.53ZM532.785 317.258C533.442 318.321 536.442 318.544 537.751 317.627C538.975 316.77 538.893 316.734 535.744 316.734C533.882 316.734 532.601 316.961 532.785 317.258ZM544.452 317.058C544.452 317.237 544.835 317.765 545.303 318.233C546.835 319.765 546.972 321.796 545.661 323.569C544.996 324.467 544.452 325.341 544.452 325.51C544.452 325.679 546.241 325.817 548.427 325.817H552.402V321.275V316.734H548.427C546.241 316.734 544.452 316.88 544.452 317.058ZM633.031 318.738C633.031 319.197 633.414 319.572 633.882 319.572C634.351 319.572 634.734 319.344 634.734 319.065C634.734 318.786 634.351 318.411 633.882 318.231C633.363 318.033 633.031 318.231 633.031 318.738ZM420.67 319.874C420.67 320.332 421.053 320.708 421.521 320.708C421.99 320.708 422.373 320.479 422.373 320.201C422.373 319.922 421.99 319.547 421.521 319.367C421.002 319.168 420.67 319.366 420.67 319.874ZM533.096 320.424C533.096 320.892 533.352 321.275 533.664 321.275C533.976 321.275 534.232 320.892 534.232 320.424C534.232 319.955 533.976 319.572 533.664 319.572C533.352 319.572 533.096 319.955 533.096 320.424ZM423.509 320.591C423.509 321.042 426.348 322.411 427.284 322.411C427.959 322.411 427.31 321.358 426.49 321.122C425.943 320.965 425.049 320.652 424.502 320.427C423.942 320.197 423.509 320.268 423.509 320.591ZM535.412 321.039C535.439 321.7 535.574 321.834 535.755 321.382C535.919 320.972 535.899 320.482 535.71 320.294C535.522 320.105 535.388 320.44 535.412 321.039ZM420.67 322.411C420.67 322.723 421.068 322.978 421.555 322.978C422.041 322.978 422.282 322.723 422.089 322.411C421.896 322.098 421.498 321.843 421.204 321.843C420.91 321.843 420.67 322.098 420.67 322.411ZM533.096 323.546C533.096 323.858 533.352 324.114 533.664 324.114C533.976 324.114 534.232 323.858 534.232 323.546C534.232 323.234 533.976 322.978 533.664 322.978C533.352 322.978 533.096 323.234 533.096 323.546ZM535.367 324.111C535.367 324.363 536.162 324.847 537.134 325.186C538.616 325.703 538.796 325.676 538.251 325.019C537.494 324.107 535.367 323.438 535.367 324.111ZM633.031 354.201C633.031 380.567 633.136 384.288 633.882 384.288C634.628 384.288 634.734 380.567 634.734 354.201C634.734 327.835 634.628 324.114 633.882 324.114C633.136 324.114 633.031 327.835 633.031 354.201ZM279.853 327.762C279.853 330.574 279.982 330.926 281.018 330.926C282.067 330.926 282.166 330.628 282.011 327.951C281.879 325.652 281.615 324.933 280.846 324.787C279.996 324.625 279.853 325.055 279.853 327.762ZM284.395 328.054C284.395 329.633 284.651 330.926 284.963 330.926C285.275 330.926 285.531 329.792 285.531 328.405C285.531 327.018 285.275 325.726 284.963 325.533C284.613 325.317 284.395 326.284 284.395 328.054ZM546.298 327.933C547.469 328.056 549.385 328.056 550.556 327.933C551.728 327.811 550.769 327.711 548.427 327.711C546.085 327.711 545.127 327.811 546.298 327.933ZM322.438 366.122V404.157H339.757H357.075V366.122V328.087H339.757H322.438V366.122ZM367.295 335.184C367.295 339.536 367.515 342.28 367.863 342.28C368.211 342.28 368.431 339.536 368.431 335.184C368.431 330.831 368.211 328.087 367.863 328.087C367.515 328.087 367.295 330.831 367.295 335.184ZM370.702 329.264C370.702 330.077 371.008 330.383 371.69 330.251C373.169 329.967 373.335 328.087 371.879 328.087C371.067 328.087 370.702 328.452 370.702 329.264ZM374.677 329C374.677 329.599 374.986 329.793 375.575 329.567C376.069 329.378 376.708 329.223 376.995 329.223C377.282 329.223 377.516 328.967 377.516 328.655C377.516 328.343 376.877 328.087 376.096 328.087C375.171 328.087 374.677 328.405 374.677 329ZM420.67 358.175V388.262H422.089C422.87 388.262 424.02 388.773 424.644 389.398C425.688 390.441 425.78 391.29 425.78 399.9C425.78 407.847 425.909 409.267 426.632 409.267C427.381 409.267 427.483 404.378 427.483 368.677V328.087H424.076H420.67V358.175ZM544.452 330.358C544.452 330.682 546.156 330.926 548.427 330.926C550.698 330.926 552.402 330.682 552.402 330.358C552.402 330.034 550.698 329.791 548.427 329.791C546.156 329.791 544.452 330.034 544.452 330.358ZM375.387 331.302C374.909 331.495 374.677 332.962 374.677 335.798C374.677 339.911 374.71 340.009 376.096 340.009C377.492 340.009 377.516 339.933 377.516 335.467C377.516 330.91 377.318 330.523 375.387 331.302ZM654.04 355.053V379.179H661.989H669.938V355.053V330.926H661.989H654.04V355.053ZM371.696 331.951C370.849 332.116 370.702 332.811 370.702 336.644C370.702 340.307 370.864 341.144 371.572 341.144C372.812 341.144 373.049 340.14 372.858 335.688C372.713 332.299 372.553 331.785 371.696 331.951ZM609.744 332.771C609.741 333.473 609.579 335.006 609.386 336.177L609.034 338.306H611.379H613.725V335.581C613.725 332.569 613.023 331.494 611.056 331.494C610.083 331.494 609.749 331.818 609.744 332.771ZM279.853 339.157C279.853 345.307 279.919 345.686 280.988 345.686C282.058 345.686 282.124 345.307 282.124 339.157C282.124 333.008 282.058 332.629 280.988 332.629C279.919 332.629 279.853 333.008 279.853 339.157ZM284.395 338.873C284.395 342.658 284.619 345.118 284.963 345.118C285.307 345.118 285.531 342.658 285.531 338.873C285.531 335.089 285.307 332.629 284.963 332.629C284.619 332.629 284.395 335.089 284.395 338.873ZM532.528 337.17C532.528 338.18 532.907 338.306 535.935 338.306C538.963 338.306 539.342 338.18 539.342 337.17C539.342 336.161 538.963 336.035 535.935 336.035C532.907 336.035 532.528 336.161 532.528 337.17ZM544.452 337.17C544.452 337.927 544.831 338.306 545.588 338.306C546.345 338.306 546.723 337.927 546.723 337.17C546.723 336.414 546.345 336.035 545.588 336.035C544.831 336.035 544.452 336.414 544.452 337.17ZM550.13 372.083C550.13 403.747 550.234 408.131 550.982 408.131C551.73 408.131 551.834 403.747 551.834 372.083C551.834 340.419 551.73 336.035 550.982 336.035C550.234 336.035 550.13 340.419 550.13 372.083ZM555.808 372.083C555.808 407.752 555.82 408.131 556.944 408.131C558.068 408.131 558.08 407.752 558.08 372.083C558.08 336.414 558.068 336.035 556.944 336.035C555.82 336.035 555.808 336.414 555.808 372.083ZM562.622 372.083C562.622 403.747 562.725 408.131 563.474 408.131C564.222 408.131 564.326 403.747 564.326 372.083C564.326 340.419 564.222 336.035 563.474 336.035C562.725 336.035 562.622 340.419 562.622 372.083ZM587.18 336.457L583.063 336.653V372.392V408.131H592.432H601.801V376.19C601.801 345.334 601.84 344.178 602.937 342.131C603.561 340.966 604.072 339.118 604.072 338.024V336.035L597.684 336.148C594.171 336.21 589.444 336.349 587.18 336.457ZM375.955 341.52C374.842 341.969 375.124 342.847 376.38 342.847C377.011 342.847 377.516 342.469 377.516 341.996C377.516 341.121 377.19 341.022 375.955 341.52ZM371.27 342.847C370.802 343.15 369.843 343.401 369.141 343.406C368.413 343.411 367.863 343.766 367.863 344.231C367.863 344.919 368.233 344.939 370.233 344.36C371.537 343.983 372.708 343.36 372.836 342.977C373.113 342.144 372.444 342.089 371.27 342.847ZM376.238 344.374C375.692 344.517 375.245 344.847 375.245 345.107C375.245 345.367 375.756 345.446 376.38 345.283C377.005 345.119 377.516 344.76 377.516 344.484C377.516 344.209 377.452 344.012 377.374 344.049C377.296 344.085 376.785 344.231 376.238 344.374ZM532.528 367.825V391.668H533.761C534.439 391.668 535.461 392.091 536.032 392.608C537.037 393.517 537.071 392.738 537.071 368.765V343.983H534.799H532.528V367.825ZM545.02 376.978C545.02 406.242 545.117 409.893 545.872 409.267C546.61 408.653 546.723 404.279 546.723 376.271C546.723 347.949 546.619 343.983 545.872 343.983C545.125 343.983 545.02 348.027 545.02 376.978ZM369.851 345.991L367.579 346.776L370.134 346.451C372.93 346.095 375.296 345.132 373.257 345.179C372.633 345.194 371.1 345.559 369.851 345.991ZM375.813 346.821C375.124 347.266 375.206 347.373 376.238 347.38C376.941 347.385 377.516 347.133 377.516 346.821C377.516 346.11 376.914 346.11 375.813 346.821ZM706.846 370.948C706.846 395.263 706.864 395.642 707.982 395.642C708.901 395.642 709.117 396.021 709.117 397.629C709.117 399.237 708.901 399.616 707.982 399.616C706.878 399.616 706.846 399.994 706.846 413.24V426.865H709.685H712.524V437.651V448.437H713.944H715.363V397.345V346.253H711.105H706.846V370.948ZM284.395 351.68C284.395 354.774 284.601 356.412 284.963 356.188C285.275 355.995 285.531 353.809 285.531 351.329C285.531 348.702 285.294 346.821 284.963 346.821C284.628 346.821 284.395 348.819 284.395 351.68ZM279.853 352.445C279.853 357.221 279.916 357.484 280.988 357.204C282.01 356.937 282.124 356.43 282.124 352.148C282.124 347.767 282.034 347.389 280.988 347.389C279.938 347.389 279.853 347.767 279.853 352.445ZM367.295 380.642C367.295 404.526 367.442 410.363 368.064 411.269C368.487 411.885 369.106 413.155 369.439 414.092C369.907 415.407 370.055 413.193 370.09 404.369C370.123 395.875 369.952 392.792 369.425 392.353C368.889 391.909 368.668 386.921 368.522 371.989C368.416 361.113 368.096 351.971 367.812 351.675C367.502 351.351 367.295 362.907 367.295 380.642ZM374.677 353.838C374.677 356.173 374.758 356.299 376.096 356.043C377.32 355.809 377.516 355.468 377.516 353.567C377.516 351.594 377.367 351.363 376.096 351.363C374.799 351.363 374.677 351.576 374.677 353.838ZM370.702 354.201C370.702 356.093 370.891 356.472 371.838 356.472C372.784 356.472 372.974 356.093 372.974 354.201C372.974 352.309 372.784 351.93 371.838 351.93C370.891 351.93 370.702 352.309 370.702 354.201ZM374.677 362.432C374.677 367.201 374.693 367.258 376.096 367.258C377.5 367.258 377.516 367.201 377.516 362.432C377.516 357.664 377.5 357.607 376.096 357.607C374.693 357.607 374.677 357.664 374.677 362.432ZM370.702 363.042C370.702 367.371 370.812 367.888 371.696 367.719C372.53 367.56 372.716 366.777 372.854 362.852C373.009 358.468 372.947 358.175 371.861 358.175C370.785 358.175 370.702 358.521 370.702 363.042ZM278.759 359.24C278.002 359.452 277.264 359.978 277.12 360.41C276.946 360.933 277.155 361.081 277.748 360.853C278.237 360.666 279.552 360.341 280.67 360.13C281.789 359.921 282.844 359.522 283.015 359.246C283.371 358.671 280.81 358.668 278.759 359.24ZM280.034 361.778C278.728 362.138 277.451 362.665 277.195 362.948C276.923 363.251 277.162 363.31 277.773 363.089C278.347 362.883 279.816 362.554 281.038 362.359C282.26 362.163 283.26 361.781 283.26 361.508C283.26 360.92 283.103 360.933 280.034 361.778ZM279.853 370.096C279.853 371.988 280.042 372.367 280.988 372.367C281.935 372.367 282.124 371.988 282.124 370.096C282.124 368.204 281.935 367.825 280.988 367.825C280.042 367.825 279.853 368.204 279.853 370.096ZM284.395 370.13C284.395 371.521 284.62 372.295 284.963 372.083C285.275 371.89 285.531 370.853 285.531 369.779C285.531 368.704 285.275 367.825 284.963 367.825C284.651 367.825 284.395 368.863 284.395 370.13ZM375.955 368.859C374.71 369.035 374.677 369.22 374.677 375.851C374.677 382.652 374.679 382.661 375.955 382.269C376.657 382.053 377.304 381.815 377.393 381.739C377.481 381.663 377.481 378.694 377.393 375.14C377.235 368.802 377.208 368.68 375.955 368.859ZM371.696 369.42C370.813 369.59 370.702 370.399 370.702 376.666C370.702 380.546 370.894 383.717 371.128 383.712C372.765 383.679 373.006 382.598 372.85 376.004C372.706 369.903 372.591 369.246 371.696 369.42ZM284.395 378.328C284.395 381.166 284.629 383.153 284.963 383.153C285.297 383.153 285.531 381.166 285.531 378.328C285.531 375.489 285.297 373.502 284.963 373.502C284.629 373.502 284.395 375.489 284.395 378.328ZM279.853 378.895C279.853 383.342 279.942 383.721 280.988 383.721C282.035 383.721 282.124 383.342 282.124 378.895C282.124 374.449 282.035 374.07 280.988 374.07C279.942 374.07 279.853 374.449 279.853 378.895ZM497.892 392.804V409.267H499.879H501.866V401.868C501.866 393.382 502.489 391.175 505.381 389.412C506.775 388.562 508.251 388.266 511.093 388.264L514.926 388.262V382.301V376.341H506.409H497.892V392.804ZM374.961 384.288C374.768 384.601 373.746 384.856 372.69 384.856C370.957 384.856 369.622 385.668 370.276 386.322C370.831 386.876 376.38 385.196 376.38 384.475C376.38 383.59 375.467 383.47 374.961 384.288ZM284.395 387.694C284.395 389.256 284.651 390.533 284.963 390.533C285.275 390.533 285.531 389.256 285.531 387.694C285.531 386.133 285.275 384.856 284.963 384.856C284.651 384.856 284.395 386.133 284.395 387.694ZM279.853 388.546C279.853 391.29 279.99 391.668 280.988 391.668C281.986 391.668 282.124 391.29 282.124 388.546C282.124 385.802 281.986 385.424 280.988 385.424C279.99 385.424 279.853 385.802 279.853 388.546ZM375.529 386.857C375.216 386.972 373.849 387.352 372.49 387.701C371.132 388.051 370.135 388.452 370.276 388.593C370.688 389.005 376.38 387.546 376.38 387.029C376.38 386.771 376.317 386.58 376.238 386.604C376.16 386.628 375.841 386.742 375.529 386.857ZM375.139 389.218C375.548 389.382 376.038 389.361 376.227 389.173C376.415 388.984 376.08 388.85 375.482 388.875C374.82 388.902 374.685 389.036 375.139 389.218ZM280.846 393.195C279.486 393.55 279.59 394.507 280.988 394.507C281.619 394.507 282.124 394.128 282.124 393.655C282.124 393.187 282.06 392.833 281.982 392.869C281.904 392.906 281.393 393.052 280.846 393.195ZM371.838 396.777C371.838 400.032 371.901 400.184 373.257 400.184C374.614 400.184 374.677 400.032 374.677 396.777C374.677 393.523 374.614 393.371 373.257 393.371C371.901 393.371 371.838 393.523 371.838 396.777ZM376.38 396.777C376.38 398.67 376.632 400.184 376.948 400.184C377.264 400.184 377.516 398.67 377.516 396.777C377.516 394.885 377.264 393.371 376.948 393.371C376.632 393.371 376.38 394.885 376.38 396.777ZM277.626 394.838C277.654 395.499 277.788 395.634 277.969 395.181C278.133 394.771 278.113 394.281 277.924 394.093C277.736 393.904 277.602 394.239 277.626 394.838ZM280.704 396.21C279.621 396.675 279.627 396.7 280.846 396.738C281.549 396.759 282.124 396.522 282.124 396.21C282.124 395.898 282.06 395.66 281.982 395.682C281.904 395.704 281.329 395.941 280.704 396.21ZM-79.5712 404.157V409.267H-73.3253H-67.0794V404.157V399.048H-73.3253H-79.5712V404.157ZM283.827 403.873C283.827 405.261 284.084 405.86 284.679 405.86C285.274 405.86 285.531 405.261 285.531 403.873C285.531 402.486 285.274 401.887 284.679 401.887C284.084 401.887 283.827 402.486 283.827 403.873ZM371.838 408.415C371.838 412.006 372.072 414.943 372.359 414.943C374.467 414.943 374.677 414.322 374.677 408.07V401.887H373.257H371.838V408.415ZM376.38 408.165C376.38 412.205 376.583 414.318 376.948 414.092C377.268 413.894 377.516 411.153 377.516 407.814C377.516 404.241 377.291 401.887 376.948 401.887C376.604 401.887 376.38 404.358 376.38 408.165ZM279.853 404.441C279.853 405.829 280.109 406.428 280.704 406.428C281.299 406.428 281.556 405.829 281.556 404.441C281.556 403.054 281.299 402.454 280.704 402.454C280.109 402.454 279.853 403.054 279.853 404.441ZM283.827 413.79C283.827 419.092 283.954 419.969 284.679 419.69C285.36 419.429 285.531 418.184 285.531 413.463C285.531 408.597 285.381 407.563 284.679 407.563C283.974 407.563 283.827 408.634 283.827 413.79ZM279.853 410.402C279.853 412.042 280.089 412.673 280.704 412.673C281.319 412.673 281.556 412.042 281.556 410.402C281.556 408.762 281.319 408.131 280.704 408.131C280.089 408.131 279.853 408.762 279.853 410.402ZM-134.081 423.459V435.38H-131.81H-129.539V423.459V411.537H-131.81H-134.081V423.459ZM-123.293 423.459V435.38H-119.034H-114.775V427.716V420.053H-111.369H-107.962V415.795V411.537H-115.627H-123.293V423.459ZM376.682 416.245C376.439 416.805 376.4 417.422 376.594 417.617C377.171 418.193 377.636 417.384 377.37 416.265C377.135 415.273 377.104 415.273 376.682 416.245ZM281.131 418.066C281.138 419.315 281.254 419.758 281.39 419.052C281.525 418.346 281.52 417.324 281.378 416.782C281.236 416.239 281.125 416.817 281.131 418.066ZM372.832 416.47C371.338 416.86 371.637 417.782 373.257 417.782C374.141 417.782 374.677 417.46 374.677 416.93C374.677 416.057 374.542 416.023 372.832 416.47ZM283.827 422.938C283.827 425.11 285.165 424.915 285.426 422.705C285.554 421.63 285.347 421.188 284.717 421.188C284.102 421.188 283.827 421.728 283.827 422.938ZM281.12 423.459C281.12 424.551 281.237 424.998 281.379 424.452C281.523 423.906 281.523 423.011 281.379 422.465C281.237 421.919 281.12 422.366 281.12 423.459ZM285.008 426.628C285.035 427.289 285.17 427.424 285.351 426.971C285.515 426.562 285.494 426.072 285.306 425.883C285.117 425.695 284.983 426.03 285.008 426.628ZM370.596 429.523C371.005 429.687 371.496 429.667 371.684 429.478C371.873 429.29 371.538 429.156 370.939 429.18C370.278 429.208 370.143 429.342 370.596 429.523ZM425.78 433.677C425.78 437.335 425.946 438.218 426.632 438.218C427.262 438.218 427.483 437.556 427.483 435.664V433.109H435.149H442.814V431.122V429.136H434.297H425.78V433.677ZM371.98 430.906C369.463 431.633 369.648 432.113 372.264 431.643C374.864 431.176 376.703 430.287 374.961 430.34C374.336 430.358 372.995 430.613 371.98 430.906ZM481.425 433.393C481.425 434.036 482.119 434.245 484.264 434.245C486.41 434.245 487.103 434.036 487.103 433.393C487.103 432.75 486.41 432.542 484.264 432.542C482.119 432.542 481.425 432.75 481.425 433.393ZM491.123 433.44C491.15 434.102 491.285 434.236 491.466 433.784C491.63 433.374 491.61 432.884 491.421 432.695C491.232 432.507 491.098 432.842 491.123 433.44ZM481.425 436.799C481.425 438.124 481.614 438.218 484.264 438.218C486.914 438.218 487.103 438.124 487.103 436.799C487.103 435.475 486.914 435.38 484.264 435.38C481.614 435.38 481.425 435.475 481.425 436.799ZM491.189 436.799C491.2 437.736 491.327 438.05 491.472 437.498C491.616 436.946 491.606 436.179 491.451 435.795C491.295 435.411 491.177 435.863 491.189 436.799ZM372.217 436.894C372.008 437.102 371.838 438.279 371.838 439.509C371.838 441.316 372.011 441.68 372.736 441.401C373.23 441.212 373.869 441.057 374.156 441.057C374.442 441.057 374.677 440.035 374.677 438.786C374.677 436.963 374.472 436.515 373.636 436.515C373.063 436.515 372.424 436.686 372.217 436.894ZM376.38 438.786C376.38 440.035 376.636 441.057 376.948 441.057C377.26 441.057 377.516 440.035 377.516 438.786C377.516 437.537 377.26 436.515 376.948 436.515C376.636 436.515 376.38 437.537 376.38 438.786ZM372.217 443.139C372.008 443.346 371.838 445.664 371.838 448.287C371.838 452.909 371.878 453.052 373.115 452.876C374.314 452.706 374.403 452.388 374.557 447.727C374.707 443.193 374.629 442.76 373.658 442.76C373.073 442.76 372.424 442.93 372.217 443.139ZM376.38 447.585C376.38 450.424 376.614 452.411 376.948 452.411C377.282 452.411 377.516 450.424 377.516 447.585C377.516 444.747 377.282 442.76 376.948 442.76C376.614 442.76 376.38 444.747 376.38 447.585ZM401.364 448.437C401.364 449.312 401.743 449.572 403.014 449.572C404.385 449.572 404.614 449.38 404.368 448.437C404.175 447.702 403.593 447.301 402.717 447.301C401.743 447.301 401.364 447.619 401.364 448.437ZM409.149 448.437C408.861 449.538 409.132 449.572 418.168 449.572C427.105 449.572 427.483 449.526 427.483 448.437C427.483 447.349 427.105 447.301 418.465 447.301C409.923 447.301 409.43 447.362 409.149 448.437ZM481.425 448.437C481.425 449.493 481.804 449.572 486.819 449.572C491.835 449.572 492.214 449.493 492.214 448.437C492.214 447.381 491.835 447.301 486.819 447.301C481.804 447.301 481.425 447.381 481.425 448.437ZM495.621 448.437C495.621 449.32 495.999 449.572 497.324 449.572C498.649 449.572 499.027 449.32 499.027 448.437C499.027 447.553 498.649 447.301 497.324 447.301C495.999 447.301 495.621 447.553 495.621 448.437ZM502.434 448.437C502.434 449.404 502.813 449.572 504.989 449.572C507.166 449.572 507.545 449.404 507.545 448.437C507.545 447.469 507.166 447.301 504.989 447.301C502.813 447.301 502.434 447.469 502.434 448.437ZM510.951 448.437C510.951 449.394 511.329 449.572 513.365 449.57L515.778 449.568L513.919 448.435C511.578 447.008 510.951 447.009 510.951 448.437ZM372.832 454.505C372.015 454.718 371.838 455.416 371.838 458.413C371.838 461.926 371.891 462.061 373.257 462.061C374.637 462.061 374.677 461.948 374.677 458.087C374.677 455.902 374.485 454.143 374.251 454.18C374.017 454.216 373.378 454.362 372.832 454.505ZM376.38 458.087C376.38 460.358 376.624 462.061 376.948 462.061C377.272 462.061 377.516 460.358 377.516 458.087C377.516 455.817 377.272 454.114 376.948 454.114C376.624 454.114 376.38 455.817 376.38 458.087ZM401.54 459.507C401.543 461.38 401.649 462.078 401.776 461.058C401.902 460.037 401.899 458.505 401.77 457.651C401.64 456.798 401.537 457.633 401.54 459.507ZM481.425 459.507V462.629H498.46H515.494V459.507V456.384H498.46H481.425V459.507ZM370.134 491.865V493.284H416.979H463.823V491.865V490.446H416.979H370.134V491.865ZM481.425 491.865V493.284H587.322H693.218V491.865V490.446H587.322H481.425V491.865Z" fill="#A6BDD0"/>
</g>
<rect width="475" height="601" fill="url(#paint0_linear_6005_546)"/>
<rect x="-45" y="535" width="546" height="1097" transform="rotate(-90 -45 535)" fill="url(#paint1_linear_6005_546)"/>
</g>
<defs>
<linearGradient id="paint0_linear_6005_546" x1="8.88603e-06" y1="387.085" x2="474.71" y2="406.178" gradientUnits="userSpaceOnUse">
<stop stop-color="white"/>
<stop offset="1" stop-color="white" stop-opacity="0"/>
</linearGradient>
<linearGradient id="paint1_linear_6005_546" x1="-45" y1="1241.54" x2="270.68" y2="1216.43" gradientUnits="userSpaceOnUse">
<stop stop-color="white"/>
<stop offset="1" stop-color="white" stop-opacity="0"/>
</linearGradient>
<clipPath id="clip0_6005_546">
<rect width="1052" height="535" fill="white"/>
</clipPath>
<clipPath id="clip1_6005_546">
<rect width="1131" height="650" fill="white" transform="translate(0 -92)"/>
</clipPath>
</defs>
</svg>
