<svg width="1052" height="535" fill="none" xmlns="http://www.w3.org/2000/svg"><g clip-path="url(#a)"><g clip-path="url(#b)"><path fill-rule="evenodd" clip-rule="evenodd" d="M849.557-1.368c-.989.144-1.983.695-2.211 1.224-.227.528-.535 5.574-.683 11.213l-.27 10.252-7.456.676c-10.211.925-18.04 3.049-19.41 5.265-.594.96-.721 10.904-.152 11.873.275.469 1.085 2.385 1.8 4.258l1.3 3.406 11.263-.215 11.264-.216-.361 3.862c-.242 2.598-.144 4.123.3 4.659.435.523.465.927.089 1.178-.315.21-.714.768-.887 1.24-.173.471-1.442 1.158-2.82 1.527-3.374.902-5.426 2.63-6.129 5.163-.352 1.265-.588 10.48-.592 23.108l-.008 21.004-7.519 2.405c-4.135 1.323-7.824 2.606-8.197 2.853-.451.297-.711 2.677-.776 7.126-.081 5.455.069 6.867.82 7.695.505.558.918 1.324.918 1.701 0 .52 1.759.593 7.289.301l7.288-.385.376 15.833c.207 8.709.376 19.039.377 22.957l.001 7.123-7.523 2.528-7.524 2.527-.16 6.7c-.149 6.247-.073 6.812 1.136 8.343 1.288 1.632 1.332 1.641 7.683 1.673l6.388.031v44.847H706.846v-6.812h1.703c1.666 0 1.704-.063 1.704-2.839 0-2.775-.038-2.838-1.704-2.838h-1.703v-38.603h3.975v-5.677h-3.975V138.48h1.419c1.304 0 1.42-.208 1.42-2.554 0-2.346-.116-2.555-1.42-2.555h-1.419v-41.44h1.419c1.325 0 1.42-.19 1.42-2.84 0-2.635-.099-2.838-1.395-2.838h-1.394l-.167-22.092-.167-22.091-1.711-2.461c-1-1.437-2.761-2.991-4.237-3.738-2.317-1.171-3.304-1.277-11.938-1.277s-9.621.106-11.938 1.277c-1.476.747-3.237 2.3-4.237 3.738l-1.711 2.46-.167 22.092-.167 22.092h-5.06v5.677h5.11v41.441h-5.11v5.109h5.11v6.436c0 3.54-.169 14.142-.375 23.559l-.376 17.123h-1.612c-1.555 0-1.612.099-1.612 2.839 0 2.775.038 2.838 1.704 2.838h1.703v38.603h-3.974v5.677h3.974v6.812h-24.416v-21.004h1.704c1.608 0 1.703-.126 1.703-2.271s-.095-2.271-1.703-2.271h-1.704v-33.693c0-34.748-.117-36.683-2.293-37.847-.571-.306-5.116-.556-10.1-.556-7.739 0-9.112.131-9.407.898-.189.494-.344 3.777-.344 7.297v6.399l-4.117.35c-4.336.369-9.06 1.711-9.997 2.84-.997 1.201-.894 7.3.176 10.521l1.012 3.044 5.941-.404 5.942-.406-.159 2.595c-.088 1.426.019 2.773.238 2.991.519.519-1.257 2.478-2.247 2.478-.42 0-1.275.511-1.899 1.135-1.078 1.077-1.136 1.892-1.136 15.895 0 12.695-.118 14.76-.846 14.76-.465 0-2.509.666-4.542 1.479l-3.697 1.48.018 4.623c.025 6.321.488 6.871 5.347 6.35l3.72-.398v28.475h-69.841v4.825c0 2.839.234 4.825.568 4.825.369 0 .568 7.948.568 22.708v22.707h2.555c2.752 0 2.998.206 1.744 1.46-.538.539-2.066.811-4.543.811h-3.731v-85.721h1.988c1.94 0 1.987-.053 1.987-2.27s-.047-2.271-1.987-2.271h-1.988v-34.318c0-36.153-.052-36.917-2.562-37.547-2.023-.508-18.303-.553-18.809-.053-.257.255-.6 3.575-.763 7.38l-.294 6.918-4.485.406c-2.839.258-5.445.883-7.098 1.703l-2.613 1.297-.16 3.406c-.105 2.225.209 4.489.907 6.529l1.068 3.122 6.031-.203 6.031-.204-.223 3.326a221.94 221.94 0 0 1-.266 3.69c-.025.2-.619.508-1.322.684-.702.177-1.788.695-2.413 1.151-1.072.783-1.151 1.659-1.419 15.699l-.284 14.871-3.407 1.275c-1.874.702-3.854 1.467-4.401 1.7-.819.351-.993 1.167-.993 4.659 0 6.042.31 6.43 5.13 6.43h3.955l-.009 14.618-.009 14.618-3.824 1.474-3.824 1.474-.169 4.189c-.24 5.926.325 6.772 4.524 6.772h3.311v91.965h-24.416v38.035h-10.221v-38.603h-3.407v-18.166h-9.233l.352-2.129c.193-1.17.355-28.147.358-59.948l.006-57.82 3.979.4c3.728.374 4.048.315 5.091-.936.935-1.122 1.116-2.224 1.132-6.871.01-3.043-.045-5.538-.123-5.543-.078-.005-2.314-.875-4.968-1.935l-4.827-1.927-.15-18.278-.15-18.279 5.004.396 5.004.396.682-1.497c.377-.827.682-3.889.682-6.837v-5.34l-2.577-1.14c-1.419-.627-3.974-1.58-5.679-2.117l-3.1-.977v-35.47l-1.435-1.705c-.789-.938-2.137-1.859-2.997-2.047-1.646-.362-3.566-2.658-2.515-3.008.365-.122.473-1.473.284-3.555l-.305-3.358 5.897.287c3.244.158 6.685.382 7.648.497 1.705.205 1.781.112 2.981-3.61a26.51 26.51 0 0 0 1.231-7.855c0-3.683-.131-4.137-1.498-5.213-2.165-1.702-6.591-2.888-12.205-3.27l-4.901-.335-.234-8.697c-.128-4.784-.436-8.899-.682-9.145-.799-.8-10.032-.895-21.647-.223-6.245.361-19.021 1.038-28.39 1.503-9.369.466-19.692 1.01-22.941 1.21l-5.907.362.372 57.105c.205 31.408.537 71.303.739 88.655l.368 31.55-1.93 1.195c-2.868 1.775-3.917 3.961-3.924 8.173l-.005 3.602-5.815 1.42-5.814 1.419-.168 3.846c-.228 5.219.135 5.521 6.657 5.521h5.151v17.342l-5.536 1.405-5.536 1.405-.166 3.723c-.14 3.154.012 3.883.994 4.772.915.827 1.159 1.747 1.159 4.366 0 3.513-.822 4.478-1.375 1.615l-.662-3.427c-.184-.948-1.239-2.603-2.345-3.676-5.356-5.202-13.539-5.886-34.764-2.909-11.616 1.629-14.07 1.828-15.047 1.218-.643-.402-2.126-1.033-3.298-1.405l-2.129-.675v-9.927c0-5.461-.246-10.387-.546-10.949-.301-.561-1.323-1.341-2.272-1.734l-1.725-.715v-42.438H293.48v42.009h-12.236c-12.953 0-14.808.322-16.137 2.807-.392.73-.585 22.251-.585 64.994v63.902h-2.271c-1.25 0-2.272.255-2.272.567 0 .313-.383.568-.851.568-.747 0-.852-3.722-.852-30.087v-30.088h-14.195v39.675l-3.03-1.387c-5.971-2.732-14.202-2.354-19.315.887-3.75 2.378-4.342 4.19-4.342 13.28 0 6.446-.14 7.72-.843 7.72-.72 0-.864-2.198-.994-15.093l-.151-15.093-18.738-9.599c-10.305-5.279-18.982-9.599-19.281-9.601-.298-.002-7.612 3.346-16.251 7.439l-15.708 7.441-.344 4.622c-.189 2.542-.65 10.306-1.025 17.253l-.681 12.631h-41.25v-30.135l-4.389.166-4.388.165-14.775 16.017L63.8 416.037l-7.524.021-7.523.021v-19.302H36.83V381.45H12.414v-7.948h5.11v-10.218H-7.459v10.218h5.678v7.948h-14.071l-.372-10.928c-.204-6.01-1.513-59.063-2.907-117.895-1.394-58.831-2.596-107.024-2.67-107.094-.076-.069-2.501-.216-5.39-.325l-5.253-.199-.001 1.419c-.001.781-1.66 53.277-3.688 116.659-2.027 63.383-3.687 115.943-3.689 116.802-.002 1.485-.135 1.561-2.721 1.561-2.495 0-2.94.224-5.394 2.716l-2.676 2.716v22.385H-61.4v-10.219h5.678v-14.192H-90.36v14.192h4.542v10.219h-7.38v5.393c0 5.014-.08 5.393-1.136 5.393-1.122 0-1.136-.379-1.136-29.804v-29.803h10.22v-16.463h-15.33v-23.275h-3.407v23.275h-13.628v16.463h9.653v43.144h-26.119v-28.385h-4.994l-.335-7.521c-.184-4.138-1.238-59.764-2.342-123.614-1.103-63.85-2.154-118.965-2.334-122.478l-.327-6.387h-16.355l-.004 2.981c-.002 1.639-.894 58.542-1.983 126.452-1.088 67.909-1.981 125.068-1.983 127.019l-.005 3.548h-17.034v-17.598h-12.492v19.869h-19.305v-19.869h-16.467v19.869h-26.119v38.603h-19.874v34.061h-69.272v-42.577h-60.188v31.791h-33.501v44.847l18.312.033c36.736.066 199.139 2.029 199.523 2.411.216.217.252.535.08.708-.172.172-59.09 5.345-130.929 11.495-71.839 6.151-130.788 11.356-130.999 11.568-.212.212 17.207.277 38.707.143 21.5-.133 116.959-.352 212.131-.487l173.04-.245v18.086h17.034v-18.166h38.611v6.267c0 5.1.207 6.673 1.111 8.444 3.8 7.446 13.857 8.32 18.948 1.647 1.861-2.439 2.622-5.807 2.64-11.675l.014-4.683h35.094l.197 5.294c.172 4.643.389 5.584 1.759 7.653 3.94 5.947 12.14 6.713 17.243 1.611 2.75-2.749 3.616-5.316 3.62-10.726l.003-3.832 70.267.022 70.266.022 1.136 1.801c2.571 4.08 7.044 5.732 14.73 5.443 6.231-.234 9.862-1.75 12.162-5.077l1.499-2.168 19.163-.022 19.164-.021v6.812h36.907v-6.812h252.108c251.729 0 252.108.002 252.108 1.135s.379 1.136 149.334 1.136h149.332V408.131h-21.41l-.37-3.489c-.2-1.919-.36-10.222-.36-18.45v-14.96h-8.52v-17.031h-22.71v17.031h-25.55v-2.839c0-2.649.09-2.838 1.42-2.838 1.19 0 1.42-.265 1.42-1.703 0-1.438-.23-1.703-1.42-1.703h-1.42v-32.926h1.42c1.19 0 1.42-.265 1.42-1.703 0-1.444-.22-1.703-1.44-1.703h-1.44l.06-16.889c.04-10.007-.17-17.649-.52-18.753-.78-2.543-2.6-5.366-4.01-6.23-1.12-.681-1.17-1.222-1.17-11.779v-11.065h-3.48l.11-40.694.11-40.693-2.01-1.842c-1.1-1.013-2.99-2.114-4.19-2.447-1.39-.386-11-.608-26.46-.609l-24.27-.004v-23.275h6.814v-7.38h-6.814V91.09c0-47.108-.101-53.32-.899-55.315-1.707-4.265-1.773-4.28-20.993-4.494-15.498-.173-17.14-.102-17.866.772-.604.728-.855 3.557-1.028 11.605l-.229 10.64-5.753.356c-6.887.425-11.362 1.179-16.051 2.7-5.065 1.645-5.54 2.374-5.632 8.639-.042 2.869.147 5.6.42 6.068.273.469 1.082 2.385 1.798 4.258l1.301 3.406 7.625-.153c4.193-.085 9.221-.297 11.173-.471l3.549-.318v2.637c0 1.45-.288 3.175-.64 3.833-.513.958-.457 1.328.284 1.87 1.022.747 1.243 1.969.356 1.969-.313 0-.568.365-.568.811 0 .492-1.195 1.159-3.036 1.694-3.51 1.02-5.76 3.004-6.264 5.521-.194.972-.353 11.273-.353 22.893v21.127l-2.981.701c-1.639.385-5.281 1.512-8.091 2.503l-5.11 1.802-.29 6.812c-.253 5.946-.162 6.962.71 7.984.549.645.999 1.412.999 1.703-.001.313 3.043.455 7.381.345l7.382-.187v45.865l-7.381 2.435-7.382 2.435.018 6.893c.017 6.561.088 6.974 1.46 8.534l1.442 1.64 6.205-.295 6.206-.294v27.113h-33.93l-.239-5.003c-.277-5.786-1.452-8.083-4.743-9.273l-1.97-.712V118.611h7.381v-7.379h-7.381V58.164c0-47.646-.095-53.302-.923-55.37-1.483-3.708-1.993-3.816-19.523-4.138-8.586-.158-16.419-.168-17.407-.024Zm10.03 8.063-2.555.366-.159 7.2-.159 7.202 2.431.3c8.875 1.094 12.378 1.69 15.312 2.602l3.328 1.036-.156-8.846-.156-8.845-1.497-.4c-2.28-.609-13.501-1.03-16.389-.615Zm-21.009 17.482c-.781.117-2.505.354-3.833.525-2.237.288-2.413.436-2.413 2.024 0 1.565.136 1.687 1.561 1.409.859-.168 3.286-.474 5.395-.68 3.759-.366 3.832-.404 3.832-2.01 0-1.723-.534-1.873-4.542-1.268Zm6.246 1.334c0 1.135.284 1.703.852 1.703.567 0 .851-.568.851-1.703 0-1.135-.284-1.703-.851-1.703-.568 0-.852.568-.852 1.703Zm11.924-.132v1.702l4.4.386c2.42.212 4.848.515 5.395.672.788.227.993-.063.993-1.405 0-1.853.019-1.846-7.523-2.691l-3.265-.366v1.702Zm-31.387 1.241c-3.982 1.272-4.953 2.019-4.953 3.806 0 1.202.142 1.294 1.155.751.636-.34 3-1.085 5.253-1.655 3.677-.93 4.115-1.188 4.276-2.524.222-1.836-.929-1.912-5.731-.378Zm43.311.227c0 1.152.347 1.56 1.561 1.832 2.852.642 5.881 1.433 6.708 1.75.575.22.816-.106.816-1.105 0-1.124-.47-1.607-2.263-2.324-1.244-.498-3.288-1.069-4.542-1.27-2.172-.347-2.28-.294-2.28 1.117Zm-31.23 3.01c-5.401.829-5.11.667-5.11 2.847 0 1.973.052 2.022 1.774 1.677.976-.195 3.404-.355 5.395-.355h3.619v-2.27c0-2.26-.01-2.27-2.129-2.194-1.171.043-2.768.175-3.549.295Zm7.382 1.899c0 2.257.012 2.27 2.129 2.205 1.172-.037 1.683-.183 1.136-.326-.703-.184-.994-.83-.994-2.205 0-1.567-.221-1.945-1.136-1.945-.946 0-1.135.378-1.135 2.27Zm12.492 0v2.27l3.832.008c2.109.004 4.408.162 5.111.35 1.168.313 1.277.149 1.277-1.914v-2.256l-3.49-.365c-6.657-.695-6.73-.674-6.73 1.907Zm-29.81-.065c-4.206 1.223-7.098 2.704-7.098 3.638 0 .553 1.163.526 5.394-.125l5.394-.83v-1.878c0-1.032-.064-1.858-.142-1.836l-3.548 1.031Zm41.166.815v1.977l3.549.38c1.952.209 3.995.507 4.542.662.755.214.994-.058.994-1.13 0-1.187-.432-1.55-2.697-2.27-1.484-.472-3.528-1.023-4.543-1.226-1.799-.36-1.845-.32-1.845 1.607Zm81.623 6.945c-.234.242-.426 3.69-.426 7.66v7.22l3.832.377c5.516.541 13.123 1.977 15.302 2.888l1.875.783V40.81l-1.562-.623c-1.845-.738-18.403-1.378-19.021-.736Zm-95.251 9.302c0 1.543.256 2.962.568 3.155.917.567.659 2.555-.331 2.555-.517 0-.758.301-.568.71.182.39.486 1.148.676 1.684.19.536.893 1.13 1.562 1.322 3.484.996 3.204 1.492 3.204-5.665v-6.566h-5.111v2.805Zm8.518 4.575v6.244h3.974V47.083h-3.974v6.245Zm7.381 0v6.244h5.11V47.083h-5.11v6.245Zm58.768 3.788c-3.82.477-4.258.716-4.259 2.325v1.55l5.395-.532 5.394-.53V58.33c0-1.514-.126-1.593-2.413-1.512-1.327.046-3.18.18-4.117.297Zm8.234 1.32c0 1.136.284 1.704.851 1.704.568 0 .852-.568.852-1.703 0-1.136-.284-1.703-.852-1.703-.567 0-.851.567-.851 1.703Zm11.924-.179v1.671l5.394.532 5.395.531v-1.5c-.001-1.84-.391-1.997-6.175-2.501l-4.614-.403v1.67Zm-29.24.492c-5.392 1.477-7.1 2.519-7.1 4.33 0 1.613.019 1.622 1.624.792.894-.462 3.322-1.266 5.395-1.787 3.555-.893 3.769-1.04 3.769-2.581 0-1.839.153-1.808-3.688-.755Zm41.164.802c0 1.442.271 1.629 3.549 2.447 1.952.487 4.016 1.07 4.588 1.295.877.346 1.009.163.851-1.176-.196-1.657-1.758-2.487-6.859-3.644-2.061-.468-2.129-.434-2.129 1.078Zm-97.056 4.133c.29 1.013.528 4.59.528 7.948 0 5.727.07 6.106 1.136 6.106 1.081 0 1.135-.379 1.135-7.948v-7.947h-1.663c-1.607 0-1.646.063-1.136 1.84Zm6.206 6.106v7.948h5.11V61.843h-5.11v7.947Zm67.002-5.446c0 2.222.126 2.469 1.135 2.205.89-.233 1.136-.774 1.136-2.502 0-1.825-.195-2.204-1.136-2.204-.963 0-1.135.379-1.135 2.501Zm-9.937-1.427c-2.062.313-2.288.515-2.449 2.19l-.178 1.845h10.86v-4.541l-2.981.08c-1.639.044-4.003.236-5.252.426Zm21.861 1.764v2.271h10.788v-1.91c0-1.841-.094-1.922-2.634-2.27-1.449-.199-3.876-.361-5.395-.361h-2.759v2.27Zm-29.396-.255c-4.393 1.182-7.698 3.097-6.834 3.96.123.123 2.576-.073 5.45-.436l5.228-.66v-1.872c0-2.117.172-2.073-3.844-.992Zm41.32.955v1.934l4.568.541 4.567.541-.167-1.379c-.18-1.488-2.099-2.412-6.583-3.169l-2.385-.403v1.935Zm-13.434 17.75c.225 2.667.15 4.258-.201 4.258-1.763 0 .958 3.27 3.274 3.933l1.844.529V78.874h-5.277l.36 4.257Zm-83.094 1.987c0 5.298.076 5.677 1.136 5.677 1.06 0 1.135-.379 1.135-5.677s-.075-5.677-1.135-5.677-1.136.379-1.136 5.677Zm5.678 0v5.677h5.11V79.44h-5.11v5.677Zm85.739 1.135v6.245h3.975V80.009h-3.975v6.244Zm7.382 0v6.245h5.11V80.009h-5.11v6.244Zm-529.199-3.965c-19.001.796-26.549 1.258-27.214 1.67-.515.318-.765 10.107-1.02 39.961l-.338 39.54 1.652-.009c2.861-.015 3.022-.402 3.194-7.637l.162-6.75 1.703-.487c.937-.268 5.36-.319 9.828-.112 10.154.469 9.948.275 10.248 9.718l.204 6.412h5.556v-26.121c0-17.666.198-26.44.611-27.107.689-1.112-.161-4.108-1.165-4.108-.348 0-.582-1.791-.582-4.454 0-3.667.192-4.627 1.088-5.438 1.474-1.333 7.189-3.05 11.687-3.511l3.691-.378V81.712l-4.968.092c-2.732.051-9.184.269-14.337.484Zm430.4 16.17c0 5.015.079 5.394 1.136 5.394 1.056 0 1.135-.379 1.135-5.393 0-5.015-.079-5.393-1.135-5.393-1.057 0-1.136.378-1.136 5.393Zm5.678 0v5.394h5.11V93.066h-5.11v5.393Zm86.628-3.263c.243.546.552 4.122.687 7.947.224 6.364.336 6.954 1.322 6.954 1.006 0 1.077-.522 1.077-7.947v-7.948h-1.764c-1.47 0-1.69.166-1.322.994Zm6.493 6.954v7.947h5.11V94.201h-5.11v7.948Zm-514.862-6.402c-1.484.184-1.845.486-1.845 1.543 0 1.224.182 1.296 2.697 1.054 3.719-.357 4.116-.536 4.116-1.855 0-1.203-.569-1.288-4.968-.742Zm12.35.725c0 .624.255 1.135.568 1.135.312 0 .568-.51.568-1.135s-.256-1.136-.568-1.136c-.313 0-.568.511-.568 1.136Zm2.271.017c0 1.32.397 1.498 4.117 1.855 2.492.24 2.697.162 2.697-1.013 0-1.084-.391-1.327-2.635-1.634-3.872-.53-4.179-.472-4.179.792Zm-19.877.513c-2.699.82-5.106 2.34-5.106 3.222 0 .487.318.751.709.587.391-.164 2.051-.714 3.691-1.223 2.246-.698 2.981-1.196 2.981-2.021 0-1.184-.132-1.217-2.275-.565Zm27.827.478c0 .863.706 1.362 2.981 2.103 1.639.534 3.325 1.254 3.745 1.599.609.501.724.347.568-.764-.201-1.421-2.503-2.903-5.733-3.69-1.308-.318-1.561-.196-1.561.752Zm-23.423 2.789c-.602.157-.993.803-.993 1.637 0 1.306.179 1.378 3.407 1.378h3.406v-1.703c0-1.636-.096-1.7-2.413-1.637-1.327.036-2.86.183-3.407.325Zm13.202 1.312c0 .937.255 1.703.568 1.703.312 0 .568-.766.568-1.703s-.256-1.703-.568-1.703c-.313 0-.568.766-.568 1.703Zm2.271 0v1.703h3.407c3.205 0 3.407-.079 3.407-1.345 0-1.113-.367-1.405-2.129-1.697-4.144-.684-4.685-.53-4.685 1.339Zm-20.157-.345c-3.146.989-4.826 1.962-4.826 2.791 0 .544.834.578 3.69.147 3.53-.531 3.691-.625 3.691-2.142 0-.873-.064-1.569-.142-1.548-.078.021-1.164.359-2.413.752Zm28.107 1.018c0 1.243.326 1.413 3.695 1.921 2.513.379 3.639.371 3.518-.025-.211-.692-3.455-2.345-5.652-2.88-1.376-.335-1.561-.218-1.561.984Zm393.492 6.423c0 2.176.168 2.555 1.136 2.555.967 0 1.135-.379 1.135-2.555s-.168-2.555-1.135-2.555c-.968 0-1.136.379-1.136 2.555Zm5.678 0v2.555h5.11v-5.11h-5.11v2.555Zm-38.753 2.378c-.671.175-.994.819-.994 1.982 0 1.337.201 1.645.899 1.378.494-.19 1.26-.345 1.703-.345.516 0 .805-.611.805-1.703 0-1.688-.316-1.86-2.413-1.312Zm-8.375 2.678c-3.187 1.103-3.715 1.485-3.87 2.795-.099.833.027 1.516.281 1.516s2.443-.66 4.865-1.466c3.873-1.29 4.402-1.631 4.402-2.838 0-1.703-.774-1.705-5.678-.007Zm134.571 4.311c0 5.298.075 5.677 1.135 5.677 1.061 0 1.136-.379 1.136-5.677s-.075-5.677-1.136-5.677c-1.06 0-1.135.379-1.135 5.677Zm5.678 0v5.677h5.11v-11.354h-5.11v5.677Zm-511.597-.284c0 4.227.124 4.825.999 4.825 1.205 0 2.784-2.255 1.943-2.775-.364-.224-.392-1.271-.077-2.904.74-3.836.7-3.971-1.162-3.971h-1.703v4.825Zm-11.356.851v5.11h3.407v-10.219h-3.407v5.109Zm6.246 0c0 4.731.084 5.11 1.135 5.11 1.052 0 1.136-.379 1.136-5.11 0-4.73-.084-5.109-1.136-5.109-1.051 0-1.135.379-1.135 5.109Zm385.401-2.135c-.984.333-1.562.933-1.562 1.626 0 .911.267 1.035 1.562.724 1.976-.474 1.974-.471 1.749-1.781-.159-.93-.424-1.015-1.749-.569Zm-8.517 2.507c-2.821.892-4.401 1.686-4.401 2.213 0 1.078.393 1.047 5.406-.427 3.248-.956 4.247-1.49 4.247-2.271 0-1.225.222-1.246-5.252.485Zm41.024 8.405v8.778l2.413.649c1.328.358 3.946 1.131 5.82 1.718 1.874.588 3.599 1.072 3.833 1.075.234.004.426-4.718.426-10.494v-10.503h-12.492v8.777Zm-33.075-6.682c-1.707.446-1.166 1.879.71 1.879 1.325 0 1.703-.252 1.703-1.135 0-1.118-.45-1.257-2.413-.744Zm-5.82 1.611c-1.799.593-1.976.756-.852.784 1.937.05 3.975-.541 3.975-1.15 0-.611-.246-.582-3.123.366Zm-5.11 1.707c-1.42.684-1.468.763-.284.474 1.609-.393 3.417-1.315 2.555-1.302-.312.005-1.334.377-2.271.828Zm-380.149 7.644v6.245h3.407v-12.489h-3.407v6.244Zm6.246 0c0 3.785.223 6.245.567 6.245.335 0 .572-2.039.576-4.967.004-2.732.162-5.542.35-6.245.252-.939.099-1.277-.575-1.277-.79 0-.918.872-.918 6.244Zm511.029-.567c0 5.298.075 5.676 1.135 5.676 1.061 0 1.136-.378 1.136-5.676 0-5.299-.075-5.677-1.136-5.677-1.06 0-1.135.378-1.135 5.677Zm5.678 0v5.676h5.11v-11.353h-5.11v5.677Zm-98.799 9.016c0 1.218.327 1.725 1.278 1.98 2.195.588 2.697.4 2.697-1.006 0-1.019-.452-1.522-1.788-1.987-2.322-.809-2.187-.872-2.187 1.013Zm93.121 1.486c0 2.176.168 2.554 1.135 2.554.968 0 1.136-.378 1.136-2.554 0-2.176-.168-2.555-1.136-2.555-.967 0-1.135.379-1.135 2.555Zm5.678 0v2.554h5.11v-5.109h-5.11v2.555Zm-522.953 2.271v4.257h3.407v-8.515h-3.407v4.258Zm6.246 0c0 2.459.239 4.257.567 4.257.329 0 .568-1.798.568-4.257 0-2.46-.239-4.258-.568-4.258-.328 0-.567 1.798-.567 4.258Zm423.586-2.166c0 1.456.278 1.72 2.413 2.293 1.328.356 2.86.819 3.407 1.03.806.311.994.072.994-1.263 0-1.456-.278-1.72-2.413-2.293-1.328-.356-2.86-.819-3.407-1.03-.806-.311-.994-.072-.994 1.263Zm54.084 2.257c-.39.158-.71 1.01-.71 1.894 0 1.475.129 1.572 1.562 1.192 1.138-.302 1.61-.827 1.741-1.938.18-1.527-.693-1.914-2.593-1.148Zm-59.762 1.195c0 .698.493 1.268 1.278 1.478 2.133.571 2.697.409 2.697-.778 0-.624-.319-1.138-.71-1.143-.39-.004-1.284-.162-1.987-.35-1.013-.271-1.278-.107-1.278.793Zm52.38 1.109c-4.47 1.413-4.684 1.557-4.684 3.151 0 1.102.242 1.579.71 1.402.39-.148 2.562-.865 4.826-1.592 3.817-1.226 4.117-1.438 4.117-2.914 0-.875-.064-1.577-.142-1.56-.078.017-2.25.698-4.827 1.513Zm-46.601.523c.107.544 1.245 1.249 2.738 1.695 3.277.978 3.975.969 3.975-.05 0-.509-1.139-1.168-2.943-1.703-3.686-1.094-3.997-1.09-3.77.058Zm-5.779 2.403c0 .597.404 1.24.898 1.43 1.573.603 3.077.372 3.077-.473 0-.955-.305-1.165-2.414-1.669-1.288-.308-1.561-.184-1.561.712Zm60.33.089c-.712.286-1.278 1.003-1.278 1.618 0 .927.251 1.038 1.562.69 1.002-.266 1.626-.859 1.743-1.654.196-1.345-.083-1.435-2.027-.654Zm-484.484 5.092v4.541h3.407v-9.083h-3.407v4.542Zm6.246 0c0 2.649.236 4.541.567 4.541.332 0 .568-1.892.568-4.541 0-2.65-.236-4.542-.568-4.542-.331 0-.567 1.892-.567 4.542Zm181.699.218v4.76l3.192.399c1.755.219 4.183.748 5.394 1.175l2.202.777v-5.382c0-5.255-.034-5.395-1.456-5.935-.801-.305-3.229-.554-5.394-.554h-3.938v4.76Zm241.887-4.192c0 .312.959.549 2.129.528 1.708-.033 1.905-.137.994-.528-1.578-.678-3.123-.678-3.123 0Zm46.277 1.414c-2.598.85-4.042 1.635-4.169 2.266-.117.586.105.886.568.765 7.913-2.065 8.995-2.479 8.995-3.435 0-1.25-.44-1.217-5.394.404Zm41.166 8.39v8.67l5.252 1.619c2.889.891 5.699 1.745 6.246 1.899.921.259.994-.495.994-10.288v-10.569h-12.492v8.669Zm-33.359-6.59c-1.429.577-.738 1.895.994 1.895 1.324 0 1.703-.252 1.703-1.135 0-1.11-1.076-1.413-2.697-.76Zm-508.332 5.017v4.826h1.868c1.027 0 3.339.383 5.138.851 1.798.469 3.385.852 3.526.852.141 0 .256-2.4.256-5.333 0-6.242.231-6.021-6.292-6.021h-4.496v4.825Zm501.205-3.12c-4.363 1.37-5.145 1.684-4.872 1.957.126.126 1.632-.255 3.346-.846 1.714-.592 3.82-1.084 4.678-1.094.859-.01 1.562-.274 1.562-.587 0-.755-.799-.659-4.714.57Zm-389.536 2.08c-.208.208-.378 2.343-.378 4.744v4.366l3.359.351c1.847.193 4.402.711 5.678 1.15l2.319.799v-5.307c0-4.665-.133-5.378-1.098-5.894-1.206-.645-9.273-.816-9.88-.209Zm336.706 26.821c-.205 14.492-.373 33.46-.373 42.151v15.802h13.06V158.42l-6.157-.177-6.156-.177-.374 26.348Zm-423.959-21.807c0 1.829.135 1.987 1.703 1.987s1.704-.158 1.704-1.987c0-1.829-.136-1.987-1.704-1.987s-1.703.158-1.703 1.987Zm6.246 0c0 1.093.255 1.987.567 1.987.313 0 .568-.894.568-1.987s-.255-1.987-.568-1.987c-.312 0-.567.894-.567 1.987Zm169.633-1.028c-1.332.348-1.274 1.88.071 1.88 2.298 0 4.613-.749 4.613-1.491 0-.771-2.443-.974-4.684-.389Zm5.252.46c0 .469.256.852.568.852.312 0 .568-.383.568-.852 0-.468-.256-.851-.568-.851-.312 0-.568.383-.568.851Zm6.814-.071c0 .742 2.315 1.491 4.613 1.491 1.498 0 1.331-1.5-.213-1.913-2.265-.607-4.4-.402-4.4.422Zm6.246.798c0 .717.683 1.208 2.271 1.632 1.834.49 2.271.457 2.271-.167 0-.425-.096-.772-.214-.772s-1.14-.387-2.272-.859c-1.922-.804-2.056-.792-2.056.166Zm-23.99.45c-.859.466-1.562 1.19-1.562 1.61 0 .616.493.585 2.556-.156 1.405-.505 2.555-1.24 2.555-1.633 0-.949-1.62-.868-3.549.179Zm-141.702 2.126c.096.675.622 1.313 1.169 1.417 1.464.278 1.296-1.953-.176-2.338-.945-.248-1.135-.071-.993.921Zm-61.858-.347c-1.765.339-1.649 1.87.142 1.87 1.041 0 1.419-.303 1.419-1.136 0-.624-.063-1.1-.142-1.058-.078.043-.717.188-1.419.324Zm2.129.734c0 .625.256 1.136.568 1.136.312 0 .568-.511.568-1.136 0-.624-.256-1.135-.568-1.135-.312 0-.568.511-.568 1.135Zm6.814.104c0 .762.434 1.032 1.657 1.032.911 0 2.087.165 2.613.366.72.277.904.102.748-.709-.151-.787-.853-1.163-2.612-1.398-2.065-.277-2.406-.176-2.406.709ZM617.558 165c-1.084.165-1.562.573-1.562 1.335 0 .939.411 1.097 2.839 1.097 2.65 0 2.839-.094 2.839-1.419 0-1.485-.379-1.578-4.116-1.013Zm4.684 1.013c0 .781.256 1.419.568 1.419.312 0 .568-.638.568-1.419 0-.78-.256-1.419-.568-1.419-.312 0-.568.639-.568 1.419Zm6.814 0c0 1.325.189 1.419 2.839 1.419 2.397 0 2.839-.165 2.839-1.064 0-.738-.544-1.173-1.774-1.419-3.238-.647-3.904-.466-3.904 1.064Zm-156.044.349c.128.841 1.123 1.564 3.445 2.506l3.265 1.325v-1.268c0-1.034-.63-1.493-3.445-2.505l-3.446-1.24.181 1.182Zm162.394.094c.145 1.014.607 1.295 2.369 1.44 2.815.231 2.571-.929-.413-1.962-2.064-.714-2.129-.697-1.956.522Zm-212.365.179c.101.499 1.142 1.235 2.313 1.636 1.81.621 2.129.608 2.129-.083 0-.447-.886-1.184-1.969-1.636-2.48-1.036-2.698-1.029-2.473.083Zm188.555.085c-1.848.92-2.638 2.273-.947 1.625.494-.19 1.643-.345 2.555-.345 1.278 0 1.657-.259 1.657-1.135 0-1.349-.776-1.384-3.265-.145Zm-93.826 1.848c-1.831.204-2.603.562-2.738 1.272-.164.866.149.944 2.55.63 3.156-.414 3.186-.428 2.93-1.432-.138-.542-.909-.674-2.742-.47Zm4.059.568c0 .78.129 1.1.287.709.158-.39.158-1.029 0-1.419-.158-.39-.287-.071-.287.71Zm6.157.115c0 .732.44 1.022 1.561 1.028.859.004 2.162.168 2.897.365 1.094.293 1.297.163 1.128-.718-.156-.817-.85-1.149-2.895-1.384-2.326-.268-2.691-.172-2.691.709Zm-121.512.797c0 1.116.221 1.395.899 1.135.494-.189 1.132-.344 1.419-.344.287 0 .521-.511.521-1.136 0-.833-.378-1.135-1.419-1.135-1.151 0-1.42.28-1.42 1.48Zm3.407-.345c0 .625.256 1.136.568 1.136.312 0 .568-.511.568-1.136 0-.624-.256-1.135-.568-1.135-.312 0-.568.511-.568 1.135Zm6.814-.099c0 1.131 1.401 1.78 3.872 1.794 1.043.007 1.28-.258 1.136-1.269-.151-1.062-.589-1.307-2.595-1.452-2.07-.149-2.413-.018-2.413.927Zm52.806-.293c0 .455.526.965 1.169 1.133.871.228 1.122.066.987-.637-.229-1.188-2.156-1.63-2.156-.496Zm-46.56.889c0 .95 1.88 1.774 4.045 1.774 1.238 0 .309-1.272-1.472-2.016-2.499-1.044-2.573-1.037-2.573.242Zm88.862-.376c-2.222.782-3.123 1.524-3.123 2.573 0 .615.197.689.71.266.391-.323 1.603-.817 2.696-1.099 1.134-.293 2.066-.924 2.171-1.471.209-1.082-.057-1.112-2.454-.269Zm23.1.265c.099.506 1.156 1.258 2.348 1.67 1.939.671 2.149.653 1.988-.171-.1-.506-1.157-1.258-2.349-1.67-1.938-.671-2.149-.652-1.987.171Zm-61.867.281c.244.732 6.134 2.912 6.602 2.444.505-.504-.672-1.225-3.566-2.184-3.339-1.106-3.318-1.104-3.036-.26Zm-39.875 25.163v25.262h1.704c1.608 0 1.703.126 1.703 2.271 0 2.144-.095 2.27-1.703 2.27h-1.704v183.931h9.653V374.72l1.496-1.176c.823-.647 2.228-1.177 3.123-1.177h1.627v-74.731l-4.82.253c-4.533.238-4.887.172-5.943-1.095-.944-1.133-1.126-2.219-1.142-6.808l-.019-5.46 5.388-2.062c2.963-1.135 5.688-2.062 6.055-2.062.505 0 .575-5.664.29-23.417-.206-12.879-.376-30.57-.376-39.312l-.001-15.896-4.83.201c-4.501.187-4.905.109-5.943-1.136-.932-1.118-1.116-2.223-1.132-6.789l-.019-5.454 4.685-1.755c2.576-.965 5.259-1.912 5.962-2.106 1.237-.34 1.277-.573 1.277-7.409v-7.058h-15.331v25.262Zm525.225-22.424c0 1.568.158 1.703 1.987 1.703 1.617 0 1.988-.214 1.988-1.149 0-.712-.555-1.36-1.457-1.703-2.209-.84-2.518-.699-2.518 1.149Zm-488.885-.325c0 .526.486.893 1.183.893 1.384 0 1.188-1.327-.236-1.603-.561-.109-.947.181-.947.71Zm46.419-.419c-.547.143-.994.752-.994 1.353 0 .817.396 1.093 1.562 1.086 2.675-.013 4.116-.63 4.116-1.761 0-.841-.393-1.055-1.845-1.003-1.015.036-2.292.183-2.839.325Zm5.82.711c0 .642.255 1.169.568 1.169.312 0 .567-.368.567-.818 0-.451-.255-.976-.567-1.169-.313-.193-.568.175-.568.818Zm6.814-.027c0 1.224 1.057 1.763 3.453 1.763 1.247 0 1.657-.265 1.657-1.074 0-1.224-1.058-1.764-3.454-1.764-1.247 0-1.656.266-1.656 1.075Zm-55.646.114c0 .282.511.514 1.136.514.624 0 1.135-.098 1.135-.217 0-.12-.511-.352-1.135-.515-.625-.163-1.136-.066-1.136.218Zm40.315-.224c-2.21.799-4.543 2.044-4.543 2.424 0 .232 1.278.169 2.839-.14 2.193-.433 2.839-.802 2.839-1.622 0-.583-.063-1.039-.142-1.015-.078.025-.525.184-.993.353Zm21.576.752c0 .776.554 1.174 2.015 1.448 3.502.657 3.332-.985-.207-2-1.575-.451-1.808-.381-1.808.552Zm429.265.27c0 .643.659.841 2.697.808l2.697-.043-1.987-.765c-2.648-1.02-3.407-1.02-3.407 0Zm-335.948 4.849c.216 3.228.84 4.482 2.244 4.509.248.005.375-1.716.283-3.823-.153-3.5-.28-3.848-1.465-4.016-1.252-.178-1.289-.062-1.062 3.33Zm4.347 1.112c0 3.154.176 3.973.852 3.973.675 0 .851-.819.851-3.973 0-3.155-.176-3.974-.851-3.974-.676 0-.852.819-.852 3.974Zm3.974 0c0 3.86.041 3.973 1.42 3.973s1.42-.113 1.42-3.973c0-3.861-.041-3.974-1.42-3.974s-1.42.113-1.42 3.974Zm197.409-1.325c-.743.743-.386 3.028.473 3.028.568 0 .852-.568.852-1.703 0-1.628-.511-2.139-1.325-1.325Zm-418.064 4.021c.153 2.107.293 3.896.312 3.974.018.078.416.142.885.142.676 0 .852-.82.852-3.974 0-3.626-.102-3.974-1.163-3.974-1.084 0-1.144.258-.886 3.832Zm-9.308.748c0 3.899.037 4.001 1.278 3.619 1.771-.544 1.716-.425 1.973-4.22l.231-3.411h-3.482v4.012Zm419.754-2.469c-4.452 1.408-4.684 1.564-4.684 3.13 0 1.841-.54 1.874 6.151-.376 3.287-1.106 3.809-1.472 3.965-2.785.215-1.814.408-1.815-5.432.031Zm-406.126 2.714c0 2.902.182 3.69.851 3.69.67 0 .852-.788.852-3.69 0-2.901-.182-3.689-.852-3.689-.669 0-.851.788-.851 3.689Zm3.974 0c0 3.558.052 3.69 1.42 3.69 1.368 0 1.419-.132 1.419-3.69 0-3.557-.051-3.689-1.419-3.689s-1.42.132-1.42 3.689Zm103.119 1.999c.188 3.778.466 4.53 1.676 4.53.634 0 .818-.893.818-3.974 0-3.79-.061-3.974-1.332-3.974-1.268 0-1.324.163-1.162 3.418Zm4.765 1.408c0 2.901.183 3.69.852 3.69.67 0 .852-.789.852-3.69 0-2.902-.182-3.69-.852-3.69-.669 0-.852.788-.852 3.69Zm3.975 0c0 3.311.116 3.69 1.136 3.69 1.019 0 1.135-.379 1.135-3.69 0-3.312-.116-3.69-1.135-3.69-1.02 0-1.136.378-1.136 3.69Zm297.533-1.987c0 .63.378 1.135.851 1.135s.852-.505.852-1.135c0-.631-.379-1.136-.852-1.136s-.851.505-.851 1.136Zm-200.017 4.683c.325 6.535.618 6.783.67.568.025-2.888-.168-5.251-.429-5.251-.26 0-.369 2.107-.241 4.683Zm2.986.426c0 5.071.011 5.109 1.42 5.109s1.42-.038 1.42-5.109-.011-5.109-1.42-5.109-1.42.038-1.42 5.109Zm189.365-3.695c-2.472.809-4.044 1.646-4.158 2.214-.236 1.171-.271 1.175 5.353-.541 3.097-.944 4.767-1.74 4.767-2.27 0-1.083-1.196-.963-5.962.597Zm-378.587.112c-1.415.37-1.294 2.448.142 2.448.833 0 1.135-.379 1.135-1.42 0-.78-.063-1.389-.142-1.353-.078.036-.588.183-1.135.325Zm-6.53 2.356c-1.828.688-2.413 1.209-2.413 2.151v1.242l3.122-1.225c2.126-.834 3.122-1.542 3.123-2.218.001-1.173-.601-1.165-3.832.05Zm393.161-.665c-.691.691-.391 1.892.473 1.892.473 0 .852-.505.852-1.135 0-1.131-.605-1.477-1.325-.757Zm-412.763 5.156c.34 6.174.625 6.412.677.568.025-2.732-.172-4.967-.437-4.967-.266 0-.373 1.98-.24 4.399Zm2.993.426c0 4.768.017 4.825 1.42 4.825s1.419-.057 1.419-4.825c0-4.769-.016-4.825-1.419-4.825s-1.42.056-1.42 4.825Zm404.565-4.258c-.911.391-.714.496.994.528 1.171.022 2.129-.216 2.129-.528 0-.678-1.545-.678-3.123 0Zm-3.691.978a747.1 747.1 0 0 1-2.208.823c-.745.276-1.242.616-1.102.756.14.14 1.517-.238 3.06-.841 1.543-.602 2.422-1.087 1.954-1.077-.469.01-1.235.163-1.704.339Zm-378.019.533c-.39.158-.71.676-.71 1.152 0 .555.321.742.898.52.494-.189 1.005-.344 1.136-.344s.237-.384.237-.852c0-.875-.326-.974-1.561-.476Zm-5.678 1.965c-1.64.63-2.981 1.382-2.981 1.673 0 .724.516.67 3.589-.377 1.475-.502 2.657-1.26 2.657-1.703 0-.439-.064-.785-.142-.769-.079.017-1.483.545-3.123 1.176Zm91.175 4.187c.101 2.654.42 4.826.709 4.826.29 0 .527-2.171.527-4.825 0-3.481-.198-4.826-.71-4.827-.526-.001-.663 1.244-.526 4.826Zm3.507.001c0 4.447.089 4.825 1.136 4.825 1.046 0 1.135-.378 1.135-4.825s-.089-4.825-1.135-4.825c-1.047 0-1.136.378-1.136 4.825Zm434.631 15.044c0 11.084.076 15.618.169 10.076a727.89 727.89 0 0 0 0-20.153c-.093-5.542-.169-1.007-.169 10.077Zm9.964 1.598v21.467l1.993.949c2.916 1.391 6.865 5.244 8.2 8.001 1.099 2.271 1.164 3.417 1.164 20.675v18.27h3.974v5.677h-3.974v29.52h1.419c1.304 0 1.42.208 1.42 2.554 0 2.347-.116 2.555-1.42 2.555h-1.419v38.035h1.703c1.665 0 1.704.063 1.704 2.838 0 2.776-.039 2.839-1.704 2.839h-1.703v40.873h17.603v-3.406c0-1.892-.25-3.406-.57-3.406-.31 0-.57-.766-.57-1.703s.26-1.703.57-1.703c.37 0 .57-5.772.57-16.179 0-15.801-.03-16.179-1.14-16.179-.88 0-1.13-.379-1.13-1.703 0-1.325.25-1.703 1.13-1.703 1.11 0 1.14-.379 1.14-16.463 0-16.085-.03-16.463-1.14-16.463-.88 0-1.13-.379-1.13-1.703 0-1.325.25-1.703 1.13-1.703 1.1 0 1.14-.379 1.14-12.489v-12.489h-1.99c-1.83 0-1.99-.136-1.99-1.704 0-1.567.16-1.703 1.99-1.703h1.99v-3.51c0-4.239 1.52-7.768 4.32-9.999l1.92-1.534v-21.288h4.55v-68.69h-39.75v21.467ZM446.6 194.492c-.72.72-.374 1.325.757 1.325.63 0 1.135-.379 1.135-.852 0-.864-1.201-1.164-1.892-.473Zm187.185 5.582c.002 2.186.105 3.01.228 1.833.123-1.178.121-2.966-.005-3.974-.125-1.008-.226-.044-.223 2.141Zm2.652 0c0 3.558.052 3.69 1.42 3.69 1.368 0 1.42-.132 1.42-3.69 0-3.557-.052-3.69-1.42-3.69-1.368 0-1.42.133-1.42 3.69Zm-215.013 3.974c.002 2.186.105 3.01.228 1.833.123-1.178.121-2.966-.005-3.974-.125-1.008-.226-.044-.223 2.141Zm2.652 0c0 3.558.052 3.69 1.42 3.69 1.368 0 1.419-.132 1.419-3.69s-.051-3.69-1.419-3.69-1.42.132-1.42 3.69Zm108.452 3.406c0 2.082.248 3.69.568 3.69.32 0 .568-1.608.568-3.69 0-2.081-.248-3.69-.568-3.69-.32 0-.568 1.609-.568 3.69Zm3.407 0c0 3.312.116 3.69 1.136 3.69 1.019 0 1.135-.378 1.135-3.69 0-3.311-.116-3.69-1.135-3.69-1.02 0-1.136.379-1.136 3.69Zm97.845 1.42c0 2.029.103 2.86.229 1.844.126-1.015.126-2.674 0-3.689-.126-1.015-.229-.185-.229 1.845Zm2.657 0c0 3.254.063 3.406 1.42 3.406 1.356 0 1.42-.152 1.42-3.406 0-3.255-.064-3.407-1.42-3.407-1.357 0-1.42.152-1.42 3.407Zm-215.018 3.406c0 2.029.103 2.86.229 1.845s.126-2.675 0-3.69c-.126-1.015-.229-.185-.229 1.845Zm2.657 0c0 3.254.063 3.406 1.42 3.406 1.356 0 1.419-.152 1.419-3.406 0-3.255-.063-3.406-1.419-3.406-1.357 0-1.42.151-1.42 3.406Zm502.323-.757c-.743.743-.386 3.027.473 3.027.568 0 .852-.567.852-1.703 0-1.627-.511-2.138-1.325-1.324Zm-393.871 4.163c0 1.892.252 3.406.568 3.406.316 0 .568-1.514.568-3.406 0-1.892-.252-3.406-.568-3.406-.316 0-.568 1.514-.568 3.406Zm3.407 0c0 3.027.126 3.406 1.136 3.406 1.009 0 1.135-.379 1.135-3.406 0-3.028-.126-3.406-1.135-3.406-1.01 0-1.136.378-1.136 3.406Zm383.13-1.923c-4.157 1.312-4.401 1.48-4.401 3.035v1.646l5.111-1.714c4.548-1.525 5.11-1.864 5.11-3.082 0-1.651-.241-1.647-5.82.115Zm-285.335 1.355c0 1.093.117 1.54.26.993.143-.546.143-1.44 0-1.986-.143-.547-.26-.1-.26.993Zm2.707 0c0 1.438.221 1.703 1.42 1.703 1.199 0 1.42-.265 1.42-1.703 0-1.438-.221-1.703-1.42-1.703-1.199 0-1.42.265-1.42 1.703Zm-21.009 2.555c0 .468.384.851.852.851a.854.854 0 0 0 .852-.851.854.854 0 0 0-.852-.852.855.855 0 0 0-.852.852Zm310.593.242c0 .812.364 1.177 1.177 1.177 1.455 0 1.29-1.879-.19-2.164-.681-.131-.987.175-.987.987Zm-504.652 1.177c0 1.093.117 1.539.26.993.143-.546.143-1.44 0-1.987-.143-.546-.26-.099-.26.994Zm2.707 0c0 1.438.221 1.703 1.42 1.703 1.199 0 1.419-.265 1.419-1.703 0-1.438-.22-1.703-1.419-1.703s-1.42.265-1.42 1.703Zm187.52-.693c-1.328.51-2.413 1.258-2.413 1.662 0 .947.54.925 3.053-.125 1.131-.473 2.057-1.239 2.057-1.703 0-.464-.064-.825-.142-.802-.078.022-1.228.459-2.555.968Zm308.182.6c-3.499 1.133-4.879 1.85-5.026 2.613-.151.784.039.959.745.688.521-.2 2.847-.915 5.168-1.59 3.281-.953 4.22-1.459 4.22-2.273 0-.576-.064-1.037-.142-1.024-.078.013-2.313.727-4.965 1.586Zm-450.277.093c0 .624.256 1.135.568 1.135.312 0 .568-.511.568-1.135 0-.625-.256-1.136-.568-1.136-.312 0-.568.511-.568 1.136Zm2.272.605c0 1.108 1.39 1.962 4.968 3.055 1.038.317 1.277.171 1.277-.784 0-.645-.118-1.173-.262-1.173-.145 0-1.551-.507-3.123-1.127l-2.86-1.127v1.156Zm143.655 1.098c0 .312.384.568.852.568.469 0 .852-.256.852-.568 0-.312-.383-.568-.852-.568-.468 0-.852.256-.852.568Zm-82.9 1.703c0 .937.256 1.703.568 1.703.312 0 .568-.766.568-1.703s-.256-1.703-.568-1.703c-.312 0-.568.766-.568 1.703Zm3.407 0c0 1.324.252 1.703 1.136 1.703.883 0 1.135-.379 1.135-1.703s-.252-1.703-1.135-1.703c-.884 0-1.136.379-1.136 1.703Zm75.661-.659c-2.47.929-3.443 2.192-1.136 1.473 2.859-.891 3.833-1.382 3.833-1.935 0-.32-.064-.551-.142-.514-.078.037-1.228.477-2.555.976Zm314.425-.193c0 .473.504.852 1.135.852s1.136-.379 1.136-.852c0-.472-.505-.851-1.136-.851-.631 0-1.135.379-1.135.851Zm-292.3 5.438.161 5.722 2.981 1.048 2.981 1.048v-13.539h-6.285l.162 5.721Zm288.609-4.886-2.271.748 2.413.06c1.793.044 2.413-.159 2.413-.792 0-.468-.064-.832-.142-.808-.078.024-1.164.381-2.413.792Zm-452.829.834c0 .294.256.692.568.885.312.193.568-.048.568-.534 0-.487-.256-.885-.568-.885-.312 0-.568.24-.568.534Zm146.637-.158c-.988.399-.889 1.327.142 1.327a.854.854 0 0 0 .852-.852c0-.468-.064-.831-.142-.806a24.17 24.17 0 0 0-.852.331Zm-144.365.915c0 .445 1.034 1.11 2.33 1.498 1.281.384 2.687.835 3.123 1.002 1.722.661.671-.988-1.102-1.729-3.548-1.482-4.351-1.624-4.351-.771Zm444.737-.015c-1.015.325-1.846.797-1.846 1.048s.831.119 1.846-.292c1.015-.412 2.229-.89 2.697-1.062 1.628-.598-.705-.334-2.697.306Zm-401.442.235c-.998.403-.887 1.895.142 1.895.473 0 .852-.505.852-1.135 0-.625-.064-1.115-.142-1.091-.079.025-.461.174-.852.331Zm-4.542 1.703c-1.328.47-2.414 1.216-2.414 1.658 0 1.005.051 1.002 2.828-.109 1.255-.501 2.283-1.268 2.283-1.703 0-.434-.064-.769-.142-.744-.079.024-1.228.429-2.555.898Zm-89.289 5.248v5.623l2.657.905c1.461.498 2.866.905 3.123.905.256 0 .466-2.938.466-6.528v-6.529h-6.246v5.624Zm48.264-4.806c0 .487.256.885.568.885.312 0 .568-.24.568-.534 0-.294-.256-.692-.568-.885-.312-.193-.568.048-.568.534Zm2.733.705c.41.165.9.144 1.088-.044.189-.189-.146-.323-.745-.298-.661.027-.796.161-.343.342Zm42.834.556c-.989.399-.889 1.327.142 1.327a.854.854 0 0 0 .852-.851c0-.468-.064-.831-.142-.807-.079.025-.461.174-.852.331Zm-4.542 1.703c-1.328.47-2.414 1.116-2.414 1.435 0 .329.432.406.994.179a93.6 93.6 0 0 1 2.555-.968c.859-.311 1.562-.796 1.562-1.077 0-.282-.064-.492-.142-.467-.079.024-1.228.429-2.555.898Zm22.002 5.159v5.536l3.407 1.193 3.407 1.193v-13.457h-6.814v5.535Zm-17.886-3.831c-.193.312.048.567.535.567.486 0 .885-.255.885-.567 0-.313-.241-.568-.535-.568-.294 0-.692.255-.885.568Zm-2.661.955c.409.164.899.144 1.088-.045.188-.188-.147-.322-.745-.298-.662.027-.796.162-.343.343Zm121.718 3.967c.101.519.503 1.051.893 1.18 1.044.348.867-1.379-.183-1.782-.623-.239-.838-.057-.71.602Zm2.738.947c0 .626 2.202 2.078 3.15 2.078.898 0 .006-1.635-1.189-2.179-1.827-.832-1.961-.826-1.961.101Zm-2.839 2.38c0 .458.384.834.852.834.469 0 .852-.229.852-.507 0-.279-.383-.654-.852-.834-.519-.199-.852-.001-.852.507Zm-212.361.442c0 .461.402.992.894 1.181.622.238.837.056.709-.603-.233-1.201-1.603-1.696-1.603-.578Zm215.2.365c0 .266.767.75 1.704 1.077.937.326 1.703.376 1.703.111 0-.266-.766-.75-1.703-1.076-.937-.327-1.704-.377-1.704-.112Zm-212.361.754c0 .399.767 1.016 1.704 1.37 1.38.52 1.703.493 1.703-.14 0-.787-1.675-1.957-2.801-1.957-.333 0-.606.327-.606.727Zm209.522.976c0 .312.399.567.886.567.486 0 .727-.255.534-.567-.193-.313-.591-.568-.885-.568-.294 0-.535.255-.535.568Zm-212.254 1.171c.136.409.584.856.994.993.426.142.639-.071.497-.497-.137-.409-.585-.857-.994-.993-.426-.142-.639.071-.497.497Zm111.184.187c0 .798 1.633 1.74 2.139 1.234.15-.15.122-.667-.063-1.149-.419-1.091-2.076-1.159-2.076-.085Zm-108.452.851c0 .579 2.821 1.404 3.269.957.163-.163-.395-.559-1.239-.88-1.873-.712-2.03-.717-2.03-.077Zm111.859.29c0 .437.767 1.063 1.703 1.389 1.391.485 1.704.44 1.704-.242 0-.46-.655-1.085-1.456-1.39-1.877-.713-1.951-.704-1.951.243Zm-114.698 1.474c0 .313.384.568.852.568.469 0 .852-.255.852-.568 0-.312-.383-.567-.852-.567-.468 0-.852.255-.852.567Zm111.291.507c0 .63 1.747 1.342 2.194.895.181-.181-.048-.565-.507-.856-1.062-.672-1.687-.686-1.687-.039Zm3.407 1.072c0 .244.767.732 1.703 1.086.982.371 1.704.417 1.704.11 0-.292-.655-.781-1.456-1.086-1.76-.669-1.951-.679-1.951-.11Zm-3.407 1.827c0 .313.527.568 1.169.568.643 0 1.012-.255.819-.568-.194-.312-.719-.567-1.17-.567-.45 0-.818.255-.818.567ZM420.67 282.335v31.454l2.413.844c1.327.465 2.86 1.027 3.407 1.25.939.382.993-1.377.993-32.298v-32.703h-6.813v31.453Zm111.858.972v29.018l1.278-.343c.703-.188 2.236-.346 3.407-.349l2.129-.008v-57.337h-6.814v29.019Zm24.416 6.178c0 20.477-.09 22.707-.912 22.707-.599 0-.794.309-.568.898.189.494.344 3.177.344 5.961 0 4.684.086 5.063 1.136 5.063.71 0 1.136-.379 1.136-1.009 0-2.049 1.646-3.533 3.919-3.533 2.407 0 4.03 1.333 4.03 3.309 0 1.138.282 1.233 3.691 1.233h3.691v-2.839c0-2.144.208-2.838.851-2.838.524 0 .852-.532.852-1.379 0-3.18 2.741-4.298 10.541-4.298h5.925v-9.083h5.679v4.727c0 4.307.126 4.844 1.419 6.059 1.907 1.791 1.918 4.662.026 6.554-1.319 1.319-1.746 1.394-7.95 1.394h-6.555v3.345c0 3.579.367 4.035 3.248 4.035 1.431 0 1.448-.051 1.143-3.407l-.309-3.406h4.555l-.404 5.109-.404 5.11h12.044v-1.445c0-.795.628-2.072 1.394-2.839 1.207-1.207 1.911-1.393 5.268-1.393 2.587 0 4.293.293 5.136.884l1.262.883v-57.558l-3.309.3c-3.73.338-4.64-.356-4.64-3.541v-1.711h-52.239v22.708Zm57.243-22.32c.409.164.899.144 1.088-.045.188-.188-.147-.322-.745-.298-.662.028-.796.162-.343.343Zm-98.648 1.079c.027.661.162.796.343.343.164-.41.143-.9-.045-1.088-.189-.189-.323.146-.298.745Zm-4.162.61c-1.171.486-2.129 1.267-2.129 1.735 0 .586.31.726.994.449a92.356 92.356 0 0 1 2.555-.968c.859-.311 1.561-.924 1.561-1.361 0-.981-.301-.966-2.981.145Zm-135.706 1.721c-1.606.419-1.211 1.763.425 1.451.781-.15 1.42-.625 1.42-1.057 0-.808-.145-.838-1.845-.394Zm-6.063 1.526c-1.382.369-2.617.983-2.744 1.364-.286.856.017.851 3.516-.055 1.541-.4 2.904-1.033 3.028-1.409.271-.813-.451-.793-3.8.1Zm141.769.159c-3.023 1.254-2.651 2.036.426.896 1.405-.521 2.555-1.147 2.555-1.392 0-.613-.512-.527-2.981.496Zm122.032 18.192c-.343 17.539-.159 21.143 1.014 19.969.153-.152.292-7.16.311-15.573.051-22.881.038-23.529-.476-23.529-.261 0-.644 8.61-.849 19.133Zm21.496-14.734c-.198 2.421-.484 12.639-.635 22.708l-.275 18.308h15.943V283.24h-4.542v-5.677h4.542v-6.244h-14.673l-.36 4.399Zm51.941-1.277c0 2.952.077 3.122 1.419 3.122 1.325 0 1.42.19 1.42 2.839s-.095 2.838-1.42 2.838h-1.419v38.035h1.703c1.666 0 1.704.063 1.704 2.839 0 2.775-.038 2.838-1.704 2.838h-1.703v7.38h8.517v-37.467l4.968-.003c4.057-.001 5.33-.222 6.939-1.202 3.523-2.147 17.333-8.912 21.883-10.719 8.528-3.387 12.302-3.963 25.972-3.967l12.35-.004v-1.703c0-1.666-.063-1.704-2.839-1.704-2.65 0-2.839-.094-2.839-1.419 0-1.414-.019-1.419-5.394-1.419h-5.395v-3.406h-64.162v3.122Zm114.13-1.419v1.703h-13.06v1.419c0 1.356-.151 1.419-3.407 1.419h-3.407v3.407l7.808.094c4.294.053 9.628.026 11.853-.058 2.226-.083 4.525.096 5.111.4.585.303 2.916.728 5.18.944l4.117.391v-11.422h-14.195v1.703Zm44.722-1.302c.706.136 1.728.131 2.271-.011.543-.142-.035-.253-1.284-.247-1.25.006-1.694.123-.987.258Zm5.387-.01c.547.143 1.441.143 1.987 0 .547-.142.1-.259-.993-.259s-1.541.117-.994.259Zm-495.13 1.755c-1.331.212-1.81 1.266-.568 1.252.855-.011 2.489-.986 2.113-1.261-.148-.108-.843-.104-1.545.009Zm-5.821 1.336c-3.043.828-3.594 1.061-3.273 1.382.382.382 5.659-.891 6.368-1.535.68-.618-.47-.562-3.095.153Zm524.089 6.736v6.812h8.19c7.962 0 8.238.041 9.92 1.456.952.801 1.992 2.397 2.312 3.548.378 1.363.582 21.755.584 58.435l.003 56.343 2.981-.018c1.716-.01 3.449-.372 4.083-.852.607-.458 2.203-.833 3.549-.833h2.447v-19.585c0-12.678-.201-19.585-.568-19.585-.312 0-.568-1.278-.568-2.839s.256-2.838.568-2.838c.367 0 .568-6.718.568-19.018 0-16.525-.112-19.017-.852-19.017-.631 0-.851-.663-.851-2.555 0-1.912.218-2.554.867-2.554.764 0 .854-2.587.759-21.856l-.108-21.856h-33.884v6.812Zm-518.41-5.677-1.42.455 1.562.056c.859.032 1.561-.198 1.561-.511 0-.312-.064-.542-.142-.511-.078.032-.781.262-1.561.511Zm488.884 7.948v4.541h9.085v-9.082h-9.085v4.541Zm-416.914-1.312c-1.415.37-1.295 2.447.141 2.447.833 0 1.136-.378 1.136-1.419 0-.78-.064-1.39-.142-1.353-.078.036-.589.183-1.135.325Zm-6.53 2.356c-1.828.687-2.413 1.209-2.413 2.15v1.243l3.121-1.225c2.127-.835 3.123-1.542 3.123-2.219.001-1.172-.6-1.164-3.831.051Zm6.246 2.17c-.39.158-.71.676-.71 1.152 0 .555.321.741.898.52.494-.19 1.005-.345 1.136-.345.13 0 .237-.383.237-.851 0-.875-.326-.974-1.561-.476Zm-5.678 1.964c-1.64.631-2.981 1.383-2.981 1.674 0 .724.516.67 3.589-.377 1.475-.502 2.656-1.26 2.656-1.703 0-.439-.063-.785-.142-.769-.078.017-1.483.545-3.122 1.175Zm5.347 1.445c-.72.719-.375 1.325.756 1.325.631 0 1.136-.379 1.136-.852 0-.864-1.201-1.164-1.892-.473ZM274.175 351.93v60.743h3.974v-5.022c0-4.3-.163-5.168-1.135-6.048-.921-.834-1.136-1.749-1.136-4.847 0-3.343.142-3.857 1.136-4.117 1.09-.285 1.135-.774 1.135-12.419 0-11.507-.057-12.157-1.135-12.831-.962-.6-1.136-1.323-1.136-4.731 0-3.544.135-4.057 1.136-4.319 1.103-.289 1.135-.774 1.135-17.34 0-15.56-.086-17.111-.993-17.816-.934-.726-.915-.841.324-1.89.725-.614 2.258-1.287 3.407-1.494 2.957-.533 4.076-1.23 4.076-2.54 0-1.933 2.054-5.29 4.766-7.789 1.424-1.313 2.851-2.387 3.171-2.387.367 0 .58-2.912.58-7.948v-7.947h-19.305v60.742Zm593.019-55.917c1.085.821 2.046.672 2.046-.317 0-.294-.703-.526-1.562-.516-1.48.017-1.505.061-.484.833Zm37.25 15.546v16.398l1.4.917c.769.504 1.536.917 1.703.917.167 0 .304-7.792.304-17.315v-17.314h-3.407v16.397Zm-528.206-11.465c-.546.143-.993.601-.993 1.017 0 .477.419.647 1.135.46.625-.164 1.136-.651 1.136-1.083 0-.431-.064-.755-.142-.719-.078.036-.589.183-1.136.325Zm-5.962 1.461c-1.476.355-2.413.903-2.413 1.412 0 .49.336.703.816.518.449-.172 1.855-.592 3.123-.934 1.269-.341 2.307-.867 2.307-1.167 0-.639-.571-.613-3.833.171Zm4.969 2.122c0 .711.602.711 1.703 0 .689-.445.607-.552-.426-.559-.702-.005-1.277.247-1.277.559Zm-4.969.716c-1.327.319-2.413.763-2.413.986 0 .484 5.397-.663 6.01-1.277.535-.535-.515-.449-3.597.291Zm5.395 1.363c.39.158 1.029.158 1.419 0 .391-.157.071-.286-.71-.286-.78 0-1.099.129-.709.286Zm-4.969 7.572c0 2.459.152 2.838 1.136 2.838.984 0 1.136-.379 1.136-2.838 0-2.46-.152-2.839-1.136-2.839-.984 0-1.136.379-1.136 2.839Zm3.975 0c0 2.649.095 2.838 1.419 2.838 1.325 0 1.42-.189 1.42-2.838 0-2.65-.095-2.839-1.42-2.839-1.324 0-1.419.189-1.419 2.839Zm258.354-.55c0 .615.383 1.117.851 1.117.469 0 .852-.356.852-.79 0-.435-.383-.938-.852-1.118-.579-.222-.851.03-.851.791Zm-299.52.875c-11.346 1.223-11.562 1.272-11.23 2.539.28 1.07.893 1.109 17.4 1.093l17.11-.017-1.815-1.651c-3.304-3.006-7.899-3.426-21.465-1.964Zm201.157.654c1.02.126 2.553.124 3.407-.006.853-.13.018-.233-1.856-.23-1.874.003-2.572.109-1.551.236Zm-113.898 2.24c.101.519.503 1.051.893 1.18 1.044.348.867-1.379-.183-1.782-.622-.239-.838-.057-.71.602Zm212.261-.381c0 .312.383.568.851.568.469 0 .852-.256.852-.568 0-.312-.383-.568-.852-.568-.468 0-.851.256-.851.568Zm-209.522 1.364c0 .437.804 1.076 1.788 1.419 2.236.779 2.186.783 2.186-.173 0-.437-.804-1.076-1.788-1.419-2.236-.779-2.186-.783-2.186.173Zm109.276-.272c.657 1.063 3.657 1.286 4.966.369 1.224-.857 1.142-.893-2.007-.893-1.862 0-3.143.227-2.959.524Zm11.667-.2c0 .179.383.707.851 1.175 1.532 1.532 1.669 3.563.358 5.336-.665.898-1.209 1.772-1.209 1.941 0 .169 1.789.307 3.975.307h3.975v-9.083h-3.975c-2.186 0-3.975.146-3.975.324Zm88.579 1.68c0 .459.383.834.851.834.469 0 .852-.228.852-.507s-.383-.654-.852-.834c-.519-.198-.851 0-.851.507Zm-212.361 1.136c0 .458.383.834.851.834.469 0 .852-.229.852-.507 0-.279-.383-.654-.852-.834-.519-.199-.851-.001-.851.507Zm112.426.55c0 .468.256.851.568.851.312 0 .568-.383.568-.851 0-.469-.256-.852-.568-.852-.312 0-.568.383-.568.852Zm-109.587.167c0 .451 2.839 1.82 3.775 1.82.675 0 .026-1.053-.794-1.289a23.042 23.042 0 0 1-1.988-.695c-.56-.23-.993-.159-.993.164Zm111.903.448c.027.661.162.795.343.343.164-.41.144-.9-.045-1.088-.188-.189-.322.146-.298.745Zm-114.742 1.372c0 .312.398.567.885.567.486 0 .727-.255.534-.567-.193-.313-.591-.568-.885-.568-.294 0-.534.255-.534.568Zm112.426 1.135a.57.57 0 0 0 .568.568.57.57 0 0 0 .568-.568.57.57 0 0 0-.568-.568.57.57 0 0 0-.568.568Zm2.271.565c0 .252.795.736 1.767 1.075 1.482.517 1.662.49 1.117-.167-.757-.912-2.884-1.581-2.884-.908Zm97.664 30.09c0 26.366.105 30.087.851 30.087s.852-3.721.852-30.087-.106-30.087-.852-30.087-.851 3.721-.851 30.087Zm-353.178-26.439c0 2.812.129 3.164 1.165 3.164 1.049 0 1.148-.298.993-2.975-.132-2.299-.396-3.018-1.165-3.164-.85-.162-.993.268-.993 2.975Zm4.542.292c0 1.579.256 2.872.568 2.872.312 0 .568-1.134.568-2.521s-.256-2.679-.568-2.872c-.35-.216-.568.751-.568 2.521Zm261.903-.121c1.171.123 3.087.123 4.258 0 1.172-.122.213-.222-2.129-.222s-3.3.1-2.129.222Zm-223.86 38.189v38.035h34.637v-76.07h-34.637v38.035Zm44.857-30.938c0 4.352.22 7.096.568 7.096s.568-2.744.568-7.096c0-4.353-.22-7.097-.568-7.097s-.568 2.744-.568 7.097Zm3.407-5.92c0 .813.306 1.119.988.987 1.479-.284 1.645-2.164.189-2.164-.812 0-1.177.365-1.177 1.177Zm3.975-.264c0 .599.309.793.898.567.494-.189 1.133-.344 1.42-.344.287 0 .521-.256.521-.568 0-.312-.639-.568-1.42-.568-.925 0-1.419.318-1.419.913Zm45.993 29.175v30.087h1.419c.781 0 1.931.511 2.555 1.136 1.044 1.043 1.136 1.892 1.136 10.502 0 7.947.129 9.367.852 9.367.749 0 .851-4.889.851-40.59v-40.59h-6.813v30.088Zm123.782-27.817c0 .324 1.704.568 3.975.568s3.975-.244 3.975-.568c0-.324-1.704-.567-3.975-.567s-3.975.243-3.975.567Zm-169.065.944c-.478.193-.71 1.66-.71 4.496 0 4.113.033 4.211 1.419 4.211 1.396 0 1.42-.076 1.42-4.542 0-4.557-.198-4.944-2.129-4.165Zm278.653 23.751v24.126h15.898v-48.253H654.04v24.127Zm-282.344-23.102c-.847.165-.994.86-.994 4.693 0 3.663.162 4.5.87 4.5 1.24 0 1.477-1.004 1.286-5.456-.145-3.389-.305-3.903-1.162-3.737Zm238.048.82c-.003.702-.165 2.235-.358 3.406l-.352 2.129h4.691v-2.725c0-3.012-.702-4.087-2.669-4.087-.973 0-1.307.324-1.312 1.277Zm-329.891 6.386c0 6.15.066 6.529 1.135 6.529 1.07 0 1.136-.379 1.136-6.529 0-6.149-.066-6.528-1.136-6.528-1.069 0-1.135.379-1.135 6.528Zm4.542-.284c0 3.785.224 6.245.568 6.245s.568-2.46.568-6.245c0-3.784-.224-6.244-.568-6.244s-.568 2.46-.568 6.244Zm248.133-1.703c0 1.01.379 1.136 3.407 1.136s3.407-.126 3.407-1.136c0-1.009-.379-1.135-3.407-1.135s-3.407.126-3.407 1.135Zm11.924 0c0 .757.379 1.136 1.136 1.136.757 0 1.135-.379 1.135-1.136 0-.756-.378-1.135-1.135-1.135s-1.136.379-1.136 1.135Zm5.678 34.913c0 31.664.104 36.048.852 36.048s.852-4.384.852-36.048-.104-36.048-.852-36.048-.852 4.384-.852 36.048Zm5.678 0c0 35.669.012 36.048 1.136 36.048 1.124 0 1.136-.379 1.136-36.048 0-35.669-.012-36.048-1.136-36.048-1.124 0-1.136.379-1.136 36.048Zm6.814 0c0 31.664.103 36.048.852 36.048.748 0 .852-4.384.852-36.048s-.104-36.048-.852-36.048c-.749 0-.852 4.384-.852 36.048Zm24.558-35.626-4.117.196v71.478h18.738V376.19c0-30.856.039-32.012 1.136-34.059.624-1.165 1.135-3.013 1.135-4.107v-1.989l-6.388.113c-3.513.062-8.24.201-10.504.309Zm-211.225 5.063c-1.113.449-.831 1.327.425 1.327.631 0 1.136-.378 1.136-.851 0-.875-.326-.974-1.561-.476Zm-4.685 1.327c-.468.303-1.427.554-2.129.559-.728.005-1.278.36-1.278.825 0 .688.37.708 2.37.129 1.304-.377 2.475-1 2.603-1.383.277-.833-.392-.888-1.566-.13Zm4.968 1.527c-.546.143-.993.473-.993.733s.511.339 1.135.176c.625-.164 1.136-.523 1.136-.799 0-.275-.064-.472-.142-.435-.078.036-.589.182-1.136.325Zm156.29 23.451v23.843h1.233c.678 0 1.7.423 2.271.94 1.005.909 1.039.13 1.039-23.843v-24.782h-4.543v23.842Zm12.492 9.153c0 29.264.097 32.915.852 32.289.738-.614.851-4.988.851-32.996 0-28.322-.104-32.288-.851-32.288s-.852 4.044-.852 32.995Zm-175.169-30.987-2.272.785 2.555-.325c2.796-.356 5.162-1.319 3.123-1.272-.624.015-2.157.38-3.406.812Zm5.962.83c-.689.445-.607.552.425.559.703.005 1.278-.247 1.278-.559 0-.711-.602-.711-1.703 0Zm331.033 24.127c0 24.315.018 24.694 1.136 24.694.919 0 1.135.379 1.135 1.987s-.216 1.987-1.135 1.987c-1.104 0-1.136.378-1.136 13.624v13.625h5.678v21.572h2.839V346.253h-8.517v24.695ZM284.395 351.68c0 3.094.206 4.732.568 4.508.312-.193.568-2.379.568-4.859 0-2.627-.237-4.508-.568-4.508-.335 0-.568 1.998-.568 4.859Zm-4.542.765c0 4.776.063 5.039 1.135 4.759 1.022-.267 1.136-.774 1.136-5.056 0-4.381-.09-4.759-1.136-4.759-1.05 0-1.135.378-1.135 5.056Zm87.442 28.197c0 23.884.147 29.721.769 30.627.423.616 1.042 1.886 1.375 2.823.468 1.315.616-.899.651-9.723.033-8.494-.138-11.577-.665-12.016-.536-.444-.757-5.432-.903-20.364-.106-10.876-.426-20.018-.71-20.314-.31-.324-.517 11.232-.517 28.967Zm7.382-26.804c0 2.335.081 2.461 1.419 2.205 1.224-.234 1.42-.575 1.42-2.476 0-1.973-.149-2.204-1.42-2.204-1.297 0-1.419.213-1.419 2.475Zm-3.975.363c0 1.892.189 2.271 1.136 2.271.946 0 1.136-.379 1.136-2.271s-.19-2.271-1.136-2.271c-.947 0-1.136.379-1.136 2.271Zm3.975 8.231c0 4.769.016 4.826 1.419 4.826 1.404 0 1.42-.057 1.42-4.826 0-4.768-.016-4.825-1.42-4.825-1.403 0-1.419.057-1.419 4.825Zm-3.975.61c0 4.329.11 4.846.994 4.677.834-.159 1.02-.942 1.158-4.867.155-4.384.093-4.677-.993-4.677-1.076 0-1.159.346-1.159 4.867Zm-91.943-3.802c-.757.212-1.495.738-1.639 1.17-.174.523.035.671.628.443.489-.187 1.804-.512 2.922-.723 1.119-.209 2.174-.608 2.345-.884.356-.575-2.205-.578-4.256-.006Zm1.275 2.538c-1.306.36-2.583.887-2.839 1.17-.272.303-.033.362.578.141.574-.206 2.043-.535 3.265-.73 1.222-.196 2.222-.578 2.222-.851 0-.588-.157-.575-3.226.27Zm-.181 8.318c0 1.892.189 2.271 1.135 2.271.947 0 1.136-.379 1.136-2.271s-.189-2.271-1.136-2.271c-.946 0-1.135.379-1.135 2.271Zm4.542.034c0 1.391.225 2.165.568 1.953.312-.193.568-1.23.568-2.304 0-1.075-.256-1.954-.568-1.954-.312 0-.568 1.038-.568 2.305Zm91.56-1.271c-1.245.176-1.278.361-1.278 6.992 0 6.801.002 6.81 1.278 6.418.702-.216 1.349-.454 1.438-.53.088-.076.088-3.045 0-6.599-.158-6.338-.185-6.46-1.438-6.281Zm-4.259.561c-.883.17-.994.979-.994 7.246 0 3.88.192 7.051.426 7.046 1.637-.033 1.878-1.114 1.722-7.708-.144-6.101-.259-6.758-1.154-6.584Zm-87.301 8.908c0 2.838.234 4.825.568 4.825.334 0 .568-1.987.568-4.825 0-2.839-.234-4.826-.568-4.826-.334 0-.568 1.987-.568 4.826Zm-4.542.567c0 4.447.089 4.826 1.135 4.826 1.047 0 1.136-.379 1.136-4.826 0-4.446-.089-4.825-1.136-4.825-1.046 0-1.135.379-1.135 4.825Zm218.039 13.909v16.463h3.974v-7.399c0-8.486.623-10.693 3.515-12.456 1.394-.85 2.87-1.146 5.712-1.148l3.833-.002v-11.921h-17.034v16.463Zm-122.931-8.516c-.193.313-1.215.568-2.271.568-1.733 0-3.068.812-2.414 1.466.555.554 6.104-1.126 6.104-1.847 0-.885-.913-1.005-1.419-.187Zm-90.566 3.406c0 1.562.256 2.839.568 2.839.312 0 .568-1.277.568-2.839 0-1.561-.256-2.838-.568-2.838-.312 0-.568 1.277-.568 2.838Zm-4.542.852c0 2.744.137 3.122 1.135 3.122s1.136-.378 1.136-3.122c0-2.744-.138-3.122-1.136-3.122-.998 0-1.135.378-1.135 3.122Zm95.676-1.689c-.313.115-1.68.495-3.039.844-1.358.35-2.355.751-2.214.892.412.412 6.104-1.047 6.104-1.564 0-.258-.063-.449-.142-.425-.078.024-.397.138-.709.253Zm-.39 2.361c.409.164.899.143 1.088-.045.188-.189-.147-.323-.745-.298-.662.027-.797.161-.343.343Zm-94.293 3.977c-1.36.355-1.256 1.312.142 1.312.631 0 1.136-.379 1.136-.852 0-.468-.064-.822-.142-.786-.078.037-.589.183-1.136.326Zm90.992 3.582c0 3.255.063 3.407 1.419 3.407 1.357 0 1.42-.152 1.42-3.407 0-3.254-.063-3.406-1.42-3.406-1.356 0-1.419.152-1.419 3.406Zm4.542 0c0 1.893.252 3.407.568 3.407.316 0 .568-1.514.568-3.407 0-1.892-.252-3.406-.568-3.406-.316 0-.568 1.514-.568 3.406Zm-98.754-1.939c.028.661.162.796.343.343.164-.41.144-.9-.045-1.088-.188-.189-.322.146-.298.745Zm3.078 1.372c-1.083.465-1.077.49.142.528.703.021 1.278-.216 1.278-.528 0-.312-.064-.55-.142-.528-.078.022-.653.259-1.278.528Zm-360.275 7.947v5.11h12.492v-10.219h-12.492v5.109Zm363.398-.284c0 1.388.257 1.987.852 1.987s.852-.599.852-1.987c0-1.387-.257-1.986-.852-1.986s-.852.599-.852 1.986Zm88.011 4.542c0 3.591.234 6.528.521 6.528 2.108 0 2.318-.621 2.318-6.873v-6.183h-2.839v6.528Zm4.542-.25c0 4.04.203 6.153.568 5.927.32-.198.568-2.939.568-6.278 0-3.573-.225-5.927-.568-5.927-.344 0-.568 2.471-.568 6.278Zm-96.527-3.724c0 1.388.256 1.987.851 1.987s.852-.599.852-1.987c0-1.387-.257-1.987-.852-1.987s-.851.6-.851 1.987Zm3.974 9.349c0 5.302.127 6.179.852 5.9.681-.261.852-1.506.852-6.227 0-4.866-.15-5.9-.852-5.9-.705 0-.852 1.071-.852 6.227Zm-3.974-3.388c0 1.64.236 2.271.851 2.271s.852-.631.852-2.271-.237-2.271-.852-2.271-.851.631-.851 2.271Zm-413.934 13.057v11.921h4.542v-23.843h-4.542v11.922Zm10.788 0v11.921h8.518v-15.327h6.813v-8.516h-15.331v11.922Zm499.975-7.214c-.243.56-.282 1.177-.088 1.372.577.576 1.042-.233.776-1.352-.235-.992-.266-.992-.688-.02Zm-95.551 1.821c.007 1.249.123 1.692.259.986.135-.706.13-1.728-.012-2.27-.142-.543-.253.035-.247 1.284Zm91.701-1.596c-1.494.39-1.195 1.312.425 1.312.884 0 1.42-.322 1.42-.852 0-.873-.135-.907-1.845-.46Zm-89.005 6.468c0 2.172 1.338 1.977 1.599-.233.128-1.075-.079-1.517-.709-1.517-.615 0-.89.54-.89 1.75Zm-2.707.521c0 1.092.117 1.539.259.993.144-.546.144-1.441 0-1.987-.142-.546-.259-.099-.259.994Zm3.888 3.169c.027.661.162.796.343.343.164-.409.143-.899-.045-1.088-.189-.188-.323.147-.298.745Zm85.588 2.895c.409.164.9.144 1.088-.045.189-.188-.146-.322-.745-.298-.661.028-.796.162-.343.343Zm55.184 4.154c0 3.658.166 4.541.852 4.541.63 0 .851-.662.851-2.554v-2.555h15.331v-3.973H425.78v4.541Zm-53.8-2.771c-2.517.727-2.332 1.207.284.737 2.6-.467 4.439-1.356 2.697-1.303-.625.018-1.966.273-2.981.566Zm109.445 2.487c0 .643.694.852 2.839.852 2.146 0 2.839-.209 2.839-.852s-.693-.851-2.839-.851c-2.145 0-2.839.208-2.839.851Zm9.698.047c.027.662.162.796.343.344.164-.41.144-.9-.045-1.089-.189-.188-.323.147-.298.745Zm-9.698 3.359c0 1.325.189 1.419 2.839 1.419s2.839-.094 2.839-1.419c0-1.324-.189-1.419-2.839-1.419s-2.839.095-2.839 1.419Zm9.764 0c.011.937.138 1.251.283.699.144-.552.134-1.319-.021-1.703-.156-.384-.274.068-.262 1.004Zm-118.972.095c-.209.208-.379 1.385-.379 2.615 0 1.807.173 2.171.898 1.892.494-.189 1.133-.344 1.42-.344.286 0 .521-1.022.521-2.271 0-1.823-.205-2.271-1.041-2.271-.573 0-1.212.171-1.419.379Zm4.163 1.892c0 1.249.256 2.271.568 2.271.312 0 .568-1.022.568-2.271 0-1.249-.256-2.271-.568-2.271-.312 0-.568 1.022-.568 2.271Zm-4.163 4.353c-.209.207-.379 2.525-.379 5.148 0 4.622.04 4.765 1.277 4.589 1.199-.17 1.288-.488 1.442-5.149.15-4.534.072-4.967-.899-4.967-.585 0-1.234.17-1.441.379Zm4.163 4.446c0 2.839.234 4.826.568 4.826.334 0 .568-1.987.568-4.826 0-2.838-.234-4.825-.568-4.825-.334 0-.568 1.987-.568 4.825Zm24.984.852c0 .875.379 1.135 1.65 1.135 1.371 0 1.6-.192 1.354-1.135-.193-.735-.775-1.136-1.651-1.136-.974 0-1.353.318-1.353 1.136Zm7.785 0c-.288 1.101-.017 1.135 9.019 1.135 8.937 0 9.315-.046 9.315-1.135 0-1.088-.378-1.136-9.018-1.136-8.542 0-9.035.061-9.316 1.136Zm72.276 0c0 1.056.379 1.135 5.394 1.135 5.016 0 5.395-.079 5.395-1.135s-.379-1.136-5.395-1.136c-5.015 0-5.394.08-5.394 1.136Zm14.196 0c0 .883.378 1.135 1.703 1.135 1.325 0 1.703-.252 1.703-1.135 0-.884-.378-1.136-1.703-1.136-1.325 0-1.703.252-1.703 1.136Zm6.813 0c0 .967.379 1.135 2.555 1.135 2.177 0 2.556-.168 2.556-1.135 0-.968-.379-1.136-2.556-1.136-2.176 0-2.555.168-2.555 1.136Zm8.517 0c0 .957.378 1.135 2.414 1.133l2.413-.002-1.859-1.133c-2.341-1.427-2.968-1.426-2.968.002Zm-138.119 6.068c-.817.213-.994.911-.994 3.908 0 3.513.053 3.648 1.419 3.648 1.38 0 1.42-.113 1.42-3.974 0-2.185-.192-3.944-.426-3.907-.234.036-.873.182-1.419.325Zm3.548 3.582c0 2.271.244 3.974.568 3.974.324 0 .568-1.703.568-3.974 0-2.27-.244-3.973-.568-3.973-.324 0-.568 1.703-.568 3.973Zm25.16 1.42c.003 1.873.109 2.571.236 1.551.126-1.021.123-2.553-.006-3.407-.13-.853-.233-.018-.23 1.856Zm79.885 0v3.122h34.069v-6.245h-34.069v3.123Zm-111.291 32.358v1.419h93.689v-2.838h-93.689v1.419Zm111.291 0v1.419h211.793v-2.838H481.425v1.419Z" fill="#A6BDD0"/></g><path fill="url(#c)" d="M0 0h475v601H0z"/><path transform="rotate(-90 -45 535)" fill="url(#d)" d="M-45 535h546v1097H-45z"/></g><defs><linearGradient id="c" x1="0" y1="387.085" x2="474.71" y2="406.178" gradientUnits="userSpaceOnUse"><stop stop-color="#fff"/><stop offset="1" stop-color="#fff" stop-opacity="0"/></linearGradient><linearGradient id="d" x1="-45" y1="1241.54" x2="270.68" y2="1216.43" gradientUnits="userSpaceOnUse"><stop stop-color="#fff"/><stop offset="1" stop-color="#fff" stop-opacity="0"/></linearGradient><clipPath id="a"><path fill="#fff" d="M0 0h1052v535H0z"/></clipPath><clipPath id="b"><path fill="#fff" transform="translate(0 -92)" d="M0 0h1131v650H0z"/></clipPath></defs></svg>